<ttFont>
          <CharString index="0">
            -14 10 -9 14 vhcurveto
            55 hlineto
            14 9 8 15 hvcurveto
            57 vlineto
            14 -8 11 -15 vhcurveto
            -55 hlineto
            -16 -8 -10 -15 hvcurveto
            return
          </CharString>
          <CharString index="1">
            11 -134 54 0 10 134 0 67 -75 0 rlineto
            return
          </CharString>
          <CharString index="2">
            -85 29 -40 98 vhcurveto
            101 hlineto
            101 28 40 85 hvcurveto
            133 vlineto
            85 -29 40 -98 vhcurveto
            -101 hlineto
            -101 -28 -40 -85 hvcurveto
            return
          </CharString>
          <CharString index="3">
            133 vlineto
            45 6 15 58 vhcurveto
            101 hlineto
            47 15 -11 -49 hvcurveto
            -133 vlineto
            -45 -6 -15 -58 vhcurveto
            -101 hlineto
            -47 -15 11 49 hvcurveto
            return
          </CharString>
          <CharString index="4">
            -85 29 -40 98 vhcurveto
            101 hlineto
            101 28 40 85 hvcurveto
            133 vlineto
            return
          </CharString>
          <CharString index="5">
            85 -29 40 -98 vhcurveto
            -101 hlineto
            -101 -28 -40 -85 hvcurveto
            return
          </CharString>
          <CharString index="6">
            -316 159 -220 0 vhcurveto
            81 hlineto
            0 -166 236 300 272 166 262 0 hvcurveto
            -81 hlineto
            0 -159 -260 -274 hvcurveto
            return
          </CharString>
          <CharString index="7">
            81 hlineto
            0 159 220 316 274 -159 260 0 hvcurveto
            -81 hlineto
            0 166 -262 -272 -300 -166 -236 0 hvcurveto
            return
          </CharString>
          <CharString index="8">
            170 -171 74 171 172 74 -172 171 -74 -171 -170 hlineto
            return
          </CharString>
          <CharString index="9">
            314 74 -314 hlineto
            return
          </CharString>
          <CharString index="10">
            -14 10 -9 14 vhcurveto
            53 hlineto
            14 11 5 18 hvcurveto
            57 vlineto
            16 -7 9 -18 vhcurveto
            -53 hlineto
            -16 -8 -10 -15 hvcurveto
            return
          </CharString>
          <CharString index="11">
            -120 81 -42 91 vhcurveto
            164 hlineto
            99 68 43 119 hvcurveto
            408 vlineto
            86 -45 76 -122 vhcurveto
            -164 hlineto
            -95 -77 -54 -108 hvcurveto
            return
          </CharString>
          <CharString index="12">
            303 hlineto
            92 37 -60 -73 hvcurveto
            0 -166 -316 -226 -109 -74 rrcurveto
            -68 500 74 -357 vlineto
            72 49 285 213 0 196 0 102 -58 108 -145 0 rrcurveto
            return
          </CharString>
          <CharString index="13">
            311 hlineto
            52 52 -26 -65 hvcurveto
            -69 vlineto
            0 -61 -35 -35 -69 -3 rrcurveto
            return
          </CharString>
          <CharString index="14">
            88 -31 103 3 114 0 rrcurveto
            122 56 59 109 hvcurveto
            59 vlineto
            0 76 -25 42 -41 26 40 16 26 47 0 73 rrcurveto
            69 vlineto
            0 92 -61 71 -110 2 rrcurveto
            return
          </CharString>
          <CharString index="15">
            -117 2 -113 1 -88 -31 rrcurveto
            return
          </CharString>
          <CharString index="16">
            34 -37 365 0 0 -185 74 0 0 185 rlineto
            return
          </CharString>
          <CharString index="17">
            90 19 0 59 -90 0 0 282 -37 0 -37 -75 rlineto
            return
          </CharString>
          <CharString index="18">
            -207 -284 vlineto
            294 467 -88 0 rlineto
            return
          </CharString>
          <CharString index="19">
            134 -23 46 -1 124 0 rrcurveto
            62 102 33 137 hvcurveto
            114 vlineto
            97 -46 69 -118 vhcurveto
            -31 0 -65 7 -54 -7 -32 -4 -28 -9 -14 -17 rrcurveto
            12 242 354 0 0 74 -422 0 rlineto
            return
          </CharString>
          <CharString index="20">
            -22 -435 66 0 rlineto
            54 43 21 39 vhcurveto
            154 hlineto
            89 1 -61 -33 hvcurveto
            -110 vlineto
            -44 -21 -49 -69 vhcurveto
            return
          </CharString>
          <CharString index="21">
            0 -315 79 -69 109 -1 rrcurveto
            149 hlineto
            94 67 37 112 hvcurveto
            131 vlineto
            78 -25 71 -136 vhcurveto
            return
          </CharString>
          <CharString index="22">
            -74 0 -104 -11 -85 -10 2 84 18 173 91 0 rrcurveto
            return
          </CharString>
          <CharString index="23">
            -95 13 -106 6 -101 0 rrcurveto
            -83 -89 -89 -265 hvcurveto
            return
          </CharString>
          <CharString index="24">
            263 hlineto
            46 42 -14 -61 hvcurveto
            -125 vlineto
            -71 -37 -10 -51 vhcurveto
            -149 hlineto
            -110 -4 187 94 hvcurveto
            return
          </CharString>
          <CharString index="25">
            391 0 -258 -658 88 0 265 684 -27 48 -459 0 rlineto
            return
          </CharString>
          <CharString index="26">
            -41 4 -113 172 vhcurveto
            145 hlineto
            64 99 24 130 hvcurveto
            98 vlineto
            1 43 -22 78 -54 10 72 15 4 79 -1 22 rrcurveto
            65 vlineto
            123 -55 50 -107 vhcurveto
            -146 hlineto
            -103 -73 -39 -134 hvcurveto
            -65 vlineto
            0 -53 21 -65 64 -22 -40 -13 -45 -20 0 -74 rrcurveto
            return
          </CharString>
          <CharString index="27">
            105 vlineto
            62 45 19 46 vhcurveto
            159 hlineto
            44 42 -24 -57 hvcurveto
            -105 vlineto
            -53 -46 -24 -43 vhcurveto
            -145 hlineto
            -73 -29 28 49 hvcurveto
            return
          </CharString>
          <CharString index="28">
            68 vlineto
            90 38 11 64 vhcurveto
            146 hlineto
            59 29 -27 -74 hvcurveto
            -68 vlineto
            -36 -13 -48 -73 vhcurveto
            -159 hlineto
            -34 -57 17 67 hvcurveto
            return
          </CharString>
          <CharString index="29">
            -78 25 -71 136 vhcurveto
            return
          </CharString>
          <CharString index="30">
            74 0 104 11 85 10 -2 -84 -18 -173 -91 0 rrcurveto
            return
          </CharString>
          <CharString index="31">
            125 vlineto
            71 37 10 51 vhcurveto
            149 hlineto
            return
          </CharString>
          <CharString index="32">
            110 4 -187 -94 hvcurveto
            return
          </CharString>
          <CharString index="33">
            -263 hlineto
            -46 -42 14 61 hvcurveto
            return
          </CharString>
          <CharString index="34">
            375 -174 0 82 -276 132 276 122 0 80 -375 -162 rlineto
            return
          </CharString>
          <CharString index="35">
            375 174 0 80 -375 162 0 -80 276 -122 -276 -132 rlineto
            return
          </CharString>
          <CharString index="36">
            -116 66 -62 102 vhcurveto
            349 hlineto
            138 39 80 98 hvcurveto
            512 vlineto
            0 125 -71 61 -106 2 rrcurveto
            -116 hlineto
            return
          </CharString>
          <CharString index="37">
            -126 1 -114 -18 -48 -10 rrcurveto
            -47 vlineto
            return
          </CharString>
          <CharString index="38">
            404 hlineto
            61 42 -37 -77 hvcurveto
            -512 vlineto
            -68 -21 -35 -82 vhcurveto
            -349 hlineto
            -40 -54 13 90 hvcurveto
            348 vlineto
            80 46 10 48 vhcurveto
            212 hlineto
            54 30 -12 -56 hvcurveto
            1 -1 -76 0 -1 -107 1 -68 -83 -46 -53 -80 hvcurveto
            -53 vlineto
            -1 -68 55 -51 74 2 91 0 85 73 2 0 rrcurveto
            return
          </CharString>
          <CharString index="39">
            372 vlineto
            110 -82 30 -71 vhcurveto
            -215 hlineto
            -166 -2 -128 -36 hvcurveto
            return
          </CharString>
          <CharString index="40">
            45 vlineto
            -1 35 21 28 40 4 rrcurveto
            170 16 0 -123 rlineto
            -50 -24 -60 -31 -59 1 -33 -1 -28 29 0 21 rrcurveto
            return
          </CharString>
          <CharString index="41">
            91 0 66 204 292 0 63 -204 88 0 -257 732 -74 0 rlineto
            return
          </CharString>
          <CharString index="42">
            121 341 118 -341 rlineto
            return
          </CharString>
          <CharString index="43">
            282 hlineto
            154 40 102 102 hvcurveto
            0 114 -52 52 -44 10 71 22 21 66 0 74 rrcurveto
            82 -44 108 -146 vhcurveto
            -282 hlineto
            return
          </CharString>
          <CharString index="44">
            272 207 vlineto
            84 36 -66 -74 -119 -72 -13 -48 hvcurveto
            return
          </CharString>
          <CharString index="45">
            238 207 vlineto
            52 64 -19 -97 -82 -41 -40 -75 hvcurveto
            return
          </CharString>
          <CharString index="46">
            -215 59 -159 185 vhcurveto
            52 0 122 9 70 13 rrcurveto
            59 vlineto
            0 -139 -7 -105 -133 -37 134 164 243 45 57 125 vhcurveto
            92 0 151 -10 1 0 rrcurveto
            59 vlineto
            -70 13 -122 12 -52 0 rrcurveto
            -199 -45 -138 -234 hvcurveto
            return
          </CharString>
          <CharString index="47">
            272 hlineto
            193 67 197 166 150 -35 219 -225 hvcurveto
            -272 hlineto
            return
          </CharString>
          <CharString index="48">
            581 198 vlineto
            116 70 -80 -214 -154 -54 -133 -132 hvcurveto
            return
          </CharString>
          <CharString index="49">
            0 -113 70 -17 66 4 rrcurveto
            306 17 0 57 -306 0 rlineto
            -29 0 -32 -1 -1 53 rrcurveto
            0 200 rlineto
            return
          </CharString>
          <CharString index="50">
            328 10 0 59 rlineto
            return
          </CharString>
          <CharString index="51">
            -328 10 0 200 rlineto
            27 0 29 52 vhcurveto
            return
          </CharString>
          <CharString index="52">
            -316 16 rlineto
            -67 3 -59 -35 0 -98 rrcurveto
            return
          </CharString>
          <CharString index="53">
            0 -212 31 -165 207 2 90 0 66 33 38 21 rrcurveto
            16 -49 56 0 0 386 rlineto
            -24 2 -23 1 -21 0 rrcurveto
            return
          </CharString>
          <CharString index="54">
            -81 0 -53 -14 -40 -11 rrcurveto
            -50 vlineto
            return
          </CharString>
          <CharString index="55">
            168 -200 hlineto
            0 0 -116 -47 -76 1 -123 2 -41 76 0 222 0 202 28 96 132 0 99 0 149 -12 6 0 rrcurveto
            59 vlineto
            -70 13 -132 14 -52 0 rrcurveto
            -199 -35 -170 -200 hvcurveto
            return
          </CharString>
          <CharString index="56">
            74 317 350 -317 74 732 -74 -341 -350 341 -74 hlineto
            return
          </CharString>
          <CharString index="57">
            74 732 -74 hlineto
            return
          </CharString>
          <CharString index="58">
            52 -34 107 -3 53 34 50 32 2 68 0 47 rrcurveto
            567 -74 -567 vlineto
            -1 -139 -111 31 -74 18 rrcurveto
            return
          </CharString>
          <CharString index="59">
            75 330 81 hlineto
            230 -330 90 0 -252 367 252 365 -90 0 -230 -328 -82 0 0 328 -74 0 rlineto
            return
          </CharString>
          <CharString index="60">
            -113 70 -13 66 vhcurveto
            306 74 -306 hlineto
            -29 -33 -1 53 hvcurveto
            606 -74 vlineto
            return
          </CharString>
          <CharString index="61">
            74 0 40 598 194 -598 76 0 188 598 45 -598 74 0 -56 732 -101 0 -189 -609 -195 609 -102 0 rlineto
            return
          </CharString>
          <CharString index="62">
            75 594 hlineto
            391 -594 74 0 0 732 -74 0 0 -594 -390 594 -76 0 rlineto
            return
          </CharString>
          <CharString index="63">
            -333 104 -32 180 180 102 42 323 343 -109 33 -173 -168 -116 -33 -343 vhcurveto
            return
          </CharString>
          <CharString index="64">
            299 77 3 133 136 72 -3 -299 -249 -52 -42 -156 -158 -52 34 257 vhcurveto
            return
          </CharString>
          <CharString index="65">
            5 -3 182 -17 40 0 rrcurveto
            74 101 13 209 179 -96 33 -79 hvcurveto
            -301 hlineto
            return
          </CharString>
          <CharString index="66">
            285 227 vlineto
            35 0 63 -6 2 -131 rrcurveto
            return
          </CharString>
          <CharString index="67">
            16 -100 132 -27 72 27 rrcurveto
            80 vlineto
            -58 -21 -48 -3 -62 44 rrcurveto
            return
          </CharString>
          <CharString index="68">
            74 313 hlineto
            200 -14 154 -299 80 0 -154 302 rlineto
            28 4 99 16 0 190 rrcurveto
            166 -74 54 -95 vhcurveto
            -312 hlineto
            return
          </CharString>
          <CharString index="69">
            278 238 vlineto
            44 50 -14 -131 -133 -48 0 -46 hvcurveto
            return
          </CharString>
          <CharString index="70">
            -84 18 -88 160 vhcurveto
            140 hlineto
            65 17 -41 -57 hvcurveto
            -68 vlineto
            -88 -87 -2 -41 vhcurveto
            -93 0 -117 7 -40 4 rrcurveto
            -60 vlineto
            46 -8 155 -17 49 0 rrcurveto
            99 103 22 142 hvcurveto
            68 vlineto
            82 -23 90 -133 vhcurveto
            -142 hlineto
            -60 -42 7 91 hvcurveto
            66 vlineto
            0 100 54 7 70 -3 0 0 186 -6 64 -4 rrcurveto
            60 vlineto
            -38 5 -159 19 -53 0 rrcurveto
            -112 -86 -33 -145 hvcurveto
            return
          </CharString>
          <CharString index="71">
            214 -658 74 658 220 74 -508 hlineto
            return
          </CharString>
          <CharString index="72">
            -333 135 8 136 121 145 2 323 vhcurveto
            412 -75 -412 vlineto
            -249 -92 -2 -99 -117 -80 -6 257 vhcurveto
            412 -74 vlineto
            return
          </CharString>
          <CharString index="73">
            257 -732 74 0 121 374 137 -374 74 0 229 732 -81 0 -187 -609 -133 375 68 234 -84 0 -181 -603 -213 603 rlineto
            return
          </CharString>
          <CharString index="74">
            233 -472 0 -260 74 0 0 260 253 472 -81 0 -209 -384 -189 384 rlineto
            return
          </CharString>
          <CharString index="75">
            493 74 -396 hlineto
            396 584 0 74 -493 0 0 -74 396 0 -396 -584 rlineto
            return
          </CharString>
          <CharString index="76">
            133 -133 69 0 -107 133 rlineto
            return
          </CharString>
          <CharString index="77">
            -85 60 -47 73 vhcurveto
            91 0 129 70 2 0 rrcurveto
            return
          </CharString>
          <CharString index="78">
            19 -64 55 0 rlineto
            return
          </CharString>
          <CharString index="79">
            387 vlineto
            0 110 -70 45 -83 -1 -99 -1 -89 -9 -71 -20 rrcurveto
            -54 vlineto
            97 7 87 5 72 0 50 0 32 -21 0 -61 1 -1 -1 -66 0 0 rrcurveto
            -1 -222 1 0 -83 -50 -53 -80 vhcurveto
            return
          </CharString>
          <CharString index="80">
            50 vlineto
            0 32 16 29 43 4 rrcurveto
            222 16 0 -143 rlineto
            0 -142 -51 -80 -34 -25 15 48 vhcurveto
            return
          </CharString>
          <CharString index="81">
            53 0 20 59 rlineto
            26 -19 102 -46 68 0 rrcurveto
            145 30 147 122 136 -24 140 -151 hvcurveto
            -45 0 -88 -14 -64 -26 rrcurveto
            286 -72 vlineto
            return
          </CharString>
          <CharString index="82">
            325 vlineto
            69 18 50 8 77 0 rrcurveto
            64 37 -39 -163 -130 -36 -65 -65 hvcurveto
            -79 0 -63 24 -54 22 rrcurveto
            return
          </CharString>
          <CharString index="83">
            -233 76 -38 99 vhcurveto
            83 1 71 5 81 23 rrcurveto
            56 vlineto
            0 -143 -11 -92 -72 -29 40 153 189 41 11 60 89 139 -6 0 vhcurveto
            54 vlineto
            -70 13 -106 13 -52 0 rrcurveto
            -102 -73 -38 -232 hvcurveto
            return
          </CharString>
          <CharString index="84">
            -122 30 -147 145 vhcurveto
            68 0 102 46 26 19 rrcurveto
            20 -59 53 0 0 785 -73 0 0 -286 rlineto
            -64 26 -87 14 -45 0 rrcurveto
            -151 -24 -140 -136 hvcurveto
            return
          </CharString>
          <CharString index="85">
            163 37 39 64 vhcurveto
            77 0 50 -8 69 -18 rrcurveto
            -325 vlineto
            -54 -22 -63 -24 -79 0 rrcurveto
            -65 -36 65 130 hvcurveto
            return
          </CharString>
          <CharString index="86">
            -208 40 -65 135 vhcurveto
            83 0 86 5 81 23 rrcurveto
            56 vlineto
            -75 -11 -83 1 -92 0 rrcurveto
            -78 -23 31 125 hvcurveto
            224 hlineto
            96 41 45 77 176 -78 12 -125 -164 -68 -30 -237 hvcurveto
            return
          </CharString>
          <CharString index="87">
            162 46 1 113 108 20 -9 -105 -33 -19 -16 -44 vhcurveto
            return
          </CharString>
          <CharString index="88">
            457 148 74 -148 99 vlineto
            0 48 2 37 64 -1 rrcurveto
            0 122 -1 1 vhcurveto
            49 vlineto
            -49 15 -42 9 -49 0 rrcurveto
            -120 -3 -102 -54 hvcurveto
            0 -99 rlineto
            return
          </CharString>
          <CharString index="89">
            142 23 135 60 hvcurveto
            0 73 -20 21 -11 21 rrcurveto
            return
          </CharString>
          <CharString index="90">
            -312 hlineto
            -107 -66 -62 -127 hvcurveto
            0 -53 14 -65 44 -28 rrcurveto
            -41 -8 -18 -42 0 -33 rrcurveto
            return
          </CharString>
          <CharString index="91">
            55 17 60 82 vhcurveto
            90 hlineto
            return
          </CharString>
          <CharString index="92">
            79 0 16 -45 3 -70 2 -47 -19 -74 -80 0 rrcurveto
            -98 hlineto
            -77 -15 72 49 hvcurveto
            return
          </CharString>
          <CharString index="93">
            74 409 hlineto
            77 37 39 20 80 0 rrcurveto
            52 38 -30 -66 hvcurveto
            -370 74 370 vlineto
            88 -58 82 -106 vhcurveto
            -81 0 -54 -36 -61 -35 rrcurveto
            315 -74 vlineto
            return
          </CharString>
          <CharString index="94">
            -14 10 -9 14 vhcurveto
            50 hlineto
            14 9 8 15 hvcurveto
            54 vlineto
            14 -8 11 -15 vhcurveto
            -50 hlineto
            -16 -8 -10 -15 hvcurveto
            return
          </CharString>
          <CharString index="95">
            74 531 -74 hlineto
            return
          </CharString>
          <CharString index="96">
            74 268 40 hlineto
            214 -268 92 0 -236 305 236 226 -103 0 -203 -189 -40 0 0 440 -74 0 rlineto
            return
          </CharString>
          <CharString index="97">
            -141 55 -48 77 vhcurveto
            88 53 hlineto
            -7 -82 21 0 hvcurveto
            -34 8 -23 20 0 87 rrcurveto
            594 -74 vlineto
            return
          </CharString>
          <CharString index="98">
            74 407 hlineto
            77 37 35 19 77 0 rrcurveto
            52 39 -38 -59 hvcurveto
            -366 74 368 vlineto
            39 vlineto
            66 43 51 13 79 0 rrcurveto
            52 38 -38 -59 hvcurveto
            -366 74 366 vlineto
            102 -72 69 -92 vhcurveto
            -89 0 -73 -35 -52 -43 -23 49 -59 29 -65 0 -79 0 -49 -35 -61 -35 rrcurveto
            -22 64 -52 0 rlineto
            return
          </CharString>
          <CharString index="99">
            74 409 hlineto
            77 37 39 20 80 0 rrcurveto
            51 39 -30 -66 hvcurveto
            -370 74 370 vlineto
            88 -58 82 -106 vhcurveto
            -81 0 -54 -36 -61 -35 rrcurveto
            return
          </CharString>
          <CharString index="100">
            -190 55 -73 179 179 55 66 197 211 -55 67 -179 -174 -60 -61 -217 vhcurveto
            return
          </CharString>
          <CharString index="101">
            191 48 13 112 117 43 -14 -190 -175 -52 -14 -108 -103 -57 12 177 vhcurveto
            return
          </CharString>
          <CharString index="102">
            72 302 hlineto
            64 -26 88 -14 45 0 rrcurveto
            151 24 140 136 122 -30 147 -145 hvcurveto
            -68 0 -103 -46 -26 -19 rrcurveto
            return
          </CharString>
          <CharString index="103">
            325 vlineto
            54 22 64 24 79 0 rrcurveto
            65 36 -65 -130 -163 -37 -39 -64 hvcurveto
            -77 0 -51 8 -69 18 rrcurveto
            return
          </CharString>
          <CharString index="104">
            63 3 132 107 vhcurveto
            187 -374 hlineto
            -83 -21 -30 -4 -74 0 rrcurveto
            -114 4 117 87 hvcurveto
            return
          </CharString>
          <CharString index="105">
            74 404 hlineto
            77 37 41 21 80 0 29 0 33 -3 12 -3 rrcurveto
            73 vlineto
            -12 6 -33 2 -29 0 -82 0 -55 -38 -61 -35 rrcurveto
            return
          </CharString>
          <CharString index="106">
            -103 44 -28 94 vhcurveto
            158 hlineto
            44 12 -20 -35 hvcurveto
            -49 vlineto
            -60 -56 6 0 vhcurveto
            return
          </CharString>
          <CharString index="107">
            38 -4 187 -15 49 0 rrcurveto
            64 66 19 109 hvcurveto
            49 vlineto
            75 -43 54 -87 vhcurveto
            -158 hlineto
            -37 -27 2 55 hvcurveto
            46 vlineto
            34 0 25 64 vhcurveto
            return
          </CharString>
          <CharString index="108">
            -52 5 -157 11 -52 0 rrcurveto
            -103 -35 -50 -82 hvcurveto
            return
          </CharString>
          <CharString index="109">
            99 -268 hlineto
            -141 55 -48 77 vhcurveto
            88 53 hlineto
            -7 -82 21 0 hvcurveto
            -34 8 -23 20 0 87 rrcurveto
            return
          </CharString>
          <CharString index="110">
            268 155 74 vlineto
            return
          </CharString>
          <CharString index="111">
            -155 148 -56 hlineto
            return
          </CharString>
          <CharString index="112">
            -88 58 -82 106 vhcurveto
            81 0 54 36 61 35 rrcurveto
            return
          </CharString>
          <CharString index="113">
            22 -62 52 0 0 531 -74 0 0 -409 rlineto
            return
          </CharString>
          <CharString index="114">
            -77 -37 -39 -20 -80 0 rrcurveto
            -51 -39 30 66 hvcurveto
            370 -74 vlineto
            return
          </CharString>
          <CharString index="115">
            199 -531 80 0 87 260 118 -260 74 0 203 531 -81 0 -162 -422 -116 252 54 170 -80 0 -138 -422 -157 422 rlineto
            return
          </CharString>
          <CharString index="116">
            130 -421 rlineto
            33 -108 66 -2 21 0 rrcurveto
            -94 -270 46 0 75 102 234 699 -83 0 -152 -454 rlineto
            1 0 -49 -18 -18 57 rrcurveto
            -129 415 rlineto
            return
          </CharString>
          <CharString index="117">
            304 0 -289 -382 0 -74 381 0 rlineto
            0 0 1 73 -1 1 rrcurveto
            -284 0 284 382 0 74 -396 0 rlineto
            return
          </CharString>
          <CharString index="118">
            -28 23 -23 28 28 22 23 28 28 -22 22 -28 -28 -23 -22 -28 vhcurveto
            return
          </CharString>
          <CharString index="119">
            -134 43 -234 184 vhcurveto
            270 hlineto
            151 53 175 193 124 -8 240 -196 hvcurveto
            -270 hlineto
            -192 -35 -201 -163 hvcurveto
            return
          </CharString>
          <CharString index="120">
            242 74 58 89 vhcurveto
            270 hlineto
            131 9 -180 -120 hvcurveto
            0 -204 -62 -99 -78 -1 rrcurveto
            -270 hlineto
            -114 1 -49 160 0 143 rrcurveto
            return
          </CharString>
          <CharString index="121">
            211 -208 52 52 -160 156 155 151 -52 52 rlineto
            return
          </CharString>
          <CharString index="122">
            292 63 -292 hlineto
            return
          </CharString>
          <CharString index="123">
            -57 46 -45 56 56 45 45 57 57 -45 46 -56 -56 -46 -46 -57 vhcurveto
            return
          </CharString>
          <CharString index="124">
            30 25 25 30 30 24 -25 -30 -30 -24 -24 -30 -30 -25 24 30 vhcurveto
            return
          </CharString>
          <CharString index="125">
            172 hlineto
            58 18 -24 -53 hvcurveto
            0 -113 -178 -118 -67 -54 rrcurveto
            -58 309 62 -196 vlineto
            42 35 155 124 0 125 0 78 -32 58 -98 0 rrcurveto
            return
          </CharString>
          <CharString index="126">
            -72 0 -45 -7 -66 -8 rrcurveto
            -1 1 -1 -48 2 0 rrcurveto
            return
          </CharString>
          <CharString index="127">
            186 hlineto
            45 24 -18 -42 hvcurveto
            -22 vlineto
            0 -40 -24 -22 -45 -2 rrcurveto
            return
          </CharString>
          <CharString index="128">
            -142 -7 0 -47 rlineto
            return
          </CharString>
          <CharString index="129">
            142 -5 rlineto
            35 -1 33 -17 0 -51 rrcurveto
            -23 vlineto
            -44 -18 -17 -54 vhcurveto
            0 -145 -1 -32 vhcurveto
            -1 -43 rlineto
            57 -20 55 2 74 0 rrcurveto
            99 27 48 71 hvcurveto
            28 vlineto
            0 49 -22 28 -27 17 26 10 23 31 0 47 rrcurveto
            35 vlineto
            60 -34 57 -87 vhcurveto
            return
          </CharString>
          <CharString index="130">
            -76 0 -62 2 -57 -20 rrcurveto
            return
          </CharString>
          <CharString index="131">
            69 0 133 133 -95 0 rlineto
            return
          </CharString>
          <CharString index="132">
            -37 51 vlineto
            80 21 34 102 hvcurveto
            -67 hlineto
            0 -38 -4 -34 -28 -12 rrcurveto
            return
          </CharString>
          <CharString index="133">
            128 35 0 -407 62 0 0 476 -62 0 -128 -55 rlineto
            return
          </CharString>
          <CharString index="134">
            -128 39 -49 127 127 37 49 128 142 -37 45 -127 -127 -39 -45 -142 vhcurveto
            return
          </CharString>
          <CharString index="135">
            125 34 0 70 vhcurveto
            67 0 37 -2 -2 -123 -2 -114 -33 -1 -67 0 rrcurveto
            -63 -41 3 112 hvcurveto
            return
          </CharString>
          <CharString index="136">
            52 -52 211 208 -206 203 -52 -52 155 -151 rlineto
            return
          </CharString>
          <CharString index="137">
            65 0 348 732 -65 0 rlineto
            return
          </CharString>
          <CharString index="138">
            22 -24 243 0 0 -120 62 0 0 120 rlineto
            return
          </CharString>
          <CharString index="139">
            59 13 0 52 -59 0 0 169 -34 0 -28 -48 rlineto
            return
          </CharString>
          <CharString index="140">
            72 0 78 71 71 -71 71 0 -104 130 -71 0 rlineto
            return
          </CharString>
          <CharString index="141">
            21 -41 rlineto
            37 14 14 20 44 1 rrcurveto
            return
          </CharString>
          <CharString index="142">
            36 1 15 -32 56 -3 42 -2 40 40 33 25 rrcurveto
            -22 42 rlineto
            -32 -17 -35 -20 -24 1 rrcurveto
            return
          </CharString>
          <CharString index="143">
            -28 1 -29 31 -50 3 rrcurveto
            -41 0 -37 -31 -40 -33 rrcurveto
            return
          </CharString>
          <CharString index="144">
            65 -346 273 hlineto
            193 66 197 166 150 -34 219 -225 -60 -213 0 -1 hvcurveto
            -331 -65 vlineto
            return
          </CharString>
          <CharString index="145">
            269 139 54 -139 252 vlineto
            199 1 rlineto
            108 74 -79 -210 -154 -50 -133 -132 hvcurveto
            return
          </CharString>
          <CharString index="146">
            -20 13 -12 20 vhcurveto
            74 hlineto
            20 15 8 24 hvcurveto
            80 vlineto
            22 -10 13 -25 vhcurveto
            -74 hlineto
            -22 -11 -14 -21 hvcurveto
            return
          </CharString>
          <CharString index="147">
            12 -27 hlineto
            0 -12 -1 -24 -33 1 rrcurveto
            -35 vlineto
            0 104 -19 104 hvcurveto
            return
          </CharString>
          <CharString index="148">
            99 vlineto
            16 -6 14 -20 vhcurveto
            -56 hlineto
            -18 -10 -10 -20 hvcurveto
            return
          </CharString>
          <CharString index="149">
            12 -27 hlineto
            0 -12 -1 -24 -33 1 rrcurveto
            -35 vlineto
            0 104 -20 105 hvcurveto
            return
          </CharString>
          <CharString index="150">
            99 vlineto
            16 -7 14 -20 vhcurveto
            -56 hlineto
            -18 -9 -10 -20 hvcurveto
            return
          </CharString>
          <CharString index="151">
            -14 8 -11 15 vhcurveto
            55 hlineto
            16 8 10 15 hvcurveto
            57 vlineto
            14 -10 9 -14 vhcurveto
            -55 hlineto
            -14 -9 -8 -15 hvcurveto
            return
          </CharString>
          <CharString index="152">
            -100 58 -10 59 vhcurveto
            117 hlineto
            64 49 14 96 hvcurveto
            255 vlineto
            67 -30 43 -83 vhcurveto
            -117 hlineto
            -71 -46 -26 -84 hvcurveto
            return
          </CharString>
          <CharString index="153">
            247 vlineto
            31 7 21 51 vhcurveto
            109 hlineto
            48 8 -17 -35 hvcurveto
            -247 vlineto
            -35 -5 -17 -51 vhcurveto
            -109 hlineto
            -49 -9 12 40 hvcurveto
            return
          </CharString>
          <CharString index="154">
            -121 -167 vlineto
            181 289 -71 0 rlineto
            return
          </CharString>
          <CharString index="155">
            87 -15 47 1 81 0 rrcurveto
            63 46 32 82 hvcurveto
            64 vlineto
            71 -32 49 -77 vhcurveto
            -32 0 -88 10 -30 -29 rrcurveto
            8 138 237 0 0 62 -295 0 -15 -292 52 0 rlineto
            35 19 14 25 vhcurveto
            115 hlineto
            53 -2 -40 -22 hvcurveto
            -56 vlineto
            -33 -16 -22 -35 vhcurveto
            return
          </CharString>
          <CharString index="156">
            -2 -213 62 -37 72 0 rrcurveto
            107 hlineto
            61 44 33 72 hvcurveto
            73 vlineto
            51 -17 50 -88 vhcurveto
            return
          </CharString>
          <CharString index="157">
            -48 0 -74 -8 -55 -6 1 55 4 98 59 0 rrcurveto
            return
          </CharString>
          <CharString index="158">
            173 hlineto
            30 17 -7 -36 hvcurveto
            -61 vlineto
            -36 -14 -15 -33 vhcurveto
            -106 hlineto
            -65 -2 122 33 hvcurveto
            return
          </CharString>
          <CharString index="159">
            255 0 -171 -414 70 0 182 445 -17 31 -319 0 rlineto
            return
          </CharString>
          <CharString index="160">
            -54 17 -50 92 vhcurveto
            120 hlineto
            55 50 20 84 hvcurveto
            58 vlineto
            0 28 -13 53 -35 6 47 10 2 51 -1 14 rrcurveto
            40 vlineto
            86 -38 31 -70 vhcurveto
            -110 hlineto
            -67 -49 -25 -92 hvcurveto
            -40 vlineto
            0 -34 13 -42 42 -14 -26 -8 -29 -16 0 -48 rrcurveto
            return
          </CharString>
          <CharString index="161">
            50 vlineto
            40 19 12 30 vhcurveto
            115 hlineto
            29 17 -15 -37 hvcurveto
            -50 vlineto
            -34 -19 -11 -28 vhcurveto
            -112 hlineto
            -41 -10 13 32 hvcurveto
            return
          </CharString>
          <CharString index="162">
            32 vlineto
            46 13 13 45 vhcurveto
            97 hlineto
            38 17 -11 -48 hvcurveto
            -32 vlineto
            -23 -3 -32 -47 vhcurveto
            -111 hlineto
            -22 -27 11 44 hvcurveto
            return
          </CharString>
          <CharString index="163">
            48 0 74 8 55 6 -1 -55 -5 -98 -59 0 rrcurveto
            return
          </CharString>
          <CharString index="164">
            61 vlineto
            36 14 15 33 vhcurveto
            109 hlineto
            return
          </CharString>
          <CharString index="165">
            65 -1 -122 -33 hvcurveto
            return
          </CharString>
          <CharString index="166">
            -173 hlineto
            -30 -17 7 36 hvcurveto
            return
          </CharString>
          <CharString index="167">
            302 hlineto
            92 3 37 -41 0 -73 0 -147 -298 -167 -127 -71 rrcurveto
            -68 495 74 -342 vlineto
            58 30 289 176 0 171 0 113 -63 74 -140 0 rrcurveto
            return
          </CharString>
          <CharString index="168">
            97 -18 104 -1 101 0 83 0 89 89 0 265 0 315 -79 69 -109 1 rrcurveto
            -149 hlineto
            -94 -67 -37 -112 hvcurveto
            return
          </CharString>
          <CharString index="169">
            -72 59 -42 55 55 61 38 76 vhcurveto
            -47 hlineto
            -42 -31 -25 -38 -33 -34 28 39 vhcurveto
            return
          </CharString>
          <CharString index="170">
            -150 -64 77 -133 115 16 rrcurveto
            60 vlineto
            -79 2 -7 51 83 68 rrcurveto
            return
          </CharString>
          <CharString index="171">
            117 -130 71 0 104 130 -71 0 -69 -71 -80 71 rlineto
            return
          </CharString>
          <CharString index="172">
            11 -134 53 0 10 134 0 67 -74 0 rlineto
            return
          </CharString>
          <CharString index="173">
            1 -67 10 -134 53 0 11 134 0 67 rlineto
            return
          </CharString>
          <CharString index="174">
            -158 31 -120 153 vhcurveto
            45 0 78 13 64 26 rrcurveto
            -133 vlineto
            -64 -32 -31 -53 vhcurveto
            -258 -49 hlineto
            258 -24 rlineto
            70 -7 89 51 0 124 rrcurveto
            618 vlineto
            -47 4 -108 19 -106 0 rrcurveto
            -125 -59 -101 -168 hvcurveto
            return
          </CharString>
          <CharString index="175">
            97 -457 74 457 hlineto
            return
          </CharString>
          <CharString index="176">
            310 hlineto
            52 52 -26 -65 hvcurveto
            -69 vlineto
            0 -61 -35 -35 -69 -3 rrcurveto
            return
          </CharString>
          <CharString index="177">
            242 -7 rlineto
            54 -2 48 -26 0 -78 rrcurveto
            -59 vlineto
            -84 -55 -9 -53 vhcurveto
            return
          </CharString>
          <CharString index="178">
            88 -31 102 3 114 0 rrcurveto
            122 56 59 109 hvcurveto
            59 vlineto
            0 76 -25 42 -41 26 40 16 26 47 0 73 rrcurveto
            69 vlineto
            0 92 -60 71 -110 2 rrcurveto
            return
          </CharString>
          <CharString index="179">
            34 -37 366 0 0 -185 74 0 0 185 rlineto
            return
          </CharString>
          <CharString index="180">
            90 19 0 59 -90 0 0 282 -38 0 -36 -75 rlineto
            return
          </CharString>
          <CharString index="181">
            -99 13 -102 6 -101 0 rrcurveto
            -83 -89 -89 -265 hvcurveto
            return
          </CharString>
          <CharString index="182">
            60 0 29 -38 60 0 60 0 38 45 39 27 rrcurveto
            -22 42 rlineto
            -47 -18 -19 -21 -47 0 rrcurveto
            return
          </CharString>
          <CharString index="183">
            0 -27 9 -34 28 -20 rrcurveto
            -40 -65 0 -85 rlineto
            -104 66 -50 94 vhcurveto
            150 hlineto
            131 19 94 60 hvcurveto
            63 vlineto
            83 -46.400390625 55 -82.599609375 vhcurveto
            -213 hlineto
            -22.2041015625 -18.7958984375 8 26 26 25 4 16 hvcurveto
            156 hlineto
            return
          </CharString>
          <CharString index="184">
            135 vlineto
            0 14 -8 31 vhcurveto
            199 hlineto
            57.599609375 10.400390625 -22 -47 hvcurveto
            -58 vlineto
            -47 -17 -33 -59 vhcurveto
            -150 hlineto
            -35 -51 7 73 hvcurveto
            return
          </CharString>
          <CharString index="185">
            -15.2998046875 9.900390625 -7.2001953125 12.599609375 vhcurveto
            return
          </CharString>
          <CharString index="186">
            9.900390625 -22.5 hlineto
            0 -9.900390625 -0.900390625 -18.8994140625 -27 0.8994140625 rrcurveto
            -28.7998046875 vlineto
            0 85.5 -16.2001953125 85.5 hvcurveto
            return
          </CharString>
          <CharString index="187">
            81 vlineto
            13.5 -5.400390625 10.80078125 -16.19921875 vhcurveto
            -45.900390625 hlineto
            -14.400390625 -8.099609375 -8.1005859375 -16.2001953125 hvcurveto
            return
          </CharString>
          <CharString index="188">
            -13.5 5.39999389648 -10.800994873 16.200012207 vhcurveto
            45.8999938965 hlineto
            14.3999938965 8.10000610352 8.10000610352 16.2009887695 hvcurveto
            48.5989990234 vlineto
            15.3010101318 -9.89999389648 7.19898986816 -12.6000061035 vhcurveto
            return
          </CharString>
          <CharString index="189">
            -9.89999389648 22.5 hlineto
            0 9.90100097656 0.899993896484 18.8980102539 27 -0.898010253906 rrcurveto
            28.800994873 vlineto
            0 1.52587890625e-05 -85.5 16.1989898682 0 -85.5 rrcurveto
            return
          </CharString>
          <CharString index="190">
            -85 29 -40 98 vhcurveto
            45 hlineto
            101 28 40 85 hvcurveto
            62 vlineto
            85 -29 40 -98 vhcurveto
            -45 hlineto
            -101 -28 -40 -85 hvcurveto
            return
          </CharString>
          <CharString index="191">
            62 vlineto
            45 6 15 58 vhcurveto
            45 hlineto
            47 15 -11 -49 hvcurveto
            -62 vlineto
            -45 -6 -15 -58 vhcurveto
            -45 hlineto
            -47 -15 11 49 hvcurveto
            return
          </CharString>
          <CharString index="192">
            -85 29 -40 98 vhcurveto
            45 hlineto
            101 28 40 85 hvcurveto
            62 vlineto
            return
          </CharString>
          <CharString index="193">
            85 -29 40 -98 vhcurveto
            -45 hlineto
            -101 -28 -40 -85 hvcurveto
            return
          </CharString>
          <CharString index="194">
            81 0 64 152 235 0 60 -152 81 0 -214 570 -74 0 rlineto
            return
          </CharString>
          <CharString index="195">
            94 238 86 -238 rlineto
            return
          </CharString>
          <CharString index="196">
            264 hlineto
            126 31 77 85 hvcurveto
            0 75 -33 40 -32 14 40 22 22 33 0 72 rrcurveto
            67 -30 86 -124 vhcurveto
            -264 hlineto
            return
          </CharString>
          <CharString index="197">
            183 vlineto
            36 -2 154 2 0 0 rrcurveto
            65 18 -41 -55 -79 -48 -8 -35 hvcurveto
            return
          </CharString>
          <CharString index="198">
            165 190 vlineto
            29 51 -7 -72 -62 -16 -24 -64 hvcurveto
            return
          </CharString>
          <CharString index="199">
            -138 23 -161 181 vhcurveto
            77 0 91 16 58 11 rrcurveto
            57 vlineto
            0 0 -153 -8 -73 -2 -115 2 -15 110 0 113 0 128 28 81 102 0 65 0 146 -7 15 -3 rrcurveto
            59 vlineto
            -51 12 -132 13 -43 0 rrcurveto
            -170 -34 -138 -145 hvcurveto
            return
          </CharString>
          <CharString index="200">
            247 hlineto
            60 159 1 282 hvcurveto
            0 123 -43 164 -176 2 rrcurveto
            -247 hlineto
            return
          </CharString>
          <CharString index="201">
            424 173 vlineto
            84 61 -64 -151 -110 -28 -99 -117 hvcurveto
            return
          </CharString>
          <CharString index="202">
            -52 34 -33 50 vhcurveto
            return
          </CharString>
          <CharString index="203">
            307 14 0 60 rlineto
            return
          </CharString>
          <CharString index="204">
            -281 hlineto
            -21 -15 3 29 hvcurveto
            0 143 rlineto
            return
          </CharString>
          <CharString index="205">
            286 7 0 61 rlineto
            return
          </CharString>
          <CharString index="206">
            -286 8 0 142 rlineto
            24 2 9 30 vhcurveto
            return
          </CharString>
          <CharString index="207">
            -287 12 rlineto
            -64 -40 -32 -58 hvcurveto
            return
          </CharString>
          <CharString index="208">
            -286 8 0 145 rlineto
            2 21 0 12 30 0 rrcurveto
            return
          </CharString>
          <CharString index="209">
            0 -50 6 -244 207 1 60 0 71 17 53 34 rrcurveto
            return
          </CharString>
          <CharString index="210">
            15 -44 56 0 0 308 rlineto
            -24 2 -22 1 -21 0 rrcurveto
            return
          </CharString>
          <CharString index="211">
            -81 0 -64 -14 -40 -11 rrcurveto
            -49 vlineto
            return
          </CharString>
          <CharString index="212">
            178 -119 hlineto
            -22 -17 -78 -35 -81 0 rrcurveto
            -117 -22 145 77 176 38 41 101 hvcurveto
            94 0 85 -7 62 -6 rrcurveto
            62 vlineto
            -58 11 -140 14 -43 0 rrcurveto
            -172 -41 -109 -184 hvcurveto
            return
          </CharString>
          <CharString index="213">
            74 239 311 -239 74 571 -74 -258 -311 258 -74 hlineto
            return
          </CharString>
          <CharString index="214">
            74 570 -74 hlineto
            return
          </CharString>
          <CharString index="215">
            49 -29 72 -10 60 37 52 32 5 68 0 46 rrcurveto
            405 -74 -405 vlineto
            -3 -106 -60 -1 -97 17 rrcurveto
            return
          </CharString>
          <CharString index="216">
            74 243 71 hlineto
            205 -243 93 0 -231 281 231 290 -93 0 -203 -254 -73 0 0 254 -74 0 rlineto
            return
          </CharString>
          <CharString index="217">
            -55 33 -31 53 vhcurveto
            296 74 -270 hlineto
            -24 0 -15 1 1 26 rrcurveto
            469 -74 vlineto
            return
          </CharString>
          <CharString index="218">
            70 0 47 442 166 -442 64 0 164 441 41 -441 72 0 -54 571 -89 0 -167 -447 -168 447 -91 0 rlineto
            return
          </CharString>
          <CharString index="219">
            74 438 hlineto
            319 -438 70 0 0 571 -73 0 0 -434 -319 434 -71 0 rlineto
            return
          </CharString>
          <CharString index="220">
            -249 88 -36 161 168 82 47 245 256 -87 32 -163 -166 -83 -51 -244 vhcurveto
            return
          </CharString>
          <CharString index="221">
            221 80 -5 95 112 64 1 -215 -217 -82 -1 -94 -119 -56 18 198 vhcurveto
            return
          </CharString>
          <CharString index="222">
            196 -13 rlineto
            62 90 9 175 116 -84 46 -68 hvcurveto
            -271 hlineto
            return
          </CharString>
          <CharString index="223">
            198 196 vlineto
            36 0 45 -28 -3 -68 rrcurveto
            return
          </CharString>
          <CharString index="224">
            74 240 hlineto
            1 -2 132 -12 30 -2 rrcurveto
            128 -224 84 0 -136 233 rlineto
            83 7 27 83 0 87 rrcurveto
            134 -93 27 -60 vhcurveto
            -270 hlineto
            return
          </CharString>
          <CharString index="225">
            199 196 vlineto
            7 72 4 -92 -98 -44 -13 -35 hvcurveto
            return
          </CharString>
          <CharString index="226">
            -96 44 -35 94 vhcurveto
            170 hlineto
            44 12 -20 -35 hvcurveto
            -70 vlineto
            0 -15 -54 -41 -96 -190 3 0 vhcurveto
            -55 vlineto
            37 -12 200 -10 49 0 rrcurveto
            55 75 19 109 hvcurveto
            70 vlineto
            75 -43 54 -87 vhcurveto
            -170 hlineto
            -37 -27 -3 60 hvcurveto
            59 vlineto
            34 12 33 52 98 175 -4 0 vhcurveto
            57 vlineto
            -67 9 -154 11 -52 0 rrcurveto
            -103 -35 -58 -82 hvcurveto
            return
          </CharString>
          <CharString index="227">
            186 -496 74 496 186 74 -446 hlineto
            return
          </CharString>
          <CharString index="228">
            -1 -239 104 -26 136 0 rrcurveto
            121 113 32 233 hvcurveto
            310 -75 -310 vlineto
            -162 -60 -29 -99 vhcurveto
            -117 0 -48 29 1 162 rrcurveto
            310 -75 vlineto
            return
          </CharString>
          <CharString index="229">
            216 -570 78 0 97 276 110 -276 74 0 206 570 -75 0 -167 -461 -110 267 67 194 -80 0 -163 -461 -172 461 rlineto
            return
          </CharString>
          <CharString index="230">
            212 -380 0 -191 74 0 0 191 210 380 -81 0 -165 -302 -169 302 rlineto
            return
          </CharString>
          <CharString index="231">
            426 74 -324 hlineto
            324 422 0 74 -426 0 0 -74 328 0 -328 -422 rlineto
            return
          </CharString>
          <CharString index="232">
            -28 23 -23 28 28 22 23 28 28 -22 23 -28 -28 -23 -23 -28 vhcurveto
            return
          </CharString>
          <CharString index="233">
            -57 45 -46 56 56 45 46 57 57 -45 46 -56 -56 -45 -46 -57 vhcurveto
            return
          </CharString>
          <CharString index="234">
            30 24 24 30 30 24 -24 -30 -30 -24 -24 -30 -30 -24 24 30 vhcurveto
            return
          </CharString>
          <CharString index="235">
            67 -263 233 hlineto
            45 168 0 283 123 -41 165 -167 hvcurveto
            -25 0 -201 2 -12 -1 rrcurveto
            -255 -67 vlineto
            return
          </CharString>
          <CharString index="236">
            188 99 54 -99 177 146 vlineto
            84 57 -57 -154 -115 -30 -93 -117 hvcurveto
            return
          </CharString>
          <CharString index="237">
            109 vlineto
            19 -7 14 -22 vhcurveto
            -63 hlineto
            -20 -10 -11 -22 hvcurveto
            return
          </CharString>
          <CharString index="238">
            109 vlineto
            19 -8 14 -22 vhcurveto
            -63 hlineto
            -20 -9 -11 -22 hvcurveto
            return
          </CharString>
          <CharString index="239">
            109 vlineto
            19 -7 14 -22 vhcurveto
            -62 hlineto
            -20 -11 -11 -22 hvcurveto
            return
          </CharString>
          <CharString index="240">
            75 645 hlineto
            0 17 18 5 7 -15 rrcurveto
            276 -603 rlineto
            40 -94 124 36 0 88 rrcurveto
            653 -74 -646 vlineto
            0 -15 -16 -6 -8 18 rrcurveto
            -273 597 rlineto
            -39 86 -130 -12 0 -102 rrcurveto
            return
          </CharString>
          <CharString index="241">
            73 0 42 645 rlineto
            1 17 20 6 5 -16 rrcurveto
            125 -409 rlineto
            24 -78 117 1 21 77 rrcurveto
            111 410 rlineto
            4 16 23 -6 0 -17 rrcurveto
            51 -646 74 0 -49 652 rlineto
            0 102 -145 17 -27 -90 rrcurveto
            -112 -411 rlineto
            -4 -15 -14 -4 -6 19 rrcurveto
            -124 410 rlineto
            -27 90 -143 -16 0 -102 rrcurveto
            return
          </CharString>
          <CharString index="242">
            74 429 hlineto
            89 33 36 4 71 0 rrcurveto
            51 39 -30 -66 hvcurveto
            -370 74 370 vlineto
            0 20 -2 20 -6 19 89 33 36 4 71 0 rrcurveto
            51 39 -30 -66 hvcurveto
            -370 74 370 vlineto
            88 -58 82 -106 vhcurveto
            -97 0 -50 -10 -90 -34 -27 27 -39 17 -49 0 -108 0 -51 -13 -111 -44 rrcurveto
            return
          </CharString>
          <CharString index="243">
            74 429 hlineto
            89 33 36 4 71 0 rrcurveto
            51 39 -30 -66 hvcurveto
            -370 74 370 vlineto
            88 -58 82 -106 vhcurveto
            -108 0 -51 -13 -111 -44 rrcurveto
            return
          </CharString>
          <CharString index="244">
            74 429 hlineto
            99 37 74 6 101 -9 rrcurveto
            75 vlineto
            -163 14 -66 -21 -119 -48 rrcurveto
            return
          </CharString>
          <CharString index="245">
            -113 76 -18 61 vhcurveto
            144 hlineto
            106 49 52 104 hvcurveto
            106 vlineto
            0 208 -36 66 -140 1 -99 1 -76 -20 -74 -11 rrcurveto
            -56 vlineto
            97 5 77 7 72 0 77 1 28 -22 0 -125 rrcurveto
            -225 hlineto
            -96 -41 -45 -77 hvcurveto
            return
          </CharString>
          <CharString index="246">
            64 vlineto
            0 33 19 13 44 3 rrcurveto
            225 16 0 -104 rlineto
            -46 -5 -36 -76 vhcurveto
            -144 hlineto
            -57 -6 26 31 hvcurveto
            return
          </CharString>
          <CharString index="247">
            -88 58 -82 106 vhcurveto
            108 0 72 1 90 26 rrcurveto
            513 -74 -454 vlineto
            -47 -7 -78 -5 -71 0 rrcurveto
            -51 -39 30 66 hvcurveto
            370 -74 vlineto
            return
          </CharString>
          <CharString index="248">
            47 -4 108 -19 106 0 rrcurveto
            125 59 101 168 158 -31 120 -153 hvcurveto
            -45 0 -78 -13 -64 -26 rrcurveto
            289 -74 vlineto
            return
          </CharString>
          <CharString index="249">
            374 vlineto
            83 21 30 4 74 0 rrcurveto
            114 -4 -117 -87 -63 -3 -132 -107 hvcurveto
            return
          </CharString>
          <CharString index="250">
            -168 59 -101 125 vhcurveto
            106 0 108 19 47 4 rrcurveto
            774 -74 -289 vlineto
            -64 26 -78 13 -45 0 rrcurveto
            -153 -31 -120 -158 hvcurveto
            return
          </CharString>
          <CharString index="251">
            87 -4 117 114 vhcurveto
            74 0 30 -4 83 -21 rrcurveto
            -374 -187 vlineto
            -107 -3 132 63 hvcurveto
            return
          </CharString>
          <CharString index="252">
            74 457 157 74 -157 99 hlineto
            48 3 36 64 vhcurveto
            0 152 -1 1 vhcurveto
            49 vlineto
            -49 15 -72 9 -49 0 rrcurveto
            -120 -4 -102 -54 hvcurveto
            return
          </CharString>
          <CharString index="253">
            74 301 hlineto
            64 -26 78 -13 45 0 rrcurveto
            153 31 120 158 168 -59 101 -125 hvcurveto
            -106 0 -108 -19 -47 -4 rrcurveto
            return
          </CharString>
          <CharString index="254">
            374 187 vlineto
            107 3 -132 -63 -87 4 -117 -114 hvcurveto
            -74 0 -30 4 -83 21 rrcurveto
            return
          </CharString>
          <CharString index="255">
            -141 55 -48 77 vhcurveto
            88 53 hlineto
            -7 -82 21 0 hvcurveto
            -34 8 -23 20 0 87 rrcurveto
            268 155 74 -155 148 -74 vlineto
            return
          </CharString>
        <CharString name=".notdef">
          185 0 13 505 13 hstem
          100 14 530 14 vstem
          644 506 rmoveto
          0 -481 -252 241 rlineto
          -265 -253 rmoveto
          254 243 253 -243 rlineto
          -520 9 rmoveto
          0 485 256 -241 rlineto
          265 252 rmoveto
          -254 -242 -257 242 rlineto
          -24 -518 rmoveto
          558 531 -558 hlineto
          endchar
        </CharString>
        <CharString name="A">
          97 21 -21 204 74 454 -20 hstem
          45 hmoveto
          -66 callsubr
          -85 -454 rmoveto
          -65 callsubr
          endchar
        </CharString>
        <CharString name="AE">
          348 21 -21 12 61 154 74 17 79 -69 59 270 75 -75 59 hstemhm
          432 74 hintmask 10100001
          30 hmoveto
          81 0 111 227 210 0 0 -106 rlineto
          0 -113 70 -17 66 4 rrcurveto
          hintmask 01110001
          307 17 0 61 -307 1 rlineto
          -29 -33 -6 53 hvcurveto
          0 197 rlineto
          hintmask 00101001
          330 10 0 59 rlineto
          hintmask 00110101
          -330 10 0 207 rlineto
          2 27 0 26 48 0 rrcurveto
          hintmask 00100011
          320 59 hlineto
          hintmask 10100101
          -320 16 rlineto
          -83 0 -73 16 -72 -144 rrcurveto
          -69 -303 rmoveto
          173 351 0 -351 rlineto
          endchar
        </CharString>
        <CharString name="Aacute">
          97 0 21 183 74 434 20 65 133 hstem
          316.5 202 vstem
          316.5 797 rmoveto
          24 callsubr
          -378.5 -930 rmoveto
          -66 callsubr
          -85 -454 rmoveto
          -65 callsubr
          endchar
        </CharString>
        <CharString name="Abreve">
          97 0 21 183 74 434 20 65 47 hstem
          236 47 136 47 vstem
          236 911 rmoveto
          62 callsubr
          -238 -911 rmoveto
          -66 callsubr
          -85 -454 rmoveto
          -65 callsubr
          endchar
        </CharString>
        <CharString name="Acircumflex">
          97 0 21 183 74 434 20 65 130 hstem
          205 292 vstem
          205 797 rmoveto
          33 callsubr
          0 vmoveto
          71 hmoveto
          -348 -927 rmoveto
          -66 callsubr
          -85 -454 rmoveto
          -65 callsubr
          endchar
        </CharString>
        <CharString name="Adieresis">
          97 0 21 183 74 434 20 65 101 hstem
          173 101 154 101 vstem
          173 848 rmoveto
          11 callsubr
          255 hmoveto
          11 callsubr
          -383 -848 rmoveto
          -66 callsubr
          -85 -454 rmoveto
          -65 callsubr
          endchar
        </CharString>
        <CharString name="Agrave">
          97 0 21 183 74 434 20 65 133 hstem
          183.5 202 vstem
          183.5 930 rmoveto
          -31 callsubr
          -233.5 -930 rmoveto
          -66 callsubr
          -85 -454 rmoveto
          -65 callsubr
          endchar
        </CharString>
        <CharString name="Amacron">
          97 0 21 183 74 434 20 65 63 hstem
          205 292 vstem
          205 797 rmoveto
          15 callsubr
          -160 -860 rmoveto
          -66 callsubr
          -85 -454 rmoveto
          -65 callsubr
          endchar
        </CharString>
        <CharString name="Aogonek">
          97 -181 60 101 20 0 21 183 74 434 20 hstemhm
          hintmask 11000000
          584.333007812 hmoveto
          63 callsubr
          hintmask 00111000
          -578.333007812 hmoveto
          -66 callsubr
          -85 -454 rmoveto
          -65 callsubr
          endchar
        </CharString>
        <CharString name="Aring">
          97 0 21 183 74 434 20 -1.83299255371 48 109 48 hstemhm
          249.5 47 109 47 hintmask 00011110
          249.5 832.166992188 rmoveto
          16 callsubr
          47 hmoveto
          17 callsubr
          hintmask 11100000
          -251.5 -832.166992188 rmoveto
          -66 callsubr
          -85 -454 rmoveto
          -65 callsubr
          endchar
        </CharString>
        <CharString name="Atilde">
          97 0 21 183 74 434 20 66 69 -35 70 hstemhm
          hintmask 00001000
          182 838 rmoveto
          34 callsubr
          hintmask 00010000
          35 callsubr
          hintmask 00001000
          36 callsubr
          hintmask 11100000
          -137 -838 rmoveto
          -66 callsubr
          -85 -454 rmoveto
          -65 callsubr
          endchar
        </CharString>
        <CharString name="B">
          23 0 74 272 74 238 74 hstem
          80 75 327 74 vstem
          80 hmoveto
          -64 callsubr
          75 -658 rmoveto
          -63 callsubr
          -207 346 rmoveto
          -62 callsubr
          endchar
        </CharString>
        <CharString name="C">
          5 -6 74 598 74 hstem
          55 74 vstem
          55 368 rmoveto
          -61 callsubr
          endchar
        </CharString>
        <CharString name="Cacute">
          5 -6 74 598 74 60 133 hstem
          55 74 165.5 202 vstem
          294.5 800 rmoveto
          24 callsubr
          -346.5 -565 rmoveto
          -61 callsubr
          endchar
        </CharString>
        <CharString name="Ccaron">
          5 -6 74 598 74 60 130 hstem
          55 74 59 292 vstem
          188 930 rmoveto
          64 callsubr
          45 -130 rmoveto
          71 hmoveto
          -321 -432 rmoveto
          -61 callsubr
          endchar
        </CharString>
        <CharString name="Ccedilla">
          5 -172 37 129 74 598 74 hstem
          55 74 174 67 vstem
          218 -135 rmoveto
          25 callsubr
          -216 488 rmoveto
          -61 callsubr
          endchar
        </CharString>
        <CharString name="Ccircumflex">
          5 -6 74 598 74 60 130 hstem
          55 74 54 292 vstem
          183 800 rmoveto
          33 callsubr
          0 vmoveto
          71 hmoveto
          -316 -562 rmoveto
          -61 callsubr
          endchar
        </CharString>
        <CharString name="Cdotaccent">
          5 -6 74 598 74 62 102 hstem
          55 74 161 97 vstem
          290 825 rmoveto
          -13 callsubr
          -235 -511 rmoveto
          -61 callsubr
          endchar
        </CharString>
        <CharString name="D">
          84 0 77 581 74 hstem
          80 74 384 74 vstem
          80 hmoveto
          -60 callsubr
          74 -655 rmoveto
          -59 callsubr
          endchar
        </CharString>
        <CharString name="Dcaron">
          84 0 77 581 74 60 130 hstem
          80 74 18 292 74 74 vstem
          172 922 rmoveto
          64 callsubr
          45 -130 rmoveto
          71 hmoveto
          -280 -792 rmoveto
          -60 callsubr
          74 -655 rmoveto
          -59 callsubr
          endchar
        </CharString>
        <CharString name="Dcroat">
          84 0 77 269 54 252 80 hstem
          80 74 381 77 vstem
          15 346 rmoveto
          37 callsubr
          139 -323 rmoveto
          38 callsubr
          endchar
        </CharString>
        <CharString name="E">
          -6 14 57 252 79 -69 59 266 74 -74 58 hstemhm
          80 74 hintmask 11000100
          80 123 rmoveto
          -58 callsubr
          hintmask 10100100
          -57 callsubr
          hintmask 11010100
          -56 callsubr
          hintmask 10001100
          316 58 hlineto
          hintmask 11010100
          -55 callsubr
          endchar
        </CharString>
        <CharString name="Eacute">
          -6 14 57 252 79 -69 59 266 58 -58 74 60 133 hstemhm
          80 74 133 202 hintmask 00000101
          287 792 rmoveto
          24 callsubr
          hintmask 11000010
          -314 -802 rmoveto
          -58 callsubr
          hintmask 10100010
          -57 callsubr
          hintmask 11001010
          -56 callsubr
          hintmask 10010010
          316 58 hlineto
          hintmask 11001010
          -55 callsubr
          endchar
        </CharString>
        <CharString name="Ecaron">
          -6 14 57 252 79 -69 59 266 58 -58 74 60 130 hstemhm
          80 74 15 292 hintmask 00000101
          169 922 rmoveto
          64 callsubr
          45 -130 rmoveto
          71 hmoveto
          hintmask 11000010
          -277 -669 rmoveto
          -58 callsubr
          hintmask 10100010
          -57 callsubr
          hintmask 11001010
          -56 callsubr
          hintmask 10010010
          316 58 hlineto
          hintmask 11001010
          -55 callsubr
          endchar
        </CharString>
        <CharString name="Ecircumflex">
          -6 14 57 252 79 -69 59 266 58 -58 74 65 130 hstemhm
          80 74 16 292 hintmask 00000101
          170 797 rmoveto
          33 callsubr
          0 vmoveto
          71 hmoveto
          hintmask 11000010
          -278 -804 rmoveto
          -58 callsubr
          hintmask 10100010
          -57 callsubr
          hintmask 11001010
          -56 callsubr
          hintmask 10010010
          316 58 hlineto
          hintmask 11001010
          -55 callsubr
          endchar
        </CharString>
        <CharString name="Edieresis">
          -6 14 57 252 79 -69 59 266 58 -58 74 60 101 hstemhm
          80 74 -15 101 154 101 hintmask 0000010110000000
          139 843 rmoveto
          11 callsubr
          255 hmoveto
          11 callsubr
          hintmask 1100001000000000
          -314 -720 rmoveto
          -58 callsubr
          hintmask 1010001000000000
          -57 callsubr
          hintmask 1100101000000000
          -56 callsubr
          hintmask 1001001000000000
          316 58 hlineto
          hintmask 1100101000000000
          -55 callsubr
          endchar
        </CharString>
        <CharString name="Edotaccent">
          -6 14 57 252 79 -69 59 266 58 -58 74 62 102 hstemhm
          80 74 118 97 hintmask 00000101
          272 817 rmoveto
          -13 callsubr
          hintmask 11000010
          -192 -748 rmoveto
          -58 callsubr
          hintmask 10100010
          -57 callsubr
          hintmask 11001010
          -56 callsubr
          hintmask 10010010
          316 58 hlineto
          hintmask 11001010
          -55 callsubr
          endchar
        </CharString>
        <CharString name="Egrave">
          -6 14 57 252 79 -69 59 266 58 -58 74 60 133 hstemhm
          80 74 22 202 hintmask 00000101
          176 925 rmoveto
          -31 callsubr
          hintmask 11000010
          -191 -802 rmoveto
          -58 callsubr
          hintmask 10100010
          -57 callsubr
          hintmask 11001010
          -56 callsubr
          hintmask 10010010
          316 58 hlineto
          hintmask 11001010
          -55 callsubr
          endchar
        </CharString>
        <CharString name="Emacron">
          -6 14 57 252 79 -69 59 266 58 -58 74 63 63 hstemhm
          80 74 19 292 hintmask 00000101
          173 795 rmoveto
          15 callsubr
          hintmask 11000010
          -93 -735 rmoveto
          -58 callsubr
          hintmask 10100010
          -57 callsubr
          hintmask 11001010
          -56 callsubr
          hintmask 10010010
          316 58 hlineto
          hintmask 11001010
          -55 callsubr
          endchar
        </CharString>
        <CharString name="Eng">
          105 -257 57 221 -21 732 -20 hstem
          80 74 390 74 vstem
          80 hmoveto
          74 0 2 594 388 -594 0 -70 rlineto
          0 -120 -82 6 -58 -16 rrcurveto
          -57 vlineto
          118 96 21 152 hvcurveto
          0 84 0 732 -74 0 0 -584 -388 584 -76 0 rlineto
          endchar
        </CharString>
        <CharString name="Eogonek">
          -6 -167.25 60 101 20 0.25 57 252 79 -69 59 266 58 -58 74 hstemhm
          80 74 hintmask 11000000
          482.833007812 13.75 rmoveto
          63 callsubr
          hintmask 00110001
          -441.833007812 109.25 rmoveto
          -58 callsubr
          hintmask 00101001
          -57 callsubr
          hintmask 00110011
          -56 callsubr
          hintmask 00100101
          316 58 hlineto
          hintmask 00110011
          -55 callsubr
          endchar
        </CharString>
        <CharString name="Eth">
          84 0 77 269 54 252 80 hstem
          80 74 381 77 vstem
          15 346 rmoveto
          37 callsubr
          139 -323 rmoveto
          38 callsubr
          endchar
        </CharString>
        <CharString name="Euro">
          38 -6 74 180 61 -54 47 108 60 -52 43 205 74 hstemhm
          108 74 hintmask 10100110
          20 255 rmoveto
          hintmask 11000110
          88 -7 rlineto
          -226 157 -28 77 vhcurveto
          83 0 85 12 81 23 rrcurveto
          56 vlineto
          0 -152 -17 -97 -94 -66 46 134 vhcurveto
          hintmask 10100110
          -3 2 237 5 0 0 rrcurveto
          0 47 rlineto
          hintmask 11010110
          -234 7 0 101 234 7 0 46 -234 7 rlineto
          117 11 79 149 82 163 -15 0 vhcurveto
          59 vlineto
          -70 13 -123 17 -52 0 rrcurveto
          -244 10 -198 -72 hvcurveto
          hintmask 10001110
          -88 -9 0 -43 rlineto
          hintmask 11010110
          88 -8 0 -101 rlineto
          hintmask 10100110
          -88 -7 rlineto
          endchar
        </CharString>
        <CharString name="Euro.smcp">
          -58 -5 77 127 47 70 44 143 74 hstem
          84 75 vstem
          16 199 rmoveto
          68 -6 rlineto
          -176 144 -22 49 vhcurveto
          65 0 76 10 63 18 rrcurveto
          62 vlineto
          0 -124 -13 -80 -66 -52 27 94 vhcurveto
          -2 2 187 4 0 0 rrcurveto
          0 47 -185 5 0 59 185 5 0 46 -185 6 rlineto
          61 2 75 116 64 137 -11 0 vhcurveto
          62 vlineto
          -55 10 -105 13 -41 0 rrcurveto
          -190 -3 -154 -56 hvcurveto
          -68 -7 0 -44 68 -6 0 -59 -68 -5 rlineto
          endchar
        </CharString>
        <CharString name="F">
          -6 21 -21 323 79 -69 59 266 74 -74 58 hstemhm
          80 74 hintmask 11000100
          80 hmoveto
          74 323 hlineto
          hintmask 10100100
          -57 callsubr
          hintmask 11010100
          -56 callsubr
          hintmask 10001100
          316 58 hlineto
          hintmask 11010100
          -55 callsubr
          endchar
        </CharString>
        <CharString name="G">
          41 -5 73 246 75 -75 50 302 74 hstemhm
          55 74 356 74 -56 56 hintmask 11011010
          55 370 rmoveto
          -54 callsubr
          hintmask 10111100
          -53 callsubr
          hintmask 11011100
          -52 callsubr
          endchar
        </CharString>
        <CharString name="Gbreve">
          41 -5 73 246 50 -50 75 277 74 60 47 hstemhm
          55 74 92 47 136 47 34 74 -56 56 hintmask 0000101100000000
          221 914 rmoveto
          62 callsubr
          hintmask 1011010001000000
          -213 -544 rmoveto
          -54 callsubr
          hintmask 1101010010000000
          -53 callsubr
          hintmask 1011010010000000
          -52 callsubr
          endchar
        </CharString>
        <CharString name="Gcircumflex">
          41 -5 73 246 50 -50 75 277 74 60 130 hstemhm
          55 74 61 292 3 74 -56 56 hintmask 0000101000000000
          190 800 rmoveto
          33 callsubr
          0 vmoveto
          71 hmoveto
          hintmask 1011010010000000
          -323 -560 rmoveto
          -54 callsubr
          hintmask 1101010100000000
          -53 callsubr
          hintmask 1011010100000000
          -52 callsubr
          endchar
        </CharString>
        <CharString name="Gcommaaccent">
          41 -249.199996948 28.8000030518 215.399993896 73 246 50 -50 75 277 74 hstemhm
          55 74 147.5 90 -57.6000061035 57.6000061035 118.5 74 -56 56 hintmask 0000000000000000
          hintmask 1000001000000000
          276.5 -147.5 rmoveto
          78 callsubr
          hintmask 1000000100000000
          79 callsubr
          hintmask 1000001000000000
          80 callsubr
          hintmask 0101110001000000
          -221.5 468.900390625 rmoveto
          -54 callsubr
          hintmask 0110110010000000
          -53 callsubr
          hintmask 0101110010000000
          -52 callsubr
          endchar
        </CharString>
        <CharString name="Gdotaccent">
          41 -5 73 246 50 -50 75 277 74 60 102 hstemhm
          55 74 150 97 109 74 -56 56 hintmask 0000101000000000
          279 823 rmoveto
          -13 callsubr
          hintmask 1011010010000000
          -224 -507 rmoveto
          -54 callsubr
          hintmask 1101010100000000
          -53 callsubr
          hintmask 1011010100000000
          -52 callsubr
          endchar
        </CharString>
        <CharString name="H">
          65 21 -21 317 74 341 -20 hstem
          80 74 350 74 vstem
          80 hmoveto
          -51 callsubr
          endchar
        </CharString>
        <CharString name="Hbar">
          85 21 -21 317 74 125 54 162 -20 hstem
          80 74 350 74 vstem
          19 516 rmoveto
          61 -516 74 317 350 -317 74 516 59 54 -59 162 -74 -162 -350 hlineto
          162 -74 -162 -61 vlineto
          135 -179 rmoveto
          125 350 -125 vlineto
          endchar
        </CharString>
        <CharString name="Hcircumflex">
          65 0 21 296 74 321 20 65 130 hstem
          80 74 29 292 29 74 vstem
          cntrmask 00001110
          183 797 rmoveto
          33 callsubr
          0 vmoveto
          71 hmoveto
          -291 -927 rmoveto
          -51 callsubr
          endchar
        </CharString>
        <CharString name="I">
          -359 21 -21 732 -20 hstem
          80 74 vstem
          80 hmoveto
          -50 callsubr
          endchar
        </CharString>
        <CharString name="Iacute">
          -359 0 21 691 20 65 133 hstemhm
          80 74 -71.5 202 hintmask 00101000
          82.5 797 rmoveto
          24 callsubr
          hintmask 11010000
          -109.5 -930 rmoveto
          -50 callsubr
          endchar
        </CharString>
        <CharString name="Icircumflex">
          -359 0 21 691 20 65 130 hstemhm
          -29 292 -183 74 hintmask 00110000
          -29 797 rmoveto
          33 callsubr
          0 vmoveto
          71 hmoveto
          hintmask 11001000
          -79 -927 rmoveto
          -50 callsubr
          endchar
        </CharString>
        <CharString name="Idieresis">
          -359 0 21 691 20 65 101 hstem
          -61 101 40 74 40 101 vstem
          cntrmask 00011100
          -61 848 rmoveto
          11 callsubr
          255 hmoveto
          11 callsubr
          -114 -848 rmoveto
          -50 callsubr
          endchar
        </CharString>
        <CharString name="Idotaccent">
          -359 0 21 691 20 65 102 hstemhm
          68.5 97 -85.5 74 hintmask 00110000
          68.5 820 rmoveto
          -13 callsubr
          hintmask 11001000
          11.5 -874 rmoveto
          -50 callsubr
          endchar
        </CharString>
        <CharString name="Idotaccent.smcp">
          -373 21 -21 639 102 hstemhm
          51 97 -88 74 hintmask 11010000
          60 hmoveto
          107 callsubr
          hintmask 01100000
          -9 92 rmoveto
          -13 callsubr
          endchar
        </CharString>
        <CharString name="Igrave">
          -359 0 21 691 20 65 133 hstemhm
          -50.5 202 -71.5 74 hintmask 00110000
          -50.5 930 rmoveto
          -31 callsubr
          hintmask 11001000
          35.5 -930 rmoveto
          -50 callsubr
          endchar
        </CharString>
        <CharString name="Imacron">
          -359 0 21 691 20 65 63 hstemhm
          -29 292 -183 74 hintmask 00110000
          -29 797 rmoveto
          15 callsubr
          hintmask 11001000
          109 -860 rmoveto
          -50 callsubr
          endchar
        </CharString>
        <CharString name="Iogonek">
          -359 -181 60 101 20 0 21 691 20 hstemhm
          80 74 hintmask 11000000
          100 hmoveto
          63 callsubr
          hintmask 00111000
          -59 hmoveto
          -50 callsubr
          endchar
        </CharString>
        <CharString name="Itilde">
          -359 0 21 691 20 66 69 -35 70 hstemhm
          80 74 hintmask 00010000
          -52 838 rmoveto
          34 callsubr
          hintmask 00100000
          35 callsubr
          hintmask 00010000
          36 callsubr
          hintmask 11001000
          132 -838 rmoveto
          -50 callsubr
          endchar
        </CharString>
        <CharString name="J">
          -214 21 54 657 -20 hstem
          225 74 vstem
          35 21 rmoveto
          -49 callsubr
          endchar
        </CharString>
        <CharString name="Jcircumflex">
          -214 21 54 637 20 65 130 hstemhm
          116 292 -183 74 hintmask 00110000
          116 797 rmoveto
          33 callsubr
          0 vmoveto
          71 hmoveto
          hintmask 11001000
          -269 -906 rmoveto
          -49 callsubr
          endchar
        </CharString>
        <CharString name="K">
          18 21 -21 330 74 328 -20 hstem
          80 75 vstem
          80 hmoveto
          -48 callsubr
          endchar
        </CharString>
        <CharString name="Kcommaaccent">
          18 -244.199996948 28.8000030518 215.399993896 21 309 74 308 20 hstemhm
          80 75 106.5 90 -57.6000061035 57.6000061035 hintmask 00000000
          hintmask 10000100
          261.5 -142.5 rmoveto
          78 callsubr
          hintmask 10000010
          79 callsubr
          hintmask 10000100
          80 callsubr
          hintmask 01111000
          -181.5 93.900390625 rmoveto
          -48 callsubr
          endchar
        </CharString>
        <CharString name="L">
          -16 0 74 658 -20 hstem
          80 74 vstem
          80 126 rmoveto
          -47 callsubr
          endchar
        </CharString>
        <CharString name="Lacute">
          -16 0 74 638 20 65 133 hstemhm
          80 74 -71.5 202 hintmask 00101000
          82.5 797 rmoveto
          24 callsubr
          hintmask 11010000
          -109.5 -804 rmoveto
          -47 callsubr
          endchar
        </CharString>
        <CharString name="Lcaron">
          -16 0 74 658 -20 hstem
          80 74 77 74 vstem
          80 126 rmoveto
          -113 69.9920043945 -13 66.0079956055 vhcurveto
          306 74 -306 hlineto
          -29 -33 -1 53 hvcurveto
          606 -74 vlineto
          151 -27 rmoveto
          65 callsubr
          endchar
        </CharString>
        <CharString name="Lcommaaccent">
          -16 -244.199996948 28.8000030518 215.399993896 74 638 20 hstemhm
          80 74 110.5 90 -57.6000061035 57.6000061035 hintmask 00000000
          hintmask 10001000
          264.5 -142.5 rmoveto
          78 callsubr
          hintmask 10000100
          79 callsubr
          hintmask 10001000
          80 callsubr
          hintmask 01110000
          -184.5 219.900390625 rmoveto
          -47 callsubr
          endchar
        </CharString>
        <CharString name="Lslash">
          -17 0 74 658 -20 hstem
          80 74 vstem
          -3 320 rmoveto
          83 36 0 -230 rlineto
          -113 69.9920043945 -13 66.0079956055 vhcurveto
          306 74 -306 hlineto
          -29 -33 -1 53 hvcurveto
          0 262 139 61 1 60 -140 -60 0 283 -74 0 0 -315 -83 -36 rlineto
          endchar
        </CharString>
        <CharString name="M">
          228 21 -21 732 -20 hstem
          55 hmoveto
          -46 callsubr
          endchar
        </CharString>
        <CharString name="M.salt">
          228 21 -21 hstem
          55 hmoveto
          134 callsubr
          endchar
        </CharString>
        <CharString name="N">
          107 21 -21 732 -20 hstem
          80 75 391 74 vstem
          80 hmoveto
          -45 callsubr
          endchar
        </CharString>
        <CharString name="N.salt">
          107 21 -21 732 -20 hstem
          80 75 391 74 vstem
          80 hmoveto
          133 callsubr
          endchar
        </CharString>
        <CharString name="Nacute">
          107 0 21 691 20 65 133 hstem
          80 75 170.5 202 18.5 74 vstem
          325.5 797 rmoveto
          24 callsubr
          -352.5 -930 rmoveto
          -45 callsubr
          endchar
        </CharString>
        <CharString name="Nacute.salt">
          107 0 21 691 20 65 133 hstem
          80 75 183 202 6 74 vstem
          338 797 rmoveto
          24 callsubr
          -365 -930 rmoveto
          133 callsubr
          endchar
        </CharString>
        <CharString name="Ncaron">
          107 0 21 691 20 65 130 hstem
          80 75 59 292 40 74 vstem
          214 927 rmoveto
          64 callsubr
          45 -130 rmoveto
          71 hmoveto
          -322 -797 rmoveto
          -45 callsubr
          endchar
        </CharString>
        <CharString name="Ncaron.salt">
          107 0 21 691 20 65 130 hstem
          80 75 60 292 39 74 vstem
          215 927 rmoveto
          64 callsubr
          45 -130 rmoveto
          71 hmoveto
          -323 -797 rmoveto
          133 callsubr
          endchar
        </CharString>
        <CharString name="Ncommaaccent">
          107 -244.199996948 28.8000030518 215.399993896 21 691 20 hstemhm
          80 75 149.5 90 -57.6000061035 57.6000061035 151.5 74 hintmask 00000000
          hintmask 10001000
          304.5 -142.5 rmoveto
          78 callsubr
          hintmask 10000100
          79 callsubr
          hintmask 10001000
          80 callsubr
          hintmask 01110010
          -224.5 93.900390625 rmoveto
          -45 callsubr
          endchar
        </CharString>
        <CharString name="Ncommaaccent.salt">
          107 -251.199996948 28.8000030518 222.399993896 21 691 20 hstemhm
          80 75 135.5 90 -57.6000061035 57.6000061035 165.5 74 hintmask 00000000
          hintmask 10001000
          290.5 -149.5 rmoveto
          78 callsubr
          hintmask 10000100
          79 callsubr
          hintmask 10001000
          80 callsubr
          hintmask 01110010
          -210.5 100.900390625 rmoveto
          133 callsubr
          endchar
        </CharString>
        <CharString name="Ntilde">
          107 0 21 691 20 66 69 -35 70 hstemhm
          80 75 391 74 hintmask 00010000
          181 838 rmoveto
          34 callsubr
          hintmask 00100000
          35 callsubr
          hintmask 00010000
          36 callsubr
          hintmask 11001100
          -101 -838 rmoveto
          -45 callsubr
          endchar
        </CharString>
        <CharString name="Ntilde.salt">
          107 0 21 691 20 66 69 -35 70 hstemhm
          80 75 391 74 hintmask 00010000
          192 838 rmoveto
          34 callsubr
          hintmask 00100000
          35 callsubr
          hintmask 00010000
          36 callsubr
          hintmask 11001100
          -112 -838 rmoveto
          133 callsubr
          endchar
        </CharString>
        <CharString name="O">
          103 -4 74 593 74 hstem
          65 74 418 74 vstem
          65 361 rmoveto
          -44 callsubr
          74 hmoveto
          -43 callsubr
          endchar
        </CharString>
        <CharString name="OE">
          482 -4 74 -56 57 252 79 -69 59 266 58 -53 74 hstemhm
          65 74 418 74 hintmask 10000111
          139 361 rmoveto
          299 76 3 133 136 73 -3 -299 -249 -53 -42 -156 vhcurveto
          -158 -51 34 257 hvcurveto
          -74 hmoveto
          -333 103 -32 180 vhcurveto
          95 0 74 12 48 58 20 -62 55 -10 53 3 rrcurveto
          hintmask 01100011
          307 17 0 57 -307 0 rlineto
          -29 0 -32 -1 -1 53 rrcurveto
          0 200 rlineto
          hintmask 00010011
          329 10 0 59 rlineto
          hintmask 00101011
          -329 10 0 200 rlineto
          27 0 29 52 vhcurveto
          317 58 hlineto
          -317 16 rlineto
          hintmask 10000111
          -51 3 -46 -20 -19 -52 -49 64 -76 10 -94 0 rrcurveto
          -168 -115 -33 -343 hvcurveto
          endchar
        </CharString>
        <CharString name="Oacute">
          103 -4 74 593 74 60 133 hstem
          65 74 175.5 202 40.5 74 vstem
          314.5 797 rmoveto
          24 callsubr
          -356.5 -569 rmoveto
          -44 callsubr
          74 hmoveto
          -43 callsubr
          endchar
        </CharString>
        <CharString name="Ocircumflex">
          103 -4 74 593 74 60 130 hstem
          65 74 64 292 62 74 vstem
          203 797 rmoveto
          33 callsubr
          0 vmoveto
          71 hmoveto
          -326 -566 rmoveto
          -44 callsubr
          74 hmoveto
          -43 callsubr
          endchar
        </CharString>
        <CharString name="Odieresis">
          103 -4 74 593 74 60 101 hstem
          65 74 32 101 154 101 30 74 vstem
          171 848 rmoveto
          11 callsubr
          255 hmoveto
          11 callsubr
          -361 -487 rmoveto
          -44 callsubr
          74 hmoveto
          -43 callsubr
          endchar
        </CharString>
        <CharString name="Ograve">
          103 -4 74 593 74 60 133 hstem
          65 74 42.5 202 173.5 74 vstem
          181.5 930 rmoveto
          -31 callsubr
          -211.5 -569 rmoveto
          -44 callsubr
          74 hmoveto
          -43 callsubr
          endchar
        </CharString>
        <CharString name="Ohungarumlaut">
          103 -4 74 593 74 60 133 hstem
          65 74 418 74 vstem
          247 797 rmoveto
          24 callsubr
          28 -133 rmoveto
          24 callsubr
          -424 -569 rmoveto
          -44 callsubr
          74 hmoveto
          -43 callsubr
          endchar
        </CharString>
        <CharString name="Omacron">
          103 -4 74 593 74 60 63 hstem
          65 74 64 292 62 74 vstem
          203 797 rmoveto
          15 callsubr
          -138 -499 rmoveto
          -44 callsubr
          74 hmoveto
          -43 callsubr
          endchar
        </CharString>
        <CharString name="Omega">
          206 0 67 598 74 hstem
          65 74 496 74 vstem
          65 388 rmoveto
          0 -112 -6 -105 145 -93 rrcurveto
          -133 -10 0 -68 220 0 0 78 rlineto
          -148 116 -4 54 0 132 rrcurveto
          148 51 137 200 200 45 -135 -145 vhcurveto
          0 -133 -7 -80 -142 -94 rrcurveto
          -78 228 67 vlineto
          -128 10 rlineto
          118 83 5 106 0 117 rrcurveto
          182 -71 174 -248 -262 -63 -197 -154 vhcurveto
          endchar
        </CharString>
        <CharString name="Oslash">
          103 -4 74 593 74 hstem
          65 74 418 74 vstem
          65 361 rmoveto
          0 -149 20 -88 39 -53 rrcurveto
          -45 -71 61 0 22 34 rlineto
          47 -32 62 -6 77 0 180 0 103 42 0 323 0 157 -23 92 -42 54 rrcurveto
          44 68 -61 0 -21 -32 rlineto
          -47 32 -61 5 -72 0 -172 0 -111 -33 0 -343 rrcurveto
          74 hmoveto
          299 76 3 133 vhcurveto
          59 0 47 0 34 -25 rrcurveto
          -318 -496 rlineto
          -22 43 -9 68 0 108 rrcurveto
          65 -261 rmoveto
          319 496 rlineto
          23 -44 11 -72 0 -119 0 -249 -53 -42 -156 0 -65 0 -46 6 -33 24 rrcurveto
          endchar
        </CharString>
        <CharString name="Otilde">
          103 -4 74 593 74 61 69 -35 70 hstemhm
          65 74 418 74 hintmask 00010000
          180 838 rmoveto
          34 callsubr
          hintmask 00100000
          35 callsubr
          hintmask 00010000
          36 callsubr
          hintmask 11001100
          -115 -477 rmoveto
          -44 callsubr
          74 hmoveto
          -43 callsubr
          endchar
        </CharString>
        <CharString name="P">
          8 21 -21 298 74 -54 54 285 75 hstemhm
          60 74 327 75 hintmask 10111100
          60 hmoveto
          74 318 hlineto
          hintmask 11011100
          -42 callsubr
          hintmask 10111100
          74 -360 rmoveto
          -41 callsubr
          hintmask 11011100
          -133 -48 -15 -52 vhcurveto
          endchar
        </CharString>
        <CharString name="Q">
          103 -4 74 593 74 hstem
          65 74 418 74 vstem
          65 361 rmoveto
          -333 102 -32 180 180 104 42 323 343 -111 33 -173 -172 -110 -33 -343 vhcurveto
          74 hmoveto
          299 75 3 133 136 74 -3 -299 -249 -54 -42 -156 -158 -50 34 257 vhcurveto
          178 -394 rmoveto
          -40 callsubr
          endchar
        </CharString>
        <CharString name="R">
          20 21 -21 313 66 278 75 hstem
          60 74 332 75 vstem
          60 hmoveto
          -39 callsubr
          74 -353 rmoveto
          -38 callsubr
          endchar
        </CharString>
        <CharString name="Racute">
          20 0 21 292 66 278 75 60 133 hstem
          60 74 122 202 8 75 vstem
          256 792 rmoveto
          24 callsubr
          -303 -925 rmoveto
          -39 callsubr
          74 -353 rmoveto
          -38 callsubr
          endchar
        </CharString>
        <CharString name="Rcaron">
          20 0 21 292 66 278 75 65 130 hstem
          60 74 7 292 33 75 vstem
          141 927 rmoveto
          64 callsubr
          45 -130 rmoveto
          71 hmoveto
          -269 -797 rmoveto
          -39 callsubr
          74 -353 rmoveto
          -38 callsubr
          endchar
        </CharString>
        <CharString name="Rcommaaccent">
          20 -244.199996948 28.8000030518 215.399993896 21 292 66 278 75 hstemhm
          60 74 120.5 90 -57.6000061035 57.6000061035 121.5 75 hintmask 00000000
          hintmask 10000100
          254.5 -142.5 rmoveto
          78 callsubr
          hintmask 10000010
          79 callsubr
          hintmask 10000100
          80 callsubr
          hintmask 01111001
          -194.5 93.900390625 rmoveto
          -39 callsubr
          74 -353 rmoveto
          -38 callsubr
          endchar
        </CharString>
        <CharString name="S">
          11 -8 74 256 74 268 74 hstem
          65 74 326 74 vstem
          65 494 rmoveto
          -37 callsubr
          endchar
        </CharString>
        <CharString name="Sacute">
          11 -8 74 256 74 268 74 60 133 hstemhm
          65 74 133 202 -9 74 hintmask 00010100
          272 798 rmoveto
          24 callsubr
          hintmask 11101010
          -314 -437 rmoveto
          -37 callsubr
          endchar
        </CharString>
        <CharString name="Scaron">
          11 -8 74 256 74 268 74 60 130 hstem
          65 74 20 292 14 74 vstem
          159 928 rmoveto
          64 callsubr
          45 -130 rmoveto
          71 hmoveto
          -282 -304 rmoveto
          -37 callsubr
          endchar
        </CharString>
        <CharString name="Scedilla">
          11 -181 37 136 74 256 74 268 74 hstem
          65 74 142 67 117 74 vstem
          196 -144 rmoveto
          25 callsubr
          -184 623 rmoveto
          -37 callsubr
          endchar
        </CharString>
        <CharString name="Scircumflex">
          11 -8 74 256 74 268 74 60 130 hstem
          65 74 28 292 6 74 vstem
          167 798 rmoveto
          33 callsubr
          0 vmoveto
          71 hmoveto
          -290 -434 rmoveto
          -37 callsubr
          endchar
        </CharString>
        <CharString name="T">
          5 21 -21 658 74 hstem
          259 74 vstem
          45 658 rmoveto
          -36 callsubr
          endchar
        </CharString>
        <CharString name="Tbar">
          5 21 -21 390 54 214 74 hstem
          249 74 vstem
          35 658 rmoveto
          214 -214 -120 -54 120 -390 74 390 120 54 -120 214 220 74 -508 hlineto
          endchar
        </CharString>
        <CharString name="Tcaron">
          5 0 21 637 74 65 130 hstemhm
          143 292 -176 74 hintmask 00110000
          143 927 rmoveto
          64 callsubr
          45 -130 rmoveto
          71 hmoveto
          hintmask 11001000
          -286 -139 rmoveto
          -36 callsubr
          endchar
        </CharString>
        <CharString name="Tcommaaccent">
          5 -185 37 148 21 637 74 hstemhm
          259 74 -72 67 hintmask 10001000
          176 -148 rmoveto
          25 callsubr
          hintmask 01110000
          -184 791 rmoveto
          -36 callsubr
          endchar
        </CharString>
        <CharString name="Thorn">
          -16 21 -21 149 74 -55 55 290 75 hstemhm
          60 74 298 75 hintmask 10111100
          60 hmoveto
          74 168 hlineto
          hintmask 11011100
          128 -24 16 5 53 0 74 0 102 22 0 204 0 179 -97 33 -79 1 rrcurveto
          -197 141 -74 hlineto
          hintmask 10111100
          74 -506 rmoveto
          290 197 vlineto
          35 0 64 -5 2 -131 rrcurveto
          hintmask 11011100
          0 -133 -49 -22 -52 1 rrcurveto
          endchar
        </CharString>
        <CharString name="U">
          104 -5 74 663 -20 hstem
          80 74 388 75 vstem
          80 320 rmoveto
          -35 callsubr
          endchar
        </CharString>
        <CharString name="Uacute">
          104 -5 74 643 20 65 133 hstem
          80 74 160 202 26 75 vstem
          314 797 rmoveto
          24 callsubr
          -341 -610 rmoveto
          -35 callsubr
          endchar
        </CharString>
        <CharString name="Ubreve">
          104 -5 74 643 20 65 47 hstem
          80 74 79.5 47 136 47 78.5 75 vstem
          233.5 911 rmoveto
          62 callsubr
          -200.5 -591 rmoveto
          -35 callsubr
          endchar
        </CharString>
        <CharString name="Ucircumflex">
          104 -5 74 643 20 65 130 hstem
          80 74 48.5 292 47.5 75 vstem
          202.5 797 rmoveto
          33 callsubr
          0 vmoveto
          71 hmoveto
          -310.5 -607 rmoveto
          -35 callsubr
          endchar
        </CharString>
        <CharString name="Udieresis">
          104 -5 74 643 20 65 101 hstem
          80 74 16.5 101 154 101 15.5 75 vstem
          170.5 848 rmoveto
          11 callsubr
          255 hmoveto
          11 callsubr
          -345.5 -528 rmoveto
          -35 callsubr
          endchar
        </CharString>
        <CharString name="Ugrave">
          104 -5 74 643 20 65 133 hstem
          80 74 27 202 159 75 vstem
          181 930 rmoveto
          -31 callsubr
          -196 -610 rmoveto
          -35 callsubr
          endchar
        </CharString>
        <CharString name="Uhungarumlaut">
          104 -5 74 643 20 65 133 hstem
          80 74 388 75 vstem
          246.5 797 rmoveto
          24 callsubr
          28 -133 rmoveto
          24 callsubr
          -408.5 -610 rmoveto
          -35 callsubr
          endchar
        </CharString>
        <CharString name="Umacron">
          104 -5 74 643 20 65 63 hstem
          80 74 48.5 292 47.5 75 vstem
          202.5 797 rmoveto
          15 callsubr
          -122.5 -540 rmoveto
          -35 callsubr
          endchar
        </CharString>
        <CharString name="Uogonek">
          104 -185 60 101 20 -1 74 643 20 hstemhm
          80 74 388 75 hintmask 11000000
          326 -4 rmoveto
          63 callsubr
          hintmask 00111100
          -285 324 rmoveto
          -35 callsubr
          endchar
        </CharString>
        <CharString name="Uring">
          104 -5 74 643 20 65 48 109 48 hstem
          80 74 93 47 109 47 92 75 vstem
          247 899 rmoveto
          16 callsubr
          47 hmoveto
          17 callsubr
          -214 -579 rmoveto
          -35 callsubr
          endchar
        </CharString>
        <CharString name="Utilde">
          104 -5 74 643 20 61 69 -35 70 hstemhm
          80 74 388 75 hintmask 00010000
          179 833 rmoveto
          34 callsubr
          hintmask 00100000
          35 callsubr
          hintmask 00010000
          36 callsubr
          hintmask 11001100
          -99 -513 rmoveto
          -35 callsubr
          endchar
        </CharString>
        <CharString name="V">
          97 21 -21 732 -20 hstem
          45 732 rmoveto
          257 -732 74 0 269 732 -81 0 -224 -614 -214 614 rlineto
          endchar
        </CharString>
        <CharString name="W">
          389 21 -21 732 -20 hstem
          45 732 rmoveto
          -34 callsubr
          endchar
        </CharString>
        <CharString name="Wacute">
          389 0 21 691 20 60 133 hstem
          467 202 vstem
          467 792 rmoveto
          24 callsubr
          -529 -193 rmoveto
          -34 callsubr
          endchar
        </CharString>
        <CharString name="Wcircumflex">
          389 0 21 691 20 60 130 hstem
          355 292 vstem
          355 792 rmoveto
          33 callsubr
          0 vmoveto
          71 hmoveto
          -498 -190 rmoveto
          -34 callsubr
          endchar
        </CharString>
        <CharString name="Wdieresis">
          389 0 21 691 20 60 101 hstem
          323 101 154 101 vstem
          323 843 rmoveto
          11 callsubr
          255 hmoveto
          11 callsubr
          -533 -111 rmoveto
          -34 callsubr
          endchar
        </CharString>
        <CharString name="Wgrave">
          389 0 21 691 20 60 133 hstem
          333 202 vstem
          333 925 rmoveto
          -31 callsubr
          -383 -193 rmoveto
          -34 callsubr
          endchar
        </CharString>
        <CharString name="X">
          23 21 -21 732 -20 hstem
          45 732 rmoveto
          212 -361 -209 -371 81 0 177 308 179 -308 81 0 -211 371 216 361 -81 0 -184 -307 -180 307 rlineto
          endchar
        </CharString>
        <CharString name="X.salt">
          39 21 -21 732 -20 hstem
          20 hmoveto
          84 0 170 284 rlineto
          40 67 -21 72 -39 64 rrcurveto
          -150 245 -84 0 168 -275 rlineto
          36 -60 10 -31 -36 -61 rrcurveto
          140 -21 rmoveto
          170 -284 84 0 -178 305 rlineto
          -36 61 10 31 36 60 rrcurveto
          168 275 -84 0 -150 -245 rlineto
          -39 -64 -21 -72 40 -67 rrcurveto
          endchar
        </CharString>
        <CharString name="Y">
          57 21 -21 732 -20 hstem
          278 74 vstem
          45 732 rmoveto
          -33 callsubr
          endchar
        </CharString>
        <CharString name="Yacute">
          57 0 21 691 20 65 133 hstemhm
          278 74 -61.5 202 hintmask 00101000
          290.5 797 rmoveto
          24 callsubr
          hintmask 11010000
          -352.5 -198 rmoveto
          -33 callsubr
          endchar
        </CharString>
        <CharString name="Ycircumflex">
          57 0 21 691 20 60 130 hstemhm
          169 292 -183 74 hintmask 00110000
          169 792 rmoveto
          33 callsubr
          0 vmoveto
          71 hmoveto
          hintmask 11001000
          -312 -190 rmoveto
          -33 callsubr
          endchar
        </CharString>
        <CharString name="Ydieresis">
          57 0 21 691 20 65 101 hstem
          147 101 30 74 50 101 vstem
          147 848 rmoveto
          11 callsubr
          255 hmoveto
          11 callsubr
          -357 -116 rmoveto
          -33 callsubr
          endchar
        </CharString>
        <CharString name="Ygrave">
          57 0 21 691 20 65 133 hstemhm
          157.5 202 -81.5 74 hintmask 00110000
          157.5 930 rmoveto
          -31 callsubr
          hintmask 11001000
          -207.5 -198 rmoveto
          -33 callsubr
          endchar
        </CharString>
        <CharString name="Z">
          -10 0 74 584 74 hstem
          35 hmoveto
          -32 callsubr
          endchar
        </CharString>
        <CharString name="Zacute">
          -10 0 74 584 74 65 133 hstem
          247 202 vstem
          247 797 rmoveto
          24 callsubr
          -319 -930 rmoveto
          -32 callsubr
          endchar
        </CharString>
        <CharString name="Zcaron">
          -10 0 74 584 74 65 130 hstem
          135.5 292 vstem
          135.5 927 rmoveto
          64 callsubr
          45 -130 rmoveto
          71 hmoveto
          -288.5 -797 rmoveto
          -32 callsubr
          endchar
        </CharString>
        <CharString name="Zdotaccent">
          -10 0 74 584 74 65 102 hstem
          233 97 vstem
          233 820 rmoveto
          -13 callsubr
          -198 -874 rmoveto
          -32 callsubr
          endchar
        </CharString>
        <CharString name="a">
          -54 -6 74 194 58 149 72 hstemhm
          40 74 281 74 -55 55 hintmask 11111000
          40 126 rmoveto
          -30 callsubr
          hintmask 11110100
          -29 callsubr
          hintmask 11111000
          -28 callsubr
          74 -56 rmoveto
          -27 callsubr
          endchar
        </CharString>
        <CharString name="a.salt">
          -37 0 74 186 57 146 74 hstem
          50 74 288 74 vstem
          50 131 rmoveto
          138 callsubr
          74 -64 rmoveto
          139 callsubr
          endchar
        </CharString>
        <CharString name="a.smcp">
          18 21 -21 152 74 hstem
          35 hmoveto
          87 callsubr
          -58 -344 rmoveto
          88 callsubr
          endchar
        </CharString>
        <CharString name="a.superior">
          -201 374 62 245 58 hstem
          31 62 178 62 vstem
          31 463 rmoveto
          -58 48 -31 52 vhcurveto
          59 0 80 53 2 0 rrcurveto
          21 -49 40 0 0 258 rlineto
          0 73 -53 31 -62 -1 -74 -3 -42 -4 -59 -16 rrcurveto
          -42 vlineto
          75 5 38 2 54 0 38 0 23 -13 0 -37 1 -1 -1 -30 0 0 rrcurveto
          -1 -140 0 0 -62 -38 -36 -54 vhcurveto
          62 -33 rmoveto
          27 vlineto
          0 20 12 18 32 3 rrcurveto
          134 13 0 -86 rlineto
          0 -74 -35 -60 -26 -18 10 30 vhcurveto
          endchar
        </CharString>
        <CharString name="aacute">
          -54 -6 74 194 58 149 72 60 133 hstemhm
          40 74 113 202 -34 74 -55 55 hintmask 00010100
          227 601 rmoveto
          24 callsubr
          hintmask 11101010
          -294 -608 rmoveto
          -30 callsubr
          hintmask 11101001
          -29 callsubr
          hintmask 11101010
          -28 callsubr
          74 -56 rmoveto
          -27 callsubr
          endchar
        </CharString>
        <CharString name="aacute.salt">
          -37 0 74 186 57 146 74 60 133 hstemhm
          50 74 107 202 -21 74 hintmask 00010100
          231 597 rmoveto
          24 callsubr
          hintmask 11101010
          -288 -599 rmoveto
          138 callsubr
          74 -64 rmoveto
          139 callsubr
          endchar
        </CharString>
        <CharString name="aacute.smcp">
          18 0 21 131 74 404 133 hstem
          270.5 202 vstem
          270.5 630 rmoveto
          24 callsubr
          -342.5 -763 rmoveto
          87 callsubr
          -58 -344 rmoveto
          88 callsubr
          endchar
        </CharString>
        <CharString name="abreve">
          -54 -6 74 194 58 149 72 60 47 hstemhm
          40 74 44 47 136 47 7 74 -55 55 hintmask 0001011000000000
          158 715 rmoveto
          62 callsubr
          hintmask 1110100100000000
          -165 -589 rmoveto
          -30 callsubr
          hintmask 1110100010000000
          -29 callsubr
          hintmask 1110100100000000
          -28 callsubr
          74 -56 rmoveto
          -27 callsubr
          endchar
        </CharString>
        <CharString name="abreve.salt">
          -37 0 74 186 57 146 74 60 47 hstem
          50 74 30 47 136 47 28 74 vstem
          154 711 rmoveto
          62 callsubr
          -151 -580 rmoveto
          138 callsubr
          74 -64 rmoveto
          139 callsubr
          endchar
        </CharString>
        <CharString name="abreve.smcp">
          18 0 21 131 74 404 47 hstem
          190 47 136 47 vstem
          190 744 rmoveto
          62 callsubr
          -202 -744 rmoveto
          87 callsubr
          -58 -344 rmoveto
          88 callsubr
          endchar
        </CharString>
        <CharString name="acircumflex">
          -54 -6 74 194 58 149 72 60 130 hstemhm
          40 74 3 292 -14 74 -55 55 hintmask 00010100
          117 601 rmoveto
          33 callsubr
          0 vmoveto
          71 hmoveto
          hintmask 11101010
          -265 -605 rmoveto
          -30 callsubr
          hintmask 11101001
          -29 callsubr
          hintmask 11101010
          -28 callsubr
          74 -56 rmoveto
          -27 callsubr
          endchar
        </CharString>
        <CharString name="acircumflex.salt">
          -37 0 74 186 57 146 74 60 130 hstemhm
          50 74 -4 292 0 74 hintmask 00010100
          120 597 rmoveto
          33 callsubr
          0 vmoveto
          71 hmoveto
          hintmask 11101010
          -258 -596 rmoveto
          138 callsubr
          74 -64 rmoveto
          139 callsubr
          endchar
        </CharString>
        <CharString name="acircumflex.smcp">
          18 0 21 131 74 404 130 hstem
          159 292 vstem
          159 630 rmoveto
          33 callsubr
          0 vmoveto
          71 hmoveto
          -312 -760 rmoveto
          87 callsubr
          -58 -344 rmoveto
          88 callsubr
          endchar
        </CharString>
        <CharString name="acute">
          -331 531 133 hstem
          20 202 vstem
          20 531 rmoveto
          24 callsubr
          endchar
        </CharString>
        <CharString name="acute.smcp">
          -331 531 133 hstem
          20 202 vstem
          20 531 rmoveto
          24 callsubr
          endchar
        </CharString>
        <CharString name="adieresis">
          -54 -6 74 194 58 149 72 60.0160064697 101 hstemhm
          40 74 -30.6520996094 101 154.000106812 101 -44.3480072021 74 -55 55 hintmask 0000000000000000
          83.34765625 652.016601562 rmoveto
          11 callsubr
          255 hmoveto
          11 callsubr
          hintmask 1110100100000000
          -298.34765625 -526.016601562 rmoveto
          -30 callsubr
          hintmask 1110100010000000
          -29 callsubr
          hintmask 1110100100000000
          -28 callsubr
          74 -56 rmoveto
          -27 callsubr
          endchar
        </CharString>
        <CharString name="adieresis.salt">
          -37 0 74 186 57 146 74 60 101 hstemhm
          50 74 -26 101 154 101 -42 74 hintmask 00010110
          98 648 rmoveto
          11 callsubr
          255 hmoveto
          11 callsubr
          hintmask 11101001
          -303 -517 rmoveto
          138 callsubr
          74 -64 rmoveto
          139 callsubr
          endchar
        </CharString>
        <CharString name="adieresis.smcp">
          18 0 21 131 74 404 101 hstem
          127 101 154 101 vstem
          127 681 rmoveto
          11 callsubr
          255 hmoveto
          11 callsubr
          -347 -681 rmoveto
          87 callsubr
          -58 -344 rmoveto
          88 callsubr
          endchar
        </CharString>
        <CharString name="ae">
          298 0 74 157 73 -51 52 162 74 -66 72 hstemhm
          40 74 281 75 287 74 hintmask 11010111
          40 132 rmoveto
          -85 60 -47 73 vhcurveto
          91 0 151 71 2 0 36 -42 31 -28 87 0 83 0 86 5 81 23 rrcurveto
          56 vlineto
          -75 -11 -83 1 -92 0 rrcurveto
          -78 -23 31 125 hvcurveto
          224 hlineto
          96 41 45 77 176 -78 12 -125 hvcurveto
          -87 0 -61 -8 -37 -44 rrcurveto
          hintmask 10101111
          -28 41 -46 18 -53 -1 -99 -1 -94 -7 -66 -22 rrcurveto
          -54 vlineto
          100 7 84 5 72 0 50 0 32 -21 0 -61 1 -1 -1 -87 0 0 rrcurveto
          -1 -222 1 0 -83 -50 -53 -80 vhcurveto
          74 -35 rmoveto
          35 vlineto
          0 32 16 29 43 4 rrcurveto
          222 16 0 -128 rlineto
          0 -142 -51 -80 -34 -25 15 48 vhcurveto
          hintmask 11010111
          356 167 rmoveto
          -20 callsubr
          endchar
        </CharString>
        <CharString name="ae.smcp">
          204 -2 74 -61 60 87 74 10 76 -68 61 186 73 -73 61 hstemhm
          351 75 hintmask 10100001
          23 hmoveto
          83 0 81 158 164 0 0 -77 rlineto
          0 -51 32 -34 60 2 rrcurveto
          hintmask 01100001
          293 13 0 60 rlineto
          hintmask 10110001
          -272 1 rlineto
          -22 -16 1 30 hvcurveto
          0 139 rlineto
          hintmask 00101001
          279 8 0 61 rlineto
          hintmask 00110101
          -279 7 0 147 rlineto
          2 21 1 11 31 0 rrcurveto
          hintmask 00100011
          276 61 hlineto
          hintmask 10100101
          -278 12 rlineto
          -94 -1 -59 -11 -38 -76 rrcurveto
          -44 -250 rmoveto
          128 256 0 -256 rlineto
          endchar
        </CharString>
        <CharString name="afii61289">
          -187 0 53 hstem
          87 74 vstem
          30 248 rmoveto
          26 -32 rlineto
          11 6 10 6 10 7 rrcurveto
          -46 vlineto
          0 -135 35 -53 97 -1 0 0 89 -1 -1 1 rrcurveto
          53 vlineto
          -1 -1 -88 21 0 1 -44 10 -12 6 -1 99 rrcurveto
          105 vlineto
          100 90 63 116 -1 98 -1 75 -42 66 -80 0 -61 0 -51 -40 -1 -67 rrcurveto
          -328 vlineto
          -19 -20 -19 -19 -19 -17 rrcurveto
          131 148 rmoveto
          230 vlineto
          0 57 69 -11 12 -32 25 -68 -44 -92 -62 -84 rrcurveto
          endchar
        </CharString>
        <CharString name="afii61352">
          488 21 -21 381 62 227 65 hstem
          72 74 386 74 85 62 206 62 vstem
          72 hmoveto
          74 645 hlineto
          0 17 18 5 7 -15 rrcurveto
          271 -603 rlineto
          40 -94 124 36 0 88 rrcurveto
          491 vlineto
          70 39 30 53 72 113 -1 0 vhcurveto
          50 -2 26 -6 0 -108 rrcurveto
          -102 -32 -8 -44 vhcurveto
          -54 hlineto
          -44 -32 6 166 hvcurveto
          -62 hlineto
          -176 29 -58 103 vhcurveto
          66 hlineto
          103 29 65 107 hvcurveto
          0 121 -30 57 -102 3 rrcurveto
          0 -115 1 -74 -92 -76 -45 -122 vhcurveto
          -482 vlineto
          0 -15 -16 -6 -8 18 rrcurveto
          -268 597 rlineto
          -38 86 -130 -12 0 -102 rrcurveto
          endchar
        </CharString>
        <CharString name="agrave">
          -54 -6 74 194 58 149 72 60 133 hstemhm
          40 74 -15 202 94 74 -55 55 hintmask 00010100
          99 734 rmoveto
          -31 callsubr
          hintmask 11101010
          -154 -608 rmoveto
          -30 callsubr
          hintmask 11101001
          -29 callsubr
          hintmask 11101010
          -28 callsubr
          74 -56 rmoveto
          -27 callsubr
          endchar
        </CharString>
        <CharString name="agrave.salt">
          -37 0 74 186 57 146 74 60 133 hstemhm
          50 74 -4 202 90 74 hintmask 00010100
          120 730 rmoveto
          -31 callsubr
          hintmask 11101010
          -165 -599 rmoveto
          138 callsubr
          74 -64 rmoveto
          139 callsubr
          endchar
        </CharString>
        <CharString name="agrave.smcp">
          18 0 21 131 74 404 133 hstem
          122 202 vstem
          122 763 rmoveto
          -31 callsubr
          -182 -763 rmoveto
          87 callsubr
          -58 -344 rmoveto
          88 callsubr
          endchar
        </CharString>
        <CharString name="amacron">
          -54 -6 74 194 58 149 72 60 63 hstemhm
          40 74 13 292 -24 74 -55 55 hintmask 00010100
          127 601 rmoveto
          15 callsubr
          hintmask 11101010
          -87 -538 rmoveto
          -30 callsubr
          hintmask 11101001
          -29 callsubr
          hintmask 11101010
          -28 callsubr
          74 -56 rmoveto
          -27 callsubr
          endchar
        </CharString>
        <CharString name="amacron.salt">
          -37 0 74 186 57 146 74 60 63 hstemhm
          50 74 1 292 -5 74 hintmask 00010100
          125 597 rmoveto
          15 callsubr
          hintmask 11101010
          -75 -529 rmoveto
          138 callsubr
          74 -64 rmoveto
          139 callsubr
          endchar
        </CharString>
        <CharString name="amacron.smcp">
          18 0 21 131 74 404 63 hstem
          159 292 vstem
          159 630 rmoveto
          15 callsubr
          -124 -693 rmoveto
          87 callsubr
          -58 -344 rmoveto
          88 callsubr
          endchar
        </CharString>
        <CharString name="ampersand">
          64 21 -21 660 50 hstem
          78 82 rmoveto
          71 -101 141 -12 81 75 rrcurveto
          72 67 82 -111 88 0 -117 163 41 45 51 107 -23 24 -114 -119 -235 318 rlineto
          -69 93 37 29 86 0 rrcurveto
          203 50 hlineto
          -72 17 -78 14 -116 -11 -70 -7 -79 -92 79 -107 rrcurveto
          63 -85 -86 -73 rlineto
          -87 -74 -24 -115 75 -95 rrcurveto
          63 40 rmoveto
          -46 59 -11 66 80 66 rrcurveto
          78 65 156 -208 -80 -75 rlineto
          -54 -51 -83 27 -40 51 rrcurveto
          endchar
        </CharString>
        <CharString name="ampersand.salt">
          373 0 74 79 73 92 74 66 74 -54 52 hstemhm
          44 74 67 74 286 74 77 74 -56 56 hintmask 1111011110000000
          44 286 rmoveto
          -95 81 -37 60 vhcurveto
          -134 77 -20 111 vhcurveto
          164 hlineto
          103 130 38 149 hvcurveto
          0 271 rlineto
          hintmask 1110111101000000
          155 20 0 52 -155 0 0 150 -56 0 rlineto
          hintmask 1111011110000000
          -18 -148 -441 0 rlineto
          -134 -77 -20 -137 hvcurveto
          74 -89 rmoveto
          89 vlineto
          81 40 2 97 vhcurveto
          441 -271 hlineto
          -81 -76 -32 -83 vhcurveto
          -164 hlineto
          -53 3 -60 -10 -1 86 rrcurveto
          223 hlineto
          100 37 22 96 115 -76 6 -61 hvcurveto
          -129 hlineto
          -111 -57 -46 -120 hvcurveto
          -31 -36 16 44 hvcurveto
          141 -60 rmoveto
          89 35 3 59 vhcurveto
          129 hlineto
          57 6 -7 -40 -47 -15 2 -48 hvcurveto
          endchar
        </CharString>
        <CharString name="ampersand.smcp">
          -6 21 -21 501 53 hstem
          69 62 rmoveto
          62 -87 106 1 63 58 rrcurveto
          71 70 84 -104 88 0 -118 152 23 23 39 83 -24 26 -83 -74 -180 217 rlineto
          -38 46 0 28 66 0 rrcurveto
          188 53 hlineto
          -90 20 -72 6 -76 -11 -61 -9 -57 -75 69 -86 rrcurveto
          44 -54 -73 -60 rlineto
          -77 -63 -12 -82 58 -78 rrcurveto
          61 42 rmoveto
          -20 24 -22 53 61 48 rrcurveto
          73 58 104 -127 -69 -68 rlineto
          -48 -49 -57 34 -22 27 rrcurveto
          endchar
        </CharString>
        <CharString name="aogonek">
          -54 -181 60 101 20 -6 74 194 58 149 72 hstemhm
          40 74 281 74 -55 55 hintmask 11000000
          422.799804688 hmoveto
          63 callsubr
          hintmask 00111110
          -421.799804688 126 rmoveto
          -30 callsubr
          hintmask 00111101
          -29 callsubr
          hintmask 00111110
          -28 callsubr
          74 -56 rmoveto
          -27 callsubr
          endchar
        </CharString>
        <CharString name="aogonek.salt">
          -18 -158 60 98 74 -71 20 237 57 146 74 hstemhm
          50 74 288 74 hintmask 10100000
          389 23 rmoveto
          63 callsubr
          hintmask 01011110
          -378 108 rmoveto
          138 callsubr
          74 -64 rmoveto
          139 callsubr
          endchar
        </CharString>
        <CharString name="aogonek.smcp">
          31 -181 60 101 20 0 21 131 74 hstemhm
          hintmask 11000000
          499 hmoveto
          63 callsubr
          hintmask 00110000
          -503 hmoveto
          87 callsubr
          -58 -344 rmoveto
          88 callsubr
          endchar
        </CharString>
        <CharString name="approxequal">
          -42 209 75 -37 74 65 75 -37 74 hstemhm
          hintmask 10000000
          50 250 rmoveto
          21 -41 rlineto
          hintmask 01000000
          48 15 25 23 51 0 rrcurveto
          hintmask 10000000
          75 callsubr
          hintmask 01000000
          -60 0 -29 37 -60 0 rrcurveto
          -64 0 -43 -38 -40 -33 rrcurveto
          177 vmoveto
          hintmask 00100000
          21 -41 rlineto
          hintmask 00010000
          48 15 25 23 51 0 rrcurveto
          hintmask 00100000
          75 callsubr
          hintmask 00010000
          -60 0 -29 37 -60 0 -64 0 -43 -38 -40 -33 rrcurveto
          endchar
        </CharString>
        <CharString name="aring">
          -54 -6 74 194 58 149 72 30 48 109 48 hstemhm
          40 74 47 47 109 47 31 74 -55 55 hintmask 0001101100000000
          161 673 rmoveto
          16 callsubr
          47 hmoveto
          17 callsubr
          hintmask 1110010010000000
          -168 -547 rmoveto
          -30 callsubr
          hintmask 1110010001000000
          -29 callsubr
          hintmask 1110010010000000
          -28 callsubr
          74 -56 rmoveto
          -27 callsubr
          endchar
        </CharString>
        <CharString name="aring.salt">
          -37 0 74 186 57 146 74 60.0359954834 48 109 48 hstem
          50 74 40.9219970703 47 109 47 44.0780029297 74 vstem
          164.921875 699.036132812 rmoveto
          16 callsubr
          47 hmoveto
          17 callsubr
          -161.921875 -568.036132812 rmoveto
          138 callsubr
          74 -64 rmoveto
          139 callsubr
          endchar
        </CharString>
        <CharString name="aring.smcp">
          18 0 21 131 74 338 48 109 48 hstem
          205 47 109 47 vstem
          205 666 rmoveto
          16 callsubr
          47 hmoveto
          17 callsubr
          -217 -666 rmoveto
          87 callsubr
          -58 -344 rmoveto
          88 callsubr
          endchar
        </CharString>
        <CharString name="asciicircum">
          -181 531 130 hstem
          50 292 vstem
          50 531 rmoveto
          72 0 79 71 70 -71 71 0 -104 130 -71 0 rlineto
          0 vmoveto
          71 hmoveto
          endchar
        </CharString>
        <CharString name="asciitilde">
          -135 531 74 -39 74 hstemhm
          hintmask 10000000
          50 572 rmoveto
          21 -41 rlineto
          hintmask 01000000
          36 14 18 21 39 0 rrcurveto
          hintmask 10000000
          39 0 25 -35 45 0 53 0 35 47 27 25 rrcurveto
          -22 42 rlineto
          -26 -16 -28 -24 -39 0 rrcurveto
          hintmask 01000000
          -40 0 -22 35 -44 0 rrcurveto
          -53 0 -24 -35 -40 -33 rrcurveto
          endchar
        </CharString>
        <CharString name="asterisk">
          -133 566 40 127 -20 hstem
          50 566 rmoveto
          144 -5 -5 74 -139 -29 rlineto
          68 -192 rmoveto
          37 -12 59 130 -72 17 rlineto
          34 168 rmoveto
          46 -133 68 31 -75 118 rlineto
          -7 -257 rmoveto
          130 -61 21 32 -110 91 rlineto
          2 33 rmoveto
          48 -56 91 97 -19 35 rlineto
          endchar
        </CharString>
        <CharString name="asterisk.smcp">
          -134 408 40 hstem
          50 408 rmoveto
          143 -5 -4 74 -139 -29 rlineto
          67 -192 rmoveto
          37 -12 60 130 -72 17 rlineto
          34 168 rmoveto
          46 -132 68 30 -75 118 rlineto
          -7 -257 rmoveto
          130 -61 21 32 -110 92 rlineto
          2 33 rmoveto
          48 -57 91 97 -20 35 rlineto
          endchar
        </CharString>
        <CharString name="at">
          271 -178 75 124 -21 438 74 114 74 -74 47 hstemhm
          65 74 86 74 230 72 -56 56 84 74 hintmask 1111011101000000
          65 hmoveto
          -71 callsubr
          hintmask 1110111101000000
          -70 callsubr
          hintmask 1111011101000000
          -69 callsubr
          hintmask 1111011011000000
          14 -64 56 0 rlineto
          hintmask 1111011101000000
          -68 callsubr
          234 -234 rmoveto
          -67 callsubr
          endchar
        </CharString>
        <CharString name="at.alt">
          273 -100 75 541 74 114 74 -74 47 hstemhm
          66 74 86 74 230 72 -56 56 84 74 hintmask 1110111010000000
          65 426 rmoveto
          1 -348 rlineto
          -116 66 -62 102 vhcurveto
          349 hlineto
          138 39 80 98 hvcurveto
          512 vlineto
          0 125 -71 60 -106 2 rrcurveto
          -116 1 rlineto
          hintmask 1101111010000000
          -70 callsubr
          hintmask 1110111010000000
          -69 callsubr
          hintmask 1110110110000000
          14 -64 56 0 rlineto
          hintmask 1110111010000000
          372 vlineto
          110 -82 30 -71 vhcurveto
          -215 hlineto
          -166 -3 -128 -36 hvcurveto
          235 -234 rmoveto
          -67 callsubr
          endchar
        </CharString>
        <CharString name="at.smcp">
          271 -136 75 541 74 114 74 -74 47 hstemhm
          65 74 86 74 230 72 -56 56 84 74 hintmask 1110111010000000
          65 42 rmoveto
          -71 callsubr
          hintmask 1101111010000000
          -70 callsubr
          hintmask 1110111010000000
          -69 callsubr
          hintmask 1110110110000000
          14 -64 56 0 rlineto
          hintmask 1110111010000000
          -68 callsubr
          234 -234 rmoveto
          -67 callsubr
          endchar
        </CharString>
        <CharString name="atilde">
          -54 -6 74 194 58 149 72 61 69 -35 70 hstemhm
          40 74 281 74 -55 55 hintmask 00001000
          89 642 rmoveto
          34 callsubr
          hintmask 00010000
          35 callsubr
          hintmask 00001000
          36 callsubr
          hintmask 11100110
          -49 -516 rmoveto
          -30 callsubr
          hintmask 11100101
          -29 callsubr
          hintmask 11100110
          -28 callsubr
          74 -56 rmoveto
          -27 callsubr
          endchar
        </CharString>
        <CharString name="atilde.salt">
          -37 0 74 186 57 146 74 61.0359954834 69 -35 70 hstemhm
          50 74 288 74 hintmask 00000000
          104.421875 638.036132812 rmoveto
          21 -41 rlineto
          37 14 14 20 44 1 rrcurveto
          36 1 15 -32 56 -3 42 -2 40 40 33 25 rrcurveto
          -22 42 rlineto
          -32 -17 -35 -20 -24 1 rrcurveto
          -28 1 -29 31 -50 3 rrcurveto
          -41 0 -37 -31 -40 -33 rrcurveto
          hintmask 11100110
          -54.421875 -507.036132812 rmoveto
          138 callsubr
          74 -64 rmoveto
          139 callsubr
          endchar
        </CharString>
        <CharString name="atilde.smcp">
          18 0 21 131 74 405 69 -35 70 hstemhm
          hintmask 00010000
          136 671 rmoveto
          34 callsubr
          hintmask 00100000
          35 callsubr
          hintmask 00010000
          36 callsubr
          hintmask 11000000
          -101 -671 rmoveto
          87 callsubr
          -58 -344 rmoveto
          88 callsubr
          endchar
        </CharString>
        <CharString name="b">
          -19 -6 74 397 74 246 -20 hstem
          60 73 297 74 vstem
          60 hmoveto
          -26 callsubr
          73 -671 rmoveto
          -25 callsubr
          endchar
        </CharString>
        <CharString name="b.salt">
          -18 -13 74 399 74 250 -20 hstem
          60 74 297 74 vstem
          60 10 rmoveto
          141 callsubr
          74 -723 rmoveto
          142 callsubr
          endchar
        </CharString>
        <CharString name="b.smcp">
          -27 0 75 183 74 165 74 hstem
          80 74 273 74 vstem
          80 hmoveto
          89 callsubr
          74 -496 rmoveto
          90 callsubr
          -190 257 rmoveto
          91 callsubr
          endchar
        </CharString>
        <CharString name="b.superior">
          -175 374 62 241 62 hstem
          38 62 200 62 vstem
          38 378 rmoveto
          40 0 22 45 rlineto
          20 -14 59 -35 51 0 rrcurveto
          109 23 98 82 91 -18 94 -114 hvcurveto
          -34 0 -48 -10 -48 -20 rrcurveto
          193 -62 vlineto
          62 -437 rmoveto
          195 vlineto
          52 11 14 6 58 0 rrcurveto
          48 28 -19 -104 -83 -27 -35 -49 hvcurveto
          -59 0 -24 15 -41 14 rrcurveto
          endchar
        </CharString>
        <CharString name="backslash">
          -173 20 770 rmoveto
          281 -842 79 0 -281 842 rlineto
          endchar
        </CharString>
        <CharString name="bar">
          -328 86 74 vstem
          86 -72 rmoveto
          74 842 -74 hlineto
          endchar
        </CharString>
        <CharString name="braceleft">
          -253 -210 74 436 67 401 74 hstem
          109 74 vstem
          20 300 rmoveto
          40 3 49 -14 0 -42 rrcurveto
          -285 vlineto
          -78 42 -94 149 vhcurveto
          74 vlineto
          -70 -4 -47 37 0 65 rrcurveto
          289 vlineto
          0 42 -36 34 -48 7 48 9 37 29 0 48 rrcurveto
          236 vlineto
          91 53 21 63 vhcurveto
          74 vlineto
          -133 -57 -90 -96 hvcurveto
          -236 vlineto
          0 -51 -57 1 -33 -3 rrcurveto
          endchar
        </CharString>
        <CharString name="braceright">
          -253 -210 74 436 67 401 74 hstem
          137 74 vstem
          20 -136 rmoveto
          -74 vlineto
          149 42 94 78 hvcurveto
          285 vlineto
          0 42 49 14 40 -3 rrcurveto
          67 vlineto
          -33 3 -57 -1 0 51 rrcurveto
          236 vlineto
          96 -57 90 -133 vhcurveto
          -74 vlineto
          63 53 -21 -91 hvcurveto
          -236 vlineto
          0 -48 37 -29 48 -9 -48 -7 -36 -34 0 -42 rrcurveto
          -289 vlineto
          0 -65 -47 -37 -70 4 rrcurveto
          endchar
        </CharString>
        <CharString name="bracketleft">
          -252 -210 74 904 74 hstem
          85 74 vstem
          85 -38 rmoveto
          -60 15 -112 121 vhcurveto
          80 74 -80 hlineto
          -38 -24 38 60 hvcurveto
          708 vlineto
          60 24 38 38 vhcurveto
          80 74 -80 hlineto
          -121 -15 -112 -60 hvcurveto
          endchar
        </CharString>
        <CharString name="bracketright">
          -252 -210 74 904 74 hstem
          162 74 vstem
          20 -136 rmoveto
          -74 80 vlineto
          121 15 112 60 hvcurveto
          708 vlineto
          60 -15 112 -121 vhcurveto
          -80 -74 80 hlineto
          38 24 -38 -60 hvcurveto
          -708 vlineto
          -60 -24 -38 -38 vhcurveto
          endchar
        </CharString>
        <CharString name="breve">
          -244 530 47 hstem
          50 47 136 47 vstem
          50 644 rmoveto
          62 callsubr
          endchar
        </CharString>
        <CharString name="brokenbar">
          -327 86 74 vstem
          86 -72 rmoveto
          74 328 -74 hlineto
          173 vmoveto
          74 341 -74 hlineto
          endchar
        </CharString>
        <CharString name="bullet">
          -261 309 147 hstem
          85 142 vstem
          85 341 rmoveto
          39 callsubr
          endchar
        </CharString>
        <CharString name="bullet.smcp">
          -261 252 147 hstem
          85 142 vstem
          85 284 rmoveto
          39 callsubr
          endchar
        </CharString>
        <CharString name="c">
          -73 -5 74 393 74 hstem
          50 74 vstem
          50 266 rmoveto
          -24 callsubr
          endchar
        </CharString>
        <CharString name="c.smcp">
          -53 -4 74 434 74 hstem
          55 74 vstem
          55 295 rmoveto
          92 callsubr
          endchar
        </CharString>
        <CharString name="c.superior">
          -210 373 62 240 62 hstem
          31 62 vstem
          31 555 rmoveto
          -156 57 -26 74 vhcurveto
          62 1 44 4 61 17 rrcurveto
          47 vlineto
          0 -91 -7 -69 -54 -22 21 97 120 31 2 45 67 88 -5 0 vhcurveto
          46 vlineto
          -53 10 -70 11 -39 0 rrcurveto
          -77 -54 -27 -155 hvcurveto
          endchar
        </CharString>
        <CharString name="c_h">
          475 -7 74 -46 -21 464 74 246 -20 hstemhm
          40 74 450 74 286 74 hintmask 10111110
          40 266 rmoveto
          -233 76 -40 99 vhcurveto
          155 7 268 -52 0 258 rrcurveto
          203 vlineto
          63 30 45 27 88 0 rrcurveto
          51 39 -30 -66 hvcurveto
          hintmask 01111110
          -370 74 370 vlineto
          88 -58 82 -106 vhcurveto
          -83 0 -57 -39 -56 -32 rrcurveto
          315 -74 -578 vlineto
          hintmask 10111110
          -162 -160 23 -189 -72 -29 42 153 189 41 13 60 89 139 -8 0 vhcurveto
          54 vlineto
          -70 13 -106 15 -52 0 rrcurveto
          -102 -73 -40 -232 hvcurveto
          endchar
        </CharString>
        <CharString name="c_k">
          457 -7 74 -46 -21 464 74 -6 -20 270 -20 hstemhm
          40 74 476 74 hintmask 10001110
          40 266 rmoveto
          -233 136 -40 99 vhcurveto
          83 0 101 48 131 114 rrcurveto
          hintmask 01011110
          -155 74 221 vlineto
          30 27 223 -248 92 0 -262 295 263 236 -107 1 -239 -211 0 461 -74 0 0 -527 rlineto
          hintmask 10101110
          -75 -69 -142 -119 -98 0 rrcurveto
          -93 -68 42 153 189 41 13 60 89 139 -8 0 hvcurveto
          54 vlineto
          -70 13 -106 15 -52 0 rrcurveto
          -102 -73 -40 -232 hvcurveto
          endchar
        </CharString>
        <CharString name="c_t">
          285 -7 74 -66 56 399 77 hstemhm
          40 74 495 74 -56 56 hintmask 10111000
          40 261 rmoveto
          -233 76 -35 99 vhcurveto
          83 1 71 5 81 23 rrcurveto
          56 vlineto
          0 -143 -11 -92 -72 -29 37 153 189 41 10 60 vhcurveto
          394 -266 hlineto
          hintmask 01111000
          -140 38 -49 95 vhcurveto
          78 56 hlineto
          -1 -77 18 0 hvcurveto
          -45 10 -14 6 0 99 rrcurveto
          266 155 76 vlineto
          hintmask 10110100
          4 callsubr
          hintmask 10111000
          -18 -147 -394 0 rlineto
          -102 -73 -40 -232 hvcurveto
          endchar
        </CharString>
        <CharString name="cacute">
          -73 -5 74 393 74 62 133 hstem
          50 74 110 202 vstem
          234 598 rmoveto
          24 callsubr
          -291 -465 rmoveto
          -24 callsubr
          endchar
        </CharString>
        <CharString name="cacute.smcp">
          -53 -4 74 434 74 65 133 hstem
          55 74 119 202 vstem
          248 643 rmoveto
          24 callsubr
          -300 -481 rmoveto
          92 callsubr
          endchar
        </CharString>
        <CharString name="caron">
          -181 531 130 hstem
          50 292 vstem
          50 661 rmoveto
          64 callsubr
          45 -130 rmoveto
          71 hmoveto
          endchar
        </CharString>
        <CharString name="caron.smcp">
          -181 531 160 hstem
          50 292 vstem
          50 691 rmoveto
          104 -160 71 0 117 160 -62 0 -88 -91 -82 91 rlineto
          44 -160 rmoveto
          71 hmoveto
          endchar
        </CharString>
        <CharString name="ccaron">
          -73 -5 74 393 74 62 130 hstemhm
          50 74 -2 292 hintmask 00101000
          122 728 rmoveto
          64 callsubr
          45 -130 rmoveto
          71 hmoveto
          hintmask 11010000
          -260 -332 rmoveto
          -24 callsubr
          endchar
        </CharString>
        <CharString name="ccaron.smcp">
          -53 -4 74 434 74 65 130 hstem
          55 74 15 292 vstem
          144 773 rmoveto
          64 callsubr
          45 -130 rmoveto
          71 hmoveto
          -277 -348 rmoveto
          92 callsubr
          endchar
        </CharString>
        <CharString name="ccedilla">
          -73 -173 37 129 74 397 74 hstem
          50 74 136 67 vstem
          50 266 rmoveto
          -233 76 -40 99 vhcurveto
          83 1 71 5 81 23 rrcurveto
          56 vlineto
          0 -143 -11 -92 -72 -29 42 153 189 41 13 60 89 139 -8 0 vhcurveto
          54 vlineto
          -70 13 -106 15 -52 0 rrcurveto
          -102 -73 -40 -232 hvcurveto
          125 -402 rmoveto
          25 callsubr
          endchar
        </CharString>
        <CharString name="ccedilla.smcp">
          -53 -174 37 133 74 434 74 hstem
          55 74 146 67 vstem
          190 -137 rmoveto
          25 callsubr
          -188 417 rmoveto
          92 callsubr
          endchar
        </CharString>
        <CharString name="ccircumflex">
          -73 -5 74 393 74 62 130 hstem
          50 74 13 292 vstem
          137 598 rmoveto
          33 callsubr
          0 vmoveto
          71 hmoveto
          -275 -462 rmoveto
          -24 callsubr
          endchar
        </CharString>
        <CharString name="ccircumflex.smcp">
          -53 -4 74 434 74 65 130 hstem
          55 74 34 292 vstem
          163 643 rmoveto
          33 callsubr
          0 vmoveto
          71 hmoveto
          -296 -478 rmoveto
          92 callsubr
          endchar
        </CharString>
        <CharString name="cdotaccent">
          -73 -5 74 393 74 64 102 hstem
          50 74 121 97 vstem
          245 623 rmoveto
          -13 callsubr
          -195 -411 rmoveto
          -24 callsubr
          endchar
        </CharString>
        <CharString name="cdotaccent.smcp">
          -53 -4 74 434 74 65 102 hstem
          55 74 131 97 vstem
          260 666 rmoveto
          -13 callsubr
          -205 -425 rmoveto
          92 callsubr
          endchar
        </CharString>
        <CharString name="cedilla">
          -321 -173 37 hstem
          135 67 vstem
          50 -136 rmoveto
          25 callsubr
          endchar
        </CharString>
        <CharString name="cent">
          -83 -7 74 hstem
          40 74 117 60 vstem
          40 266 rmoveto
          0 -242 77 -33 114 2 rrcurveto
          -89 60 92 vlineto
          53 3 51 7 55 16 rrcurveto
          56 vlineto
          0 -143 -11 -92 -72 -29 42 153 189 41 13 60 89 139 -8 0 vhcurveto
          54 vlineto
          -44 8 -58 9 -50 6 rrcurveto
          101 -60 -96 vlineto
          -116 5 -75 -38 0 -239 rrcurveto
          endchar
        </CharString>
        <CharString name="circumflex">
          -181 531 130 hstem
          50 292 vstem
          50 531 rmoveto
          33 callsubr
          0 vmoveto
          71 hmoveto
          endchar
        </CharString>
        <CharString name="circumflex.smcp">
          -181 531 130 hstem
          50 292 vstem
          50 531 rmoveto
          33 callsubr
          0 vmoveto
          71 hmoveto
          endchar
        </CharString>
        <CharString name="colon">
          -301 0 105 322 105 hstem
          85 102 vstem
          85 23 rmoveto
          -97 callsubr
          370 vmoveto
          -97 callsubr
          endchar
        </CharString>
        <CharString name="comma">
          -303 -88 32 hstemhm
          85 100 -64 64 hintmask 11000000
          85 25 rmoveto
          -17 11 -8 14 vhcurveto
          hintmask 10100000
          11 -25 hlineto
          0 -11 -1 -21 -30 1 rrcurveto
          -32 vlineto
          0 95 -18 95 hvcurveto
          hintmask 11000000
          90 vlineto
          15 -6 12 -18 vhcurveto
          -51 hlineto
          -16 -9 -9 -18 hvcurveto
          endchar
        </CharString>
        <CharString name="copyright">
          238 0 64 83 64 308 64 85 64 hstem
          55 64 112 64 397 64 vstem
          55 368 rmoveto
          12 callsubr
          64 hmoveto
          13 callsubr
          112 -3 rmoveto
          -177 65 -41 79 vhcurveto
          67 0 53 10 64 18 rrcurveto
          52 vlineto
          -35 -5 -77 -11 -72 0 rrcurveto
          -67 -13 67 84 105 26 52 54 hvcurveto
          33 0 82 -3 63 -9 rrcurveto
          52 vlineto
          -56 10 -81 14 -41 0 rrcurveto
          -81 -63 -57 -161 hvcurveto
          endchar
        </CharString>
        <CharString name="currency">
          -114 147 58 210 58 hstem
          66 56 205 56 vstem
          51 449 rmoveto
          43 -44 rlineto
          -18 -26 -10 -30 0 -34 0 -37 11 -35 20 -28 rrcurveto
          -45 -44 37 -42 47 47 rlineto
          25 -18 30 -11 33 0 35 0 32 12 26 20 rrcurveto
          49 -49 42 37 -53 53 rlineto
          18 27 10 33 0 35 0 31 -9 29 -15 24 rrcurveto
          47 47 -35 40 -48 -47 rlineto
          -27 21 -34 13 -38 0 -34 0 -32 -11 -26 -19 rrcurveto
          -41 42 rlineto
          31 -172 rmoveto
          56 46 46 56 57 46 -45 -57 -58 -45 -50 -58 -58 -44 50 58 vhcurveto
          endchar
        </CharString>
        <CharString name="d">
          -19 -6 74 397 74 246 -20 hstem
          50 74 297 73 vstem
          50 263 rmoveto
          -23 callsubr
          74 hmoveto
          -22 callsubr
          endchar
        </CharString>
        <CharString name="d.salt">
          -18 -13 74 399 74 250 -20 hstem
          50 74 297 74 vstem
          50 256 rmoveto
          143 callsubr
          74 hmoveto
          144 callsubr
          endchar
        </CharString>
        <CharString name="d.smcp">
          28 0 74 424 74 hstem
          80 74 318 74 vstem
          80 hmoveto
          93 callsubr
          74 -498 rmoveto
          94 callsubr
          endchar
        </CharString>
        <CharString name="d.superior">
          -178 374 62 242 62 hstem
          31 62 199 61 vstem
          31 555 rmoveto
          -82 22 -99 109 vhcurveto
          51 0 59 35 20 14 rrcurveto
          21 -45 40 0 0 526 -60 0 0 -194 rlineto
          -48 20 -49 10 -34 0 rrcurveto
          -114 -17 -94 -91 hvcurveto
          62 hmoveto
          104 28 19 48 vhcurveto
          58 0 13 -5 52 -12 rrcurveto
          -196 vlineto
          -41 -14 -23 -15 -59 0 rrcurveto
          -49 -27 36 83 hvcurveto
          endchar
        </CharString>
        <CharString name="dagger">
          -189 489 59 hstemhm
          153 79 -72 63 hintmask 11000000
          20 489 rmoveto
          133 -10 rlineto
          hintmask 10100000
          7 -551 63 0 rlineto
          hintmask 11000000
          9 551 132 10 0 59 -132 10 -8 212 -63 0 -8 -212 -133 -10 rlineto
          endchar
        </CharString>
        <CharString name="daggerdbl">
          -169 174 59 256 59 hstemhm
          153 79 -72 63 hintmask 11010000
          20 174 rmoveto
          136 -10 4 -236 63 0 4 236 137 10 0 59 -135 10 rlineto
          hintmask 11100000
          3 236 132 10 0 59 -132 10 -8 212 -62 0 -9 -212 -133 -10 0 -59 133 -10 1 -236 -134 -10 rlineto
          endchar
        </CharString>
        <CharString name="dcaron">
          -19 -6 74 397 74 246 -20 hstem
          50 74 297 73 48 74 vstem
          50 263 rmoveto
          -23 callsubr
          74 hmoveto
          -22 callsubr
          417 517 rmoveto
          66 callsubr
          endchar
        </CharString>
        <CharString name="dcaron.salt">
          12 -13 74 399 74 250 -20 hstem
          50 74 297 74 50 74 vstem
          50 256 rmoveto
          143 callsubr
          74 hmoveto
          144 callsubr
          421 461 rmoveto
          65 callsubr
          endchar
        </CharString>
        <CharString name="dcaron.smcp">
          30 0 74 424 74 60 130 hstemhm
          138 74 -11 292 37 74 hintmask 00101000
          201 762 rmoveto
          64 callsubr
          45 -130 rmoveto
          71 hmoveto
          hintmask 11010100
          -251 -632 rmoveto
          93 callsubr
          74 -498 rmoveto
          94 callsubr
          endchar
        </CharString>
        <CharString name="dcroat">
          -19 -6 74 397 74 77 54 115 -20 hstem
          50 74 297 73 vstem
          50 263 rmoveto
          -122 30 -147 145 vhcurveto
          68 0 102 46 26 19 rrcurveto
          20 -59 53 0 0 616 72 0 0 54 -72 0 0 115 -73 0 0 -115 -122 0 0 -54 122 0 0 -117 rlineto
          -64 26 -87 14 -45 0 rrcurveto
          -151 -24 -140 -136 hvcurveto
          74 hmoveto
          -22 callsubr
          endchar
        </CharString>
        <CharString name="dcroat.salt">
          -6 -13 74 399 74 82 54 114 -20 hstem
          50 74 297 74 vstem
          50 256 rmoveto
          -168 59 -101 125 vhcurveto
          106 0 108 19 47 4 rrcurveto
          606 72 54 -72 114 -74 -114 -121 -54 121 -121 vlineto
          -64 26 -78 13 -45 0 rrcurveto
          -153 -31 -120 -158 hvcurveto
          74 hmoveto
          144 callsubr
          endchar
        </CharString>
        <CharString name="dcroat.smcp">
          20 0 75 188 54 177 78 hstem
          87 78 287 81 vstem
          20 263 rmoveto
          128 callsubr
          145 -242 rmoveto
          129 callsubr
          endchar
        </CharString>
        <CharString name="degree">
          -270 530 48 109 48 hstem
          50 47 109 47 vstem
          50 632 rmoveto
          16 callsubr
          47 hmoveto
          17 callsubr
          endchar
        </CharString>
        <CharString name="degree.smcp">
          -271 364 49 108 49 hstem
          50 47 108 47 vstem
          50 467 rmoveto
          126 callsubr
          47 hmoveto
          127 callsubr
          endchar
        </CharString>
        <CharString name="dieresis">
          -117 531 101 hstem
          50 101 154 101 vstem
          50 582 rmoveto
          11 callsubr
          255 hmoveto
          11 callsubr
          endchar
        </CharString>
        <CharString name="dieresis.smcp">
          -117 530 102 hstem
          50 101 154 101 vstem
          50 581 rmoveto
          125 callsubr
          255 hmoveto
          125 callsubr
          endchar
        </CharString>
        <CharString name="divide">
          -57 150 102 64 74 59 102 hstem
          212 97 vstem
          50 316 rmoveto
          416 74 -416 hlineto
          162 -217 rmoveto
          -13 callsubr
          245 vmoveto
          -13 callsubr
          endchar
        </CharString>
        <CharString name="dollar">
          2 322 74 hstem
          55 74 115 58 144 74 vstem
          55 494 rmoveto
          -79 31 -93 147 vhcurveto
          130 hlineto
          65 18 -41 -57 hvcurveto
          -68 vlineto
          -83 -88 -7 -41 vhcurveto
          -93 0 -106 6 -40 0 rrcurveto
          -55 vlineto
          26 -3 77 -10 63 -7 rrcurveto
          -87 58 82 vlineto
          107 -6 111 32 0 138 rrcurveto
          68 vlineto
          82 -19 90 -138 vhcurveto
          -130 hlineto
          -50 -54 18 80 hvcurveto
          66 vlineto
          0 95 54 13 70 -3 rrcurveto
          0 190 -9 50 vhcurveto
          58 vlineto
          -40 4 -88 12 -63 5 rrcurveto
          89 -58 -86 vlineto
          -107 -2 -80 -35 -2 -141 rrcurveto
          endchar
        </CharString>
        <CharString name="dollar.smcp">
          -71 249 71 180 140 -140 75 -75 57 hstemhm
          50 74 98 64 88 75 hintmask 11001110
          50 388 rmoveto
          -76 43 -63 119 vhcurveto
          82 hlineto
          49 31 -29 -43 hvcurveto
          -38 vlineto
          -62 -56 -9 -31 vhcurveto
          -70 0 -119 -1 -30 0 rrcurveto
          -56 vlineto
          19 -2 88 -7 47 -5 rrcurveto
          -66 64 62 vlineto
          80 -4 83 47 0 103 rrcurveto
          38 vlineto
          65 -49 78 -106 vhcurveto
          -82 hlineto
          -55 -33 21 47 hvcurveto
          31 vlineto
          73 45 8 53 vhcurveto
          hintmask 10011110
          207 57 hlineto
          -30 3 -66 9 -47 4 rrcurveto
          hintmask 11001110
          67 -64 vlineto
          hintmask 10101110
          -65 vlineto
          -81 -1 -91 -21 0 -134 rrcurveto
          endchar
        </CharString>
        <CharString name="dotaccent">
          -376 533 102 hstem
          50 97 vstem
          50 556 rmoveto
          -13 callsubr
          endchar
        </CharString>
        <CharString name="dotlessi">
          -379 21 -21 531 -20 hstem
          60 74 vstem
          60 hmoveto
          -12 callsubr
          endchar
        </CharString>
        <CharString name="e">
          -48 -5 74 156 73 163 74 hstem
          50 74 287 74 vstem
          50 268 rmoveto
          -21 callsubr
          74 30 rmoveto
          -20 callsubr
          endchar
        </CharString>
        <CharString name="e.smcp">
          -57 -2 74 -60 60 175 76 -69 61 183 73 -73 61 hstemhm
          80 74 hintmask 10000010
          80 83 rmoveto
          95 callsubr
          hintmask 01000010
          96 callsubr
          hintmask 10100010
          97 callsubr
          hintmask 00010010
          98 callsubr
          hintmask 00101010
          99 callsubr
          hintmask 00000110
          285 61 hlineto
          hintmask 10001010
          100 callsubr
          endchar
        </CharString>
        <CharString name="e.superior">
          -180 373 62 87 62 90 62 hstem
          31 62 203 62 vstem
          31 557 rmoveto
          -146 41 -38 91 vhcurveto
          62 0 64 6 61 17 rrcurveto
          45 vlineto
          -56 -8 -56 2 -69 0 rrcurveto
          -61 -15 16 71 hvcurveto
          160 hlineto
          67 38 31 54 120 -77 9 -87 -144 -19 -76 -103 hvcurveto
          62 27 rmoveto
          72 29 18 72 80 22 -8 -52 -20 -14 -10 -33 vhcurveto
          endchar
        </CharString>
        <CharString name="eacute">
          -48 -5 74 156 73 163 74 61 133 hstemhm
          50 74 113.5 202 -28.5 74 hintmask 00010100
          237.5 596 rmoveto
          24 callsubr
          hintmask 11101010
          -294.5 -461 rmoveto
          -21 callsubr
          74 30 rmoveto
          -20 callsubr
          endchar
        </CharString>
        <CharString name="eacute.smcp">
          -57 -2 74 -60 60 175 76 -69 61 183 61 -61 73 61 133 hstemhm
          80 74 98 202 hintmask 0000001010000000
          252 632 rmoveto
          24 callsubr
          hintmask 1000000100000000
          -279 -682 rmoveto
          95 callsubr
          hintmask 0100000100000000
          96 callsubr
          hintmask 1010000100000000
          97 callsubr
          hintmask 0001000100000000
          98 callsubr
          hintmask 0010010100000000
          99 callsubr
          hintmask 0000100100000000
          285 61 hlineto
          hintmask 1000010100000000
          100 callsubr
          endchar
        </CharString>
        <CharString name="ecaron">
          -48 -5 74 156 73 163 74 56 130 hstemhm
          50 74 6 292 -11 74 hintmask 00010100
          130 721 rmoveto
          64 callsubr
          45 -130 rmoveto
          71 hmoveto
          hintmask 11101010
          -268 -323 rmoveto
          -21 callsubr
          74 30 rmoveto
          -20 callsubr
          endchar
        </CharString>
        <CharString name="ecaron.smcp">
          -57 -2 74 -60 60 175 76 -69 61 183 61 -61 73 60 130 hstemhm
          80 74 -20 292 hintmask 0000001010000000
          134 761 rmoveto
          64 callsubr
          45 -130 rmoveto
          71 hmoveto
          hintmask 1000000100000000
          -242 -548 rmoveto
          95 callsubr
          hintmask 0100000100000000
          96 callsubr
          hintmask 1010000100000000
          97 callsubr
          hintmask 0001000100000000
          98 callsubr
          hintmask 0010010100000000
          99 callsubr
          hintmask 0000100100000000
          285 61 hlineto
          hintmask 1000010100000000
          100 callsubr
          endchar
        </CharString>
        <CharString name="ecircumflex">
          -48 -5 74 156 73 163 74 61 130 hstemhm
          50 74 4 292 -9 74 hintmask 00010100
          128 596 rmoveto
          33 callsubr
          0 vmoveto
          71 hmoveto
          hintmask 11101010
          -266 -458 rmoveto
          -21 callsubr
          74 30 rmoveto
          -20 callsubr
          endchar
        </CharString>
        <CharString name="ecircumflex.smcp">
          -57 -2 74 -60 60 175 76 -69 61 183 61 -61 73 61 130 hstemhm
          80 74 -8 292 hintmask 0000001010000000
          146 632 rmoveto
          33 callsubr
          0 vmoveto
          71 hmoveto
          hintmask 1000000100000000
          -254 -679 rmoveto
          95 callsubr
          hintmask 0100000100000000
          96 callsubr
          hintmask 1010000100000000
          97 callsubr
          hintmask 0001000100000000
          98 callsubr
          hintmask 0010010100000000
          99 callsubr
          hintmask 0000100100000000
          285 61 hlineto
          hintmask 1000010100000000
          100 callsubr
          endchar
        </CharString>
        <CharString name="edieresis">
          -48 -5 74 156 73 163 74 61 101 hstemhm
          50 74 -31 101 154 101 -38 74 hintmask 00010110
          93 647 rmoveto
          11 callsubr
          255 hmoveto
          11 callsubr
          hintmask 11101001
          -298 -379 rmoveto
          -21 callsubr
          74 30 rmoveto
          -20 callsubr
          endchar
        </CharString>
        <CharString name="edieresis.smcp">
          -57 -2 74 -60 60 175 76 -69 61 183 61 -61 73 61 101 hstemhm
          80 74 -44 101 154 101 hintmask 0000001011000000
          110 683 rmoveto
          11 callsubr
          255 hmoveto
          11 callsubr
          hintmask 1000000100000000
          -285 -600 rmoveto
          95 callsubr
          hintmask 0100000100000000
          96 callsubr
          hintmask 1010000100000000
          97 callsubr
          hintmask 0001000100000000
          98 callsubr
          hintmask 0010010100000000
          99 callsubr
          hintmask 0000100100000000
          285 61 hlineto
          hintmask 1000010100000000
          100 callsubr
          endchar
        </CharString>
        <CharString name="edotaccent">
          -48 -5 74 156 73 163 74 61 102 hstem
          50 74 100.5 97 89.5 74 vstem
          224.5 619 rmoveto
          -13 callsubr
          -174.5 -405 rmoveto
          -21 callsubr
          74 30 rmoveto
          -20 callsubr
          endchar
        </CharString>
        <CharString name="edotaccent.smcp">
          -57 -2 74 -60 60 175 76 -69 61 183 61 -61 73 61 102 hstemhm
          80 74 93 97 hintmask 0000001010000000
          247 655 rmoveto
          -13 callsubr
          hintmask 1000000100000000
          -167 -626 rmoveto
          95 callsubr
          hintmask 0100000100000000
          96 callsubr
          hintmask 1010000100000000
          97 callsubr
          hintmask 0001000100000000
          98 callsubr
          hintmask 0010010100000000
          99 callsubr
          hintmask 0000100100000000
          285 61 hlineto
          hintmask 1000010100000000
          100 callsubr
          endchar
        </CharString>
        <CharString name="egrave">
          -48 -5 74 156 73 163 74 61 133 hstemhm
          50 74 -9.5 202 94.5 74 hintmask 00010100
          114.5 729 rmoveto
          -31 callsubr
          hintmask 11101010
          -159.5 -461 rmoveto
          -21 callsubr
          74 30 rmoveto
          -20 callsubr
          endchar
        </CharString>
        <CharString name="egrave.smcp">
          -57 -2 74 -60 60 175 76 -69 61 183 61 -61 73 61 133 hstemhm
          80 74 -14 202 hintmask 0000001010000000
          140 765 rmoveto
          -31 callsubr
          hintmask 1000000100000000
          -155 -682 rmoveto
          95 callsubr
          hintmask 0100000100000000
          96 callsubr
          hintmask 1010000100000000
          97 callsubr
          hintmask 0001000100000000
          98 callsubr
          hintmask 0010010100000000
          99 callsubr
          hintmask 0000100100000000
          285 61 hlineto
          hintmask 1000010100000000
          100 callsubr
          endchar
        </CharString>
        <CharString name="eight">
          61 0 74 263 73 253 74 hstem
          75 74 336 74 vstem
          75 154 rmoveto
          -81 callsubr
          74 -101 rmoveto
          -80 callsubr
          343 vmoveto
          -79 callsubr
          endchar
        </CharString>
        <CharString name="eight.denominator">
          -107 -1 63 147 63 146 62 hstem
          66 62 210 62 vstem
          66 103 rmoveto
          53 callsubr
          62 -54 rmoveto
          54 callsubr
          220 vmoveto
          55 callsubr
          endchar
        </CharString>
        <CharString name="eight.numerator">
          -107 254 63 147 63 146 62 hstem
          66 62 210 62 vstem
          66 358 rmoveto
          53 callsubr
          62 -54 rmoveto
          54 callsubr
          220 vmoveto
          55 callsubr
          endchar
        </CharString>
        <CharString name="eight.oldstyle">
          61 0 74 263 73 253 74 hstem
          75 74 336 74 vstem
          75 154 rmoveto
          -81 callsubr
          74 -101 rmoveto
          -80 callsubr
          343 vmoveto
          -79 callsubr
          endchar
        </CharString>
        <CharString name="eight.smcp">
          4 0 75 177 75 173 75 hstem
          75 74 280 74 vstem
          75 130 rmoveto
          -41 2 -89 134 vhcurveto
          165 hlineto
          56 71 29 101 hvcurveto
          70 vlineto
          0 34 -16 55 -42 8 56 12 2 64 0 17 rrcurveto
          43 vlineto
          95 -43 47 -83 vhcurveto
          -166 hlineto
          -90 -46 -36 -106 hvcurveto
          -43 vlineto
          0 -41 17 -54 50 -17 -31 -10 -36 -10 0 -58 rrcurveto
          74 -72 rmoveto
          65 vlineto
          48 27 11 36 vhcurveto
          156 hlineto
          34 27 -15 -44 hvcurveto
          -65 vlineto
          -41 -29 -12 -34 vhcurveto
          -145 hlineto
          -57 -15 15 38 hvcurveto
          258 vmoveto
          45 vlineto
          70 22 -1 50 vhcurveto
          146 hlineto
          46 17 -11 -58 hvcurveto
          -45 vlineto
          -28 -5 -31 -57 vhcurveto
          -156 hlineto
          -27 -36 7 52 hvcurveto
          endchar
        </CharString>
        <CharString name="eight.tnum">
          47 0 74 263 73 253 74 hstem
          68 74 336 74 vstem
          68 154 rmoveto
          -81 callsubr
          74 -101 rmoveto
          -80 callsubr
          343 vmoveto
          -79 callsubr
          endchar
        </CharString>
        <CharString name="eight.tosf">
          47 0 74 263 73 253 74 hstem
          68 74 336 74 vstem
          68 154 rmoveto
          -81 callsubr
          74 -101 rmoveto
          -80 callsubr
          343 vmoveto
          -79 callsubr
          endchar
        </CharString>
        <CharString name="eightinferior">
          -107 -201 63 147 63 146 62 hstem
          66 62 210 62 vstem
          66 -39 rmoveto
          -58 vlineto
          -54 17 -50 92 vhcurveto
          120 hlineto
          55 50 20 84 hvcurveto
          58 vlineto
          0 28 -13 53 -35 6 47 10 2 51 -1 14 rrcurveto
          40 vlineto
          86 -38 31 -70 vhcurveto
          -110 hlineto
          -67 -49 -25 -92 hvcurveto
          -40 vlineto
          0 -34 13 -42 42 -14 -26 -8 -29 -16 0 -48 rrcurveto
          62 -4 rmoveto
          40 19 12 30 vhcurveto
          115 hlineto
          29 17 -15 -37 hvcurveto
          -50 vlineto
          -34 -19 -11 -28 vhcurveto
          -112 hlineto
          -41 -10 13 32 hvcurveto
          220 vmoveto
          55 callsubr
          endchar
        </CharString>
        <CharString name="eightsuperior">
          -107 404 63 147 63 146 62 hstem
          66 62 210 62 vstem
          66 508 rmoveto
          53 callsubr
          62 -54 rmoveto
          54 callsubr
          220 vmoveto
          55 callsubr
          endchar
        </CharString>
        <CharString name="ellipsis">
          243 0 105 hstem
          85 102 170 102 170 102 vstem
          cntrmask 01110000
          629 23 rmoveto
          -97 callsubr
          -272 -57 rmoveto
          -97 callsubr
          -272 -57 rmoveto
          -97 callsubr
          endchar
        </CharString>
        <CharString name="emacron">
          -48 -5 74 156 73 163 74 60 63 hstemhm
          50 74 5 292 -10 74 hintmask 00010100
          129 595 rmoveto
          15 callsubr
          hintmask 11101010
          -79 -390 rmoveto
          -21 callsubr
          74 30 rmoveto
          -20 callsubr
          endchar
        </CharString>
        <CharString name="emacron.smcp">
          -57 -2 74 -60 60 175 76 -69 61 183 61 -61 73 61 63 hstemhm
          80 74 -11 292 hintmask 0000001010000000
          143 632 rmoveto
          15 callsubr
          hintmask 1000000100000000
          -63 -612 rmoveto
          95 callsubr
          hintmask 0100000100000000
          96 callsubr
          hintmask 1010000100000000
          97 callsubr
          hintmask 0001000100000000
          98 callsubr
          hintmask 0010010100000000
          99 callsubr
          hintmask 0000100100000000
          285 61 hlineto
          hintmask 1000010100000000
          100 callsubr
          endchar
        </CharString>
        <CharString name="emdash">
          163 252 75 hstem
          20 252 rmoveto
          696 75 -696 hlineto
          endchar
        </CharString>
        <CharString name="emdash.alt">
          163 322 75 hstem
          20 322 rmoveto
          696 75 -696 hlineto
          endchar
        </CharString>
        <CharString name="emdash.smcp">
          163 239 75 hstem
          20 239 rmoveto
          696 75 -696 hlineto
          endchar
        </CharString>
        <CharString name="endash">
          -60 250 75 hstem
          20 250 rmoveto
          473 75 -473 hlineto
          endchar
        </CharString>
        <CharString name="endash.alt">
          -60 320 75 hstem
          20 320 rmoveto
          473 75 -473 hlineto
          endchar
        </CharString>
        <CharString name="endash.smcp">
          -60 235 75 hstem
          20 235 rmoveto
          473 75 -473 hlineto
          endchar
        </CharString>
        <CharString name="eng">
          -19 -268 38 251 -21 466 74 -9 -20 hstemhm
          60 74 286 74 hintmask 11101100
          60 hmoveto
          74 409 hlineto
          77 37 39 20 80 0 rrcurveto
          51 39 -30 -66 hvcurveto
          0 -370 0 -94 rlineto
          -2 -84 -77 -29 -41 -23 rrcurveto
          30 -38 rlineto
          66 20 89 22 8 136 rrcurveto
          1 90 0 370 rlineto
          88 -58 82 -106 vhcurveto
          -81 0 -54 -36 -61 -35 rrcurveto
          hintmask 11011100
          -22 62 -52 0 rlineto
          endchar
        </CharString>
        <CharString name="eng.smcp">
          30 -212 62 171 -21 hstem
          80 74 316 73 vstem
          80 hmoveto
          74 438 hlineto
          317 -435 0 -62 rlineto
          -59 -68 -32 -47 vhcurveto
          -62 vlineto
          106 0 78 58 3 92 rrcurveto
          0 62 0 571 -73 0 0 -434 -319 434 -71 0 rlineto
          endchar
        </CharString>
        <CharString name="eogonek">
          -48 -158 60 93 74 -66 20 202 73 163 74 hstemhm
          50 74 287 74 hintmask 10100000
          436 23 rmoveto
          63 callsubr
          hintmask 01011110
          -425 245 rmoveto
          -21 callsubr
          74 30 rmoveto
          -20 callsubr
          endchar
        </CharString>
        <CharString name="eogonek.smcp">
          -57 -169 60 101 20 -14 74 -60 60 175 76 -69 61 183 61 -61 73 hstemhm
          80 74 hintmask 1100000000000000
          432 12 rmoveto
          63 callsubr
          hintmask 0010000010000000
          -391 71 rmoveto
          95 callsubr
          hintmask 0001000010000000
          96 callsubr
          hintmask 0010100010000000
          97 callsubr
          hintmask 0000010010000000
          98 callsubr
          hintmask 0000100110000000
          99 callsubr
          hintmask 0000001010000000
          285 61 hlineto
          hintmask 0010000110000000
          100 callsubr
          endchar
        </CharString>
        <CharString name="equal">
          -106 212 74 135 74 hstem
          20 212 rmoveto
          427 74 -427 hlineto
          135 vmoveto
          427 74 -427 hlineto
          endchar
        </CharString>
        <CharString name="estimated">
          149 0 21 237 17 239 19 hstem
          60 111 379 112 vstem
          60 266 rmoveto
          0 -78 28 -63 55 -51 55 -51 67 -23 96 0 62 0 30 6 42 16 40 16 35 27 38 40 rrcurveto
          -56 hlineto
          -43 -48 -72 -36 -76 0 rrcurveto
          -114 -76 66 27 hvcurveto
          133 vlineto
          13 5 -2 7 vhcurveto
          479 hlineto
          -4 89 -31 75 -58 45 -58 45 -61 21 -89 0 -97 0 -64 -25 -56 -50 -55 -52 -29 -62 0 -78 rrcurveto
          111 18 rmoveto
          137 vlineto
          23 81 70 108 86 104 -57 -42 vhcurveto
          -133 vlineto
          -10 -1 3 -12 vhcurveto
          -357 hlineto
          -5 -4 0 9 hvcurveto
          endchar
        </CharString>
        <CharString name="eth">
          -35 0 76 381 74 187 65 hstem
          40 74 310 74 vstem
          40 264 rmoveto
          -179 41 -85 137 vhcurveto
          100 hlineto
          107 73 65 199 hvcurveto
          0 96 -13 192 -100 123 rrcurveto
          91 36 -25 60 -118 -47 rlineto
          -52 40 -65 19 -92 0 rrcurveto
          -65 vlineto
          37 2 50 -3 43 -23 rrcurveto
          -109 -44 24 -60 145 58 rlineto
          37 -37 23 -49 14 -46 -14 15 -50 0 -6 0 rrcurveto
          -100 hlineto
          -135 -43 -97 -170 hvcurveto
          74 hmoveto
          164 38 29 66 vhcurveto
          100 hlineto
          84 22 -43 -150 -118 -21 -70 -85 hvcurveto
          -100 hlineto
          -58 -46 9 179 hvcurveto
          endchar
        </CharString>
        <CharString name="eth.smcp">
          20 0 75 188 54 177 78 hstem
          87 78 287 81 vstem
          20 263 rmoveto
          128 callsubr
          145 -242 rmoveto
          129 callsubr
          endchar
        </CharString>
        <CharString name="exclam">
          -304 0 105 626 -20 hstemhm
          82 102 -96 89 -82 75 hintmask 11100000
          82 23 rmoveto
          -107 callsubr
          hintmask 11010000
          6 651 rmoveto
          hintmask 11001000
          7 -535 75 0 rlineto
          hintmask 11010000
          7 535 rlineto
          endchar
        </CharString>
        <CharString name="exclam.smcp">
          -304 0 105 hstemhm
          82 102 -96 89 -82 75 hintmask 11000000
          82 23 rmoveto
          -107 callsubr
          hintmask 10100000
          6 490 rmoveto
          hintmask 10010000
          7 -403 75 0 rlineto
          hintmask 10100000
          7 403 rlineto
          endchar
        </CharString>
        <CharString name="exclamdown">
          -304 359 102 hstemhm
          83 97 -86 75 hintmask 11000000
          83 385 rmoveto
          -15 8 -11 16 vhcurveto
          50 hlineto
          18 0 4 15 1 12 rrcurveto
          49 vlineto
          0 14 -12 11 -12 1 rrcurveto
          -49 hlineto
          -14 -1 -10 -8 0 -14 rrcurveto
          5 -708 rmoveto
          89 0 rlineto
          hintmask 10100000
          -8 531 -75 0 rlineto
          endchar
        </CharString>
        <CharString name="exclamdown.alt">
          -304 21 -21 626 105 hstemhm
          82 102 -95 89 -82 75 hintmask 11100000
          82 651 rmoveto
          44 callsubr
          hintmask 11010000
          7 -708 rmoveto
          89 0 rlineto
          hintmask 11001000
          -7 535 -75 0 rlineto
          endchar
        </CharString>
        <CharString name="exclamdown.smcp">
          -304 21 -21 465 105 hstemhm
          82 102 -95 89 -82 75 hintmask 11100000
          82 490 rmoveto
          44 callsubr
          hintmask 11010000
          7 -547 rmoveto
          89 0 rlineto
          hintmask 11001000
          -7 403 -75 0 rlineto
          endchar
        </CharString>
        <CharString name="f">
          -173 21 -21 457 74 -74 57 200 72 hstemhm
          117 74 hintmask 10111000
          20 457 rmoveto
          97 -457 74 hlineto
          hintmask 11011000
          -19 callsubr
          hintmask 10111000
          -97 -17 rlineto
          endchar
        </CharString>
        <CharString name="f.salt">
          -199 21 -21 457 74 183 72 hstem
          60 74 vstem
          60 hmoveto
          145 callsubr
          endchar
        </CharString>
        <CharString name="f.smcp">
          -57 21 -21 244 76 -69 61 186 73 -73 61 hstemhm
          80 74 hintmask 11000100
          80 hmoveto
          74 244 hlineto
          hintmask 10100100
          98 callsubr
          hintmask 11010100
          101 callsubr
          hintmask 10001100
          285 61 hlineto
          hintmask 11010100
          100 callsubr
          endchar
        </CharString>
        <CharString name="f.superior">
          -245 672 62 -62 49 124 58 hstemhm
          99 62 hintmask 01110000
          26 672 rmoveto
          73 -294 62 294 hlineto
          hintmask 10110000
          109 62 -107 57 hlineto
          0 31 1 24 48 -1 rrcurveto
          0 89 -2 1 vhcurveto
          43 vlineto
          -37 10 -31 7 -37 0 rrcurveto
          -90 -6 -69 -36 hvcurveto
          0 -66 rlineto
          hintmask 01110000
          -75 -11 rlineto
          endchar
        </CharString>
        <CharString name="f_f">
          209 21 -21 457 74 -74 57 190 72 -62 72 hstemhm
          117 74 306 74 hintmask 10100110
          20 457 rmoveto
          68 callsubr
          hintmask 11000110
          306 -457 74 hlineto
          hintmask 10100110
          457 vlineto
          hintmask 11001110
          148 74 -146 99 hlineto
          0 48 2 37 64 -1 rrcurveto
          0 122 -1 1 vhcurveto
          49 vlineto
          -49 15 -42 9 -49 0 rrcurveto
          -120 -3 -102 -54 hvcurveto
          -99 -306 89 vlineto
          hintmask 11010110
          0 48 2 37 64 -1 rrcurveto
          0 122 -1 1 vhcurveto
          49 vlineto
          -49 15 -42 9 -49 0 rrcurveto
          -120 -3 -102 -54 hvcurveto
          0 -89 rlineto
          hintmask 10100110
          -99 -17 rlineto
          endchar
        </CharString>
        <CharString name="f_f_i">
          399 21 -21 457 74 -74 64 -64 57 189 49 -48 72 hstemhm
          117 74 286 74 286 75 hintmask 1001001110000000
          20 457 rmoveto
          97 -457 74 hlineto
          hintmask 1100001110000000
          457 286 -457 74 vlineto
          hintmask 1001001110000000
          457 vlineto
          hintmask 1010001110000000
          286 -457 75 521 hlineto
          hintmask 1100101110000000
          -359 10 0 53 rlineto
          0 108 75 26 64 -4 rrcurveto
          0 170 -11 1 vhcurveto
          49 vlineto
          -49 15 -90 19 -49 0 rrcurveto
          -120 -76 -84 -118 hvcurveto
          -53 -288 vlineto
          2 89 rlineto
          hintmask 1000011110000000
          1 48 1 37 64 -1 rrcurveto
          hintmask 1000101110000000
          0 122 -1 1 vhcurveto
          49 vlineto
          hintmask 1100011110000000
          -49 15 -42 9 -49 0 rrcurveto
          -120 -3 -102 -54 hvcurveto
          0 -89 rlineto
          hintmask 1001001110000000
          -99 -17 rlineto
          endchar
        </CharString>
        <CharString name="f_t">
          193 1 56 400 57 -56 74 182 72 hstemhm
          117 74 326 74 -56 56 hintmask 11011100
          20 457 rmoveto
          97 -457 74 hlineto
          hintmask 10111100
          458 326 -268 vlineto
          -140 38 -49 95 vhcurveto
          78 56 hlineto
          -1 -77 18 0 hvcurveto
          -45 11 -13 5 -1 99 rrcurveto
          268 155 74 -155 vlineto
          hintmask 10111010
          148 -56 vlineto
          hintmask 10111100
          -18 -148 -324 0 0 98 rlineto
          0 48 2 37 64 -1 rrcurveto
          0 122 -1 1 vhcurveto
          49 vlineto
          -49 15 -42 9 -49 0 rrcurveto
          -120 -3 -102 -54 hvcurveto
          0 -99 rlineto
          hintmask 11011100
          -99 -17 rlineto
          endchar
        </CharString>
        <CharString name="f_y">
          400 1 77 379 74 -74 57 189 49 hstemhm
          117 74 hintmask 10111000
          20 457 rmoveto
          68 callsubr
          hintmask 11011000
          173 hlineto
          57 0 23 -20 15 -39 rrcurveto
          111 -287 rlineto
          35 -100 64 -10 25 0 rrcurveto
          -102 -270 50 0 77 102 233 699 -84 0 -151 -454 rlineto
          1 0 -50 -9 -17 48 rrcurveto
          -119 305 rlineto
          -32 81 -19 28 -117 0 rrcurveto
          -171 99 hlineto
          0 48 2 42 64 -6 rrcurveto
          0 122 -11 1 vhcurveto
          49 vlineto
          -49 15 -42 19 -49 0 rrcurveto
          -120 -3 -102 -54 hvcurveto
          0 -99 rlineto
          hintmask 10111000
          -99 -17 rlineto
          endchar
        </CharString>
        <CharString name="ffl">
          504 0 53 404 74 -74 57 190 72 -62 70 hstemhm
          117 74 286 74 286 74 cntrmask 00000111
          hintmask 10100111
          20 457 rmoveto
          97 -457 74 hlineto
          hintmask 11000111
          457 286 -457 74 vlineto
          hintmask 10100111
          457 vlineto
          hintmask 11001111
          148 74 -146 53 hlineto
          108 42 22 64 vhcurveto
          178 -525 hlineto
          -141 38 -48 94 vhcurveto
          88 53 hlineto
          -7 -82 21 0 hvcurveto
          -43 12 -14 16 0 87 rrcurveto
          595 -269 vlineto
          -120 -43 -92 -108 hvcurveto
          -53 -288 vlineto
          2 89 rlineto
          hintmask 11010111
          1 48 1 37 64 -1 rrcurveto
          0 122 -1 1 vhcurveto
          49 vlineto
          -49 15 -42 9 -49 0 rrcurveto
          -120 -3 -102 -54 hvcurveto
          0 -89 rlineto
          hintmask 10100111
          -99 -17 rlineto
          endchar
        </CharString>
        <CharString name="fi">
          35 21 -21 457 74 -74 64 -64 57 189 49 hstemhm
          118 74 286 75 hintmask 10011110
          20 457 rmoveto
          98 -457 74 hlineto
          hintmask 11001110
          457 vlineto
          hintmask 10101110
          286 -457 75 521 hlineto
          hintmask 11001110
          -361 10 0 53 rlineto
          0 108 76 26 64 -4 rrcurveto
          0 171 -11 1 vhcurveto
          49 vlineto
          -49 15 -91 19 -49 0 rrcurveto
          -120 -77 -84 -118 hvcurveto
          0 -53 rlineto
          hintmask 10011110
          -98 -17 rlineto
          endchar
        </CharString>
        <CharString name="five">
          30 -4 79 -55 55 297 74 212 74 hstemhm
          78 66 -44 68 302 74 hintmask 01110110
          76 20 rmoveto
          hintmask 10110110
          -88 callsubr
          hintmask 10111010
          -87 callsubr
          hintmask 01110110
          -304 hlineto
          endchar
        </CharString>
        <CharString name="five.denominator">
          -154 -4 63 -49 49 173 62 119 62 hstemhm
          55 52 210 62 hintmask 01111100
          55 10 rmoveto
          hintmask 10111100
          48 callsubr
          hintmask 01111100
          -211 hlineto
          endchar
        </CharString>
        <CharString name="five.numerator">
          -154 251 63 -49 49 173 62 119 62 hstemhm
          55 52 210 62 hintmask 01111100
          55 265 rmoveto
          hintmask 10111100
          48 callsubr
          hintmask 01111100
          -211 hlineto
          endchar
        </CharString>
        <CharString name="five.oldstyle">
          47 -104 79 -55 55 297 74 212 74 hstemhm
          78 66 -44 68 302 74 hintmask 01110110
          76 -25 rmoveto
          -55 vlineto
          hintmask 10110110
          -88 callsubr
          hintmask 10111010
          -87 callsubr
          endchar
        </CharString>
        <CharString name="five.smcp">
          -31 -1 79 -55 55 206 73 139 74 hstemhm
          77 70 -53 73 242 74 hintmask 01110110
          76 23 rmoveto
          hintmask 10110110
          83 -23 67 -2 99 1 85 1 73 39 0 113 rrcurveto
          63 vlineto
          85 -40 57 -118 vhcurveto
          -102 hlineto
          -26 0 -22 -15 -16 -19 rrcurveto
          8 173 290 0 0 74 -363 0 rlineto
          hintmask 10111010
          -17 -361 70 0 rlineto
          54 36 21 39 vhcurveto
          103 hlineto
          86 -2 -40 -31 hvcurveto
          -59 vlineto
          -44 -15 -32 -69 vhcurveto
          hintmask 01110110
          -249 hlineto
          endchar
        </CharString>
        <CharString name="five.tnum">
          47 -4 79 -55 55 297 74 212 74 hstemhm
          78 66 -44 68 302 74 hintmask 01110110
          76 20 rmoveto
          hintmask 10110110
          134 -23 46 -1 124 0 rrcurveto
          62 102 33 137 hvcurveto
          114 vlineto
          97 -46 69 -118 vhcurveto
          -31 0 -67 6 -54 -7 -32 -4 -26 -8 -14 -17 rrcurveto
          12 242 354 0 0 74 -422 0 rlineto
          hintmask 10111010
          -87 callsubr
          hintmask 01110110
          -304 hlineto
          endchar
        </CharString>
        <CharString name="five.tosf">
          47 -104 79 -55 55 297 74 212 74 hstemhm
          78 66 -44 68 302 74 hintmask 01110110
          76 -25 rmoveto
          -55 vlineto
          hintmask 10110110
          -88 callsubr
          hintmask 10111010
          -87 callsubr
          endchar
        </CharString>
        <CharString name="fiveinferior">
          -154 -204 63 -49 49 173 62 119 62 hstemhm
          55 52 210 62 hintmask 10111100
          55 -17 rmoveto
          52 hlineto
          35 19 14 25 vhcurveto
          115 hlineto
          53 -2 -40 -22 hvcurveto
          -56 vlineto
          -33 -16 -22 -35 vhcurveto
          hintmask 01111100
          -211 -49 hlineto
          hintmask 10111100
          87 -15 47 1 81 0 rrcurveto
          63 46 32 82 hvcurveto
          64 vlineto
          71 -32 49 -77 vhcurveto
          -32 0 -88 10 -30 -29 rrcurveto
          8 138 237 0 0 62 -295 0 rlineto
          endchar
        </CharString>
        <CharString name="fivesuperior">
          -154 401 63 -49 49 173 62 119 62 hstemhm
          55 52 210 62 hintmask 01111100
          55 415 rmoveto
          hintmask 10111100
          48 callsubr
          hintmask 01111100
          -211 hlineto
          endchar
        </CharString>
        <CharString name="fl">
          144 0 53 404 74 -74 57 200 72 hstemhm
          117 74 286 74 hintmask 10111100
          20 457 rmoveto
          68 callsubr
          hintmask 11011100
          148 74 -146 53 hlineto
          108 42 22 64 vhcurveto
          178 -525 hlineto
          -141 38 -48 94 vhcurveto
          88 53 hlineto
          -7 -82 21 0 hvcurveto
          -43 12 -14 16 0 87 rrcurveto
          597 -269 vlineto
          -120 -43 -94 -108 hvcurveto
          0 -53 rlineto
          hintmask 10111100
          -99 -17 rlineto
          endchar
        </CharString>
        <CharString name="florin">
          19 -204 74 -49 49 527 74 255 74 -74 49 hstemhm
          hintmask 01100000
          20 -179 rmoveto
          hintmask 10110000
          6 -4 52 -21 39 0 132 0 28 133 25 159 rrcurveto
          48 309 141 0 13 74 -141 0 5 35 rlineto
          17 99 22 121 70 0 rrcurveto
          88 0 rlineto
          hintmask 00101000
          7 49 rlineto
          hintmask 10110000
          -6 2 -40 23 -49 0 -117 0 -44 -135 -25 -159 rrcurveto
          -5 -34 -102 0 -13 -75 102 0 -48 -309 rlineto
          -15 -99 -23 -119 -70 0 rrcurveto
          -90 hlineto
          endchar
        </CharString>
        <CharString name="four">
          30 23 -21 185 78 -59 59 467 -20 hstemhm
          419 74 hintmask 11011000
          20 224 rmoveto
          -91 callsubr
          hintmask 10111000
          -90 callsubr
          hintmask 11011000
          -89 callsubr
          endchar
        </CharString>
        <CharString name="four.denominator">
          -156 22 -21 120 65 -52 52 hstemhm
          281 62 hintmask 11010000
          16 145 rmoveto
          31 callsubr
          hintmask 10110000
          32 callsubr
          hintmask 11010000
          47 callsubr
          endchar
        </CharString>
        <CharString name="four.numerator">
          -156 376 65 -52 52 hstemhm
          281 62 hintmask 10100000
          16 400 rmoveto
          31 callsubr
          hintmask 01100000
          32 callsubr
          hintmask 10100000
          47 callsubr
          endchar
        </CharString>
        <CharString name="four.oldstyle">
          30 87 78 -59 59 hstemhm
          419 74 hintmask 10100000
          20 124 rmoveto
          -91 callsubr
          hintmask 01100000
          -90 callsubr
          hintmask 10100000
          -89 callsubr
          endchar
        </CharString>
        <CharString name="four.smcp">
          -30 23 -21 136 78 -59 59 hstemhm
          359 74 hintmask 11010000
          20 175 rmoveto
          34 -37 305 0 0 -136 74 0 0 136 rlineto
          hintmask 10110000
          90 19 0 59 -90 0 0 240 -37 0 -37 -75 rlineto
          hintmask 11010000
          -165 -224 vlineto
          201 354 -88 0 rlineto
          endchar
        </CharString>
        <CharString name="four.tnum">
          47 23 -21 185 78 -59 59 467 -20 hstemhm
          428 74 hintmask 11011000
          28 224 rmoveto
          72 callsubr
          hintmask 10111000
          73 callsubr
          hintmask 11011000
          -89 callsubr
          endchar
        </CharString>
        <CharString name="four.tosf">
          47 87 78 -59 59 hstemhm
          428 74 hintmask 10100000
          28 124 rmoveto
          72 callsubr
          hintmask 01100000
          73 callsubr
          hintmask 10100000
          -89 callsubr
          endchar
        </CharString>
        <CharString name="fourinferior">
          -156 -79 65 -52 52 hstemhm
          281 62 hintmask 10100000
          16 -55 rmoveto
          31 callsubr
          hintmask 01100000
          32 callsubr
          hintmask 10100000
          47 callsubr
          endchar
        </CharString>
        <CharString name="foursuperior">
          -156 526 65 -52 52 hstemhm
          281 62 hintmask 10100000
          16 550 rmoveto
          31 callsubr
          hintmask 01100000
          32 callsubr
          hintmask 10100000
          47 callsubr
          endchar
        </CharString>
        <CharString name="fraction">
          -340 21 -21 732 -20 hstem
          -90 hmoveto
          30 callsubr
          endchar
        </CharString>
        <CharString name="g">
          -19 -270 74 207 74 64 74 236 74 -56 56 hstemhm
          48 74 288 74 -53 74 hintmask 11110101
          48 115 rmoveto
          0 -27 9 -34 28 -20 rrcurveto
          -40 -65 0 -85 rlineto
          -104 66 -50 94 vhcurveto
          150 hlineto
          131 19 94 60 hvcurveto
          63 vlineto
          83 -46.3999938965 55 -82.6000061035 vhcurveto
          -213 hlineto
          -22.203994751 -18.796005249 8 26 26 25 4 16 hvcurveto
          156 hlineto
          hintmask 11110110
          -18 callsubr
          hintmask 11101101
          81 18 0 56 rlineto
          hintmask 11110101
          -17 callsubr
          71 -231 rmoveto
          135 vlineto
          0 14 -8 31 vhcurveto
          199 hlineto
          57.6000061035 10.3999938965 -22 -47 hvcurveto
          -58 vlineto
          -47 -17 -33 -59 vhcurveto
          -150 hlineto
          -35 -51 7 73 hvcurveto
          4 460 rmoveto
          -16 callsubr
          hintmask 11110110
          -15 callsubr
          endchar
        </CharString>
        <CharString name="g.salt">
          -18 -248 49 189 74 399 74 hstem
          50 74 297 74 vstem
          50 268 rmoveto
          67 callsubr
          74 hmoveto
          -3 callsubr
          endchar
        </CharString>
        <CharString name="g.smcp">
          5 -7 73 -45 -21 237 74 -74 49 219 74 hstemhm
          55 74 320 74 hintmask 10011110
          55 286 rmoveto
          102 callsubr
          hintmask 01101110
          103 callsubr
          hintmask 00011110
          104 callsubr
          hintmask 10101110
          105 callsubr
          endchar
        </CharString>
        <CharString name="g.superior">
          -156 186 61 218 61 146 60 hstemhm
          31 61 201 63 -50 60 hintmask 11110100
          31 291 rmoveto
          -71 45 -34 64 vhcurveto
          125 hlineto
          89 12 68 41 hvcurveto
          8 vlineto
          0 54 -39 40 -59 7 rrcurveto
          -147 17 rlineto
          -15 2 -10 3 0 18 rrcurveto
          18 14 3 11 vhcurveto
          113 hlineto
          hintmask 11111000
          97 25 85 53 hvcurveto
          0 28 -14 33 -7 8 rrcurveto
          51 22 0 38 -231 0 rlineto
          -73 -48 -43 -86 hvcurveto
          0 -36 9 -50 36 -19 -35 -4 -11 -35 0 -22 0 -18 6 -28 19 -14 rrcurveto
          -27 -44 rlineto
          61 -33 rmoveto
          0 66 29 -3 125 -15 rlineto
          hintmask 11110100
          36 -5 24 -11 0 -32 rrcurveto
          -5 vlineto
          -32 -11 -16 -40 vhcurveto
          -105 hlineto
          -27 -31 1 52 hvcurveto
          5 303 rmoveto
          1 40 15 29 56 0 rrcurveto
          61 hlineto
          hintmask 11111000
          44 19 -32 -37 -26 -7 -51 -56 hvcurveto
          -65 hlineto
          -59 0 -10 44 1 33 rrcurveto
          endchar
        </CharString>
        <CharString name="gbreve">
          -19 -270 74 207 74 64 74 236 74 -56 56 64 47 hstemhm
          48 74 37 47 136 47 21 74 -53 74 hintmask 0000010110000000
          159 711 rmoveto
          62 callsubr
          hintmask 1111001000100000
          -158 -596 rmoveto
          76 callsubr
          hintmask 1111001001000000
          -18 callsubr
          hintmask 1110101000100000
          81 18 0 56 rlineto
          hintmask 1111001000100000
          -17 callsubr
          71 -231 rmoveto
          77 callsubr
          4 460 rmoveto
          -16 callsubr
          hintmask 1111001001000000
          -15 callsubr
          endchar
        </CharString>
        <CharString name="gbreve.salt">
          -18 -248 49 189 74 399 74 56 47 hstem
          50 74 55 47 136 47 12 74 vstem
          179 707 rmoveto
          62 callsubr
          -176 -439 rmoveto
          67 callsubr
          74 hmoveto
          -3 callsubr
          endchar
        </CharString>
        <CharString name="gbreve.smcp">
          5 -7 73 -66 21 216 49 -49 74 194 74 60 47 hstemhm
          55 74 76 47 136 47 14 74 hintmask 0000010110000000
          205 753 rmoveto
          62 callsubr
          hintmask 1010101001000000
          -197 -467 rmoveto
          102 callsubr
          hintmask 0101101001000000
          103 callsubr
          hintmask 0010101001000000
          104 callsubr
          hintmask 1001101001000000
          105 callsubr
          endchar
        </CharString>
        <CharString name="gcircumflex">
          -19 -270 74 207 74 64 74 236 74 -56 56 64 130 hstemhm
          48 74 7 292 -11 74 -53 74 hintmask 0000010100000000
          129 597 rmoveto
          33 callsubr
          0 vmoveto
          71 hmoveto
          hintmask 1111001001000000
          -269 -612 rmoveto
          76 callsubr
          hintmask 1111001010000000
          -18 callsubr
          hintmask 1110101001000000
          81 18 0 56 rlineto
          hintmask 1111001001000000
          -17 callsubr
          71 -231 rmoveto
          77 callsubr
          4 460 rmoveto
          -16 callsubr
          hintmask 1111001010000000
          -15 callsubr
          endchar
        </CharString>
        <CharString name="gcircumflex.salt">
          -18 -248 49 189 74 399 74 56 130 hstemhm
          50 74 30 292 -25 74 hintmask 00010100
          154 593 rmoveto
          33 callsubr
          0 vmoveto
          71 hmoveto
          hintmask 11101010
          -292 -455 rmoveto
          67 callsubr
          74 hmoveto
          -3 callsubr
          endchar
        </CharString>
        <CharString name="gcircumflex.smcp">
          5 -7 73 -66 21 216 49 -49 74 194 74 59 130 hstemhm
          55 74 44 292 -16 74 hintmask 0000010100000000
          173 638 rmoveto
          33 callsubr
          0 vmoveto
          71 hmoveto
          hintmask 1010101010000000
          -306 -482 rmoveto
          102 callsubr
          hintmask 0101101010000000
          103 callsubr
          hintmask 0010101010000000
          104 callsubr
          hintmask 1001101010000000
          105 callsubr
          endchar
        </CharString>
        <CharString name="gcommaaccent">
          -19 -270 74 345 74 236 74 -56 56 205.800994873 28.800994873 hstemhm
          48 74 106 90 -90 57.6000061035 124.399993896 74 -53 74 hintmask 1100111000000000
          228 617.300994873 rmoveto
          81 callsubr
          hintmask 1100110100000000
          82 callsubr
          -180 -584.300994873 rmoveto
          0 -27 9 -33 28 -20 rrcurveto
          -40 -65 0 -85 rlineto
          -104 66 -50 94 vhcurveto
          150 hlineto
          hintmask 1110110001000000
          131 19 94 60 hvcurveto
          33 vlineto
          0 79 -59 51 -86 11 rrcurveto
          -197 25 rlineto
          -22 3 -19 5 0 26 rrcurveto
          26 25 6 16 vhcurveto
          156 hlineto
          hintmask 1110110010000000
          -18 callsubr
          hintmask 1101110001000000
          81 18 0 56 rlineto
          hintmask 1110110001000000
          -312 hlineto
          -107 -66 -62 -127 hvcurveto
          0 -53 14 -65 44 -28 -41 -8 -18 -43 0 -33 rrcurveto
          71 -230 rmoveto
          135 vlineto
          0 0 35 -6 20 -3 rrcurveto
          169 -22 rlineto
          52 -7 36 -22 0 -47 rrcurveto
          -28 vlineto
          -47 -17 -33 -59 vhcurveto
          -150 hlineto
          -35 -51 7 73 hvcurveto
          4 460 rmoveto
          -16 callsubr
          hintmask 1110110010000000
          -15 callsubr
          endchar
        </CharString>
        <CharString name="gcommaaccent.salt">
          -18 -248 49 189 74 399 74 201.800994873 28.800994873 hstemhm
          50 74 120 90 -90 57.6000061035 119.399993896 74 hintmask 11111101
          244 617.300994873 rmoveto
          81 callsubr
          hintmask 11111011
          82 callsubr
          -194 -430.300994873 rmoveto
          67 callsubr
          74 hmoveto
          -3 callsubr
          endchar
        </CharString>
        <CharString name="gcommaaccent.smcp">
          5 -244.199996948 28.8000030518 208.399993896 75 -47 -21 236 75 -75 50 220 73 hstemhm
          55 75 128.5 90 -57.6000061035 57.6000061035 100.5 74 hintmask 1100111001000000
          55 286 rmoveto
          -50 -6.30000305176 -243 226.300003052 vhcurveto
          60 0 64 7 53 34 rrcurveto
          hintmask 1011011001000000
          15 -34 rlineto
          14 3 32 -6 10 3 rrcurveto
          308 vlineto
          -24 2 -22 1 -21 0 rrcurveto
          hintmask 1000111001000000
          -81 0 -79 -14 -40 -11 rrcurveto
          -50 vlineto
          hintmask 1101011001000000
          193 -134 hlineto
          -31 -24 -48 -14 -89 4 -120 6 -31 84 0 130 rrcurveto
          181 48 37 109 vhcurveto
          222 -13 0 61 rlineto
          -58 11 -126 14 -43 0 rrcurveto
          -178 -49 -109 -184 hvcurveto
          hintmask 1000000100000000
          203.5 -428.5 rmoveto
          78 callsubr
          hintmask 1000000010000000
          79 callsubr
          hintmask 1000000100000000
          80 callsubr
          endchar
        </CharString>
        <CharString name="gdotaccent">
          -19 -270 74 207 74 64 74 236 74 -56 56 66 102 hstemhm
          48 74 107 97 84 74 -53 74 hintmask 0000010100000000
          229 622 rmoveto
          -13 callsubr
          hintmask 1111001001000000
          -181 -561 rmoveto
          76 callsubr
          hintmask 1111001010000000
          -18 callsubr
          hintmask 1110101001000000
          81 18 0 56 rlineto
          hintmask 1111001001000000
          -17 callsubr
          71 -231 rmoveto
          77 callsubr
          4 460 rmoveto
          -16 callsubr
          hintmask 1111001010000000
          -15 callsubr
          endchar
        </CharString>
        <CharString name="gdotaccent.salt">
          -18 -248 49 189 74 399 74 58 102 hstem
          50 74 121 97 79 74 vstem
          245 618 rmoveto
          -13 callsubr
          -195 -404 rmoveto
          67 callsubr
          74 hmoveto
          -3 callsubr
          endchar
        </CharString>
        <CharString name="gdotaccent.smcp">
          5 -7 73 -66 21 216 49 -49 74 194 74 60 102 hstemhm
          55 74 142 97 81 74 hintmask 0000010100000000
          271 662 rmoveto
          -13 callsubr
          hintmask 1010101010000000
          -216 -430 rmoveto
          102 callsubr
          hintmask 0101101010000000
          103 callsubr
          hintmask 0010101010000000
          104 callsubr
          hintmask 1001101010000000
          105 callsubr
          endchar
        </CharString>
        <CharString name="germandbls">
          -3 -8 74 -45 -21 703 74 hstemhm
          60 74 133 74 135 74 hintmask 01111100
          60 hmoveto
          74 566 hlineto
          101 70 36 79 70 85 -15 -76 vhcurveto
          0 -44 -18 -32 -32 -24 -100 -74 -21 -26 0 -64 0 -148 209 56 0 -77 rrcurveto
          -47 vlineto
          hintmask 10111100
          -2 -40 -38 -26 -40 0 -69 0 -68 5 -40 0 rrcurveto
          -60 vlineto
          38 -4 67 -15 68 0 63 0 96 31 -1 109 rrcurveto
          47 vlineto
          0 150 -209 -48 0 67 0 40 35 20 57 47 109 76 36 246 -295 0 rrcurveto
          -142 -81 -95 -116 hvcurveto
          endchar
        </CharString>
        <CharString name="germandbls.smcp">
          445 -10 74 -52 55 176 74 179 57 -53 73 hstemhm
          37 74 280 74 81 74 280 74 hintmask 0010111110000000
          37 374 rmoveto
          67 vlineto
          82 35 50 103 vhcurveto
          hintmask 0011011110000000
          52 0 144 -11 67 -9 rrcurveto
          -57 vlineto
          hintmask 1010111110000000
          0 -165 4 -98 -52 -12 -25 -34 vhcurveto
          -67 vlineto
          -60 27 3 37 vhcurveto
          160 hlineto
          87 43 -54 -75 hvcurveto
          -70 vlineto
          -109 -75 -19 -55 vhcurveto
          hintmask 0110011110000000
          -49 0 -190 10 -37 12 rrcurveto
          55 vlineto
          hintmask 1010111110000000
          0 180 -3 96 41 15 24 30 vhcurveto
          70 vlineto
          35 -12 20 -44 vhcurveto
          -160 hlineto
          -94 -44 35 96 hvcurveto
          509 67 rmoveto
          -67 vlineto
          -96 44 -35 94 vhcurveto
          160 hlineto
          44 12 -20 -35 hvcurveto
          -70 vlineto
          -30 -15 -24 -41 vhcurveto
          hintmask 0110011110000000
          -96 -180 3 0 hvcurveto
          -55 vlineto
          hintmask 1010111110000000
          37 -12 190 -10 49 0 rrcurveto
          55 75 19 109 hvcurveto
          70 vlineto
          75 -43 54 -87 vhcurveto
          -160 hlineto
          -37 -27 -3 60 hvcurveto
          67 vlineto
          34 12 25 52 vhcurveto
          hintmask 0011011110000000
          98 165 -4 0 hvcurveto
          57 vlineto
          hintmask 1010111110000000
          -67 9 -144 11 -52 0 rrcurveto
          -103 -35 -50 -82 hvcurveto
          endchar
        </CharString>
        <CharString name="grave">
          -331 531 133 hstem
          20 202 vstem
          20 664 rmoveto
          -31 callsubr
          endchar
        </CharString>
        <CharString name="grave.smcp">
          -331 531 133 hstem
          20 202 vstem
          20 664 rmoveto
          -31 callsubr
          endchar
        </CharString>
        <CharString name="greater">
          -98 50 140 rmoveto
          -72 callsubr
          endchar
        </CharString>
        <CharString name="greaterequal">
          -98 104 74 hstem
          50 104 rmoveto
          376 74 -376 hlineto
          1 42 rmoveto
          -72 callsubr
          endchar
        </CharString>
        <CharString name="guillemotleft">
          -24 50 354 rmoveto
          14 callsubr
          -20 -203 rmoveto
          14 callsubr
          endchar
        </CharString>
        <CharString name="guillemotright">
          -24 50 198 rmoveto
          29 callsubr
          26 -156 rmoveto
          29 callsubr
          endchar
        </CharString>
        <CharString name="guilsinglleft">
          -216 50 263 vstem
          50 354 rmoveto
          14 callsubr
          endchar
        </CharString>
        <CharString name="guilsinglright">
          -216 50 263 vstem
          50 198 rmoveto
          29 callsubr
          endchar
        </CharString>
        <CharString name="h">
          21 -21 466 74 244 -20 hstem
          60 74 286 74 vstem
          60 hmoveto
          -14 callsubr
          endchar
        </CharString>
        <CharString name="h.smcp">
          26 20 -21 239 74 hstem
          80 74 311 74 vstem
          80 -1 rmoveto
          106 callsubr
          endchar
        </CharString>
        <CharString name="h.superior">
          -170 677 62 hstem
          38 62 202 62 vstem
          38 378 rmoveto
          62 263 hlineto
          58 24 23 12 54 0 rrcurveto
          36 31 -20 -43 hvcurveto
          -236 62 247 vlineto
          59 -43 55 -80 vhcurveto
          -61 0 -34 -28 -46 -26 rrcurveto
          216 -62 vlineto
          endchar
        </CharString>
        <CharString name="hbar">
          21 -21 468 72 70 54 120 -20 hstem
          60 77 280 77 vstem
          -17 610 rmoveto
          77 -610 77 409 hlineto
          77 37 55 19 53 3 70 0 22 -40 3 -59 rrcurveto
          -369 77 372 vlineto
          0 88 -52 84 -103 -4 -66 1 -75 -37 -61 -35 rrcurveto
          141 134 54 -134 120 -77 -120 -77 vlineto
          endchar
        </CharString>
        <CharString name="hbar.smcp">
          26 20 -21 240 74 86 51 hstem
          80 74 311 74 vstem
          32 399 rmoveto
          48 -400 74 240 311 -240 74 400 46 51 -46 120 -74 -120 -311 hlineto
          120 -74 -120 -48 vlineto
          122 -137 rmoveto
          86 311 -86 vlineto
          endchar
        </CharString>
        <CharString name="hcircumflex">
          0 21 445 74 224 20 60 130 hstemhm
          -51 292 -181 74 286 74 hintmask 00011000
          -51 844 rmoveto
          33 callsubr
          0 vmoveto
          71 hmoveto
          hintmask 11100110
          -77 -974 rmoveto
          -14 callsubr
          endchar
        </CharString>
        <CharString name="hcircumflex.smcp">
          26 -1 21 218 74 318 130 hstem
          80 74 4 292 15 74 vstem
          158 630 rmoveto
          33 callsubr
          0 vmoveto
          71 hmoveto
          -266 -761 rmoveto
          106 callsubr
          endchar
        </CharString>
        <CharString name="hungarumlaut">
          -193 531 133 hstem
          20 531 rmoveto
          24 callsubr
          28 -133 rmoveto
          24 callsubr
          endchar
        </CharString>
        <CharString name="hyphen">
          -219 253 74 hstem
          20 314 vstem
          20 253 rmoveto
          -98 callsubr
          endchar
        </CharString>
        <CharString name="hyphen.alt">
          -219 323 74 hstem
          20 314 vstem
          20 323 rmoveto
          -98 callsubr
          endchar
        </CharString>
        <CharString name="hyphen.smcp">
          -219 238 74 hstem
          20 314 vstem
          20 238 rmoveto
          -98 callsubr
          endchar
        </CharString>
        <CharString name="i">
          -376 21 -21 531 -20 83 102 hstemhm
          50 97 -87 74 hintmask 11110000
          50 617 rmoveto
          -13 callsubr
          hintmask 11101000
          10 -671 rmoveto
          -12 callsubr
          endchar
        </CharString>
        <CharString name="i.smcp">
          -359 21 -21 hstem
          80 74 vstem
          80 hmoveto
          107 callsubr
          endchar
        </CharString>
        <CharString name="i.superior">
          -428 779 79 hstemhm
          34 75 -70 62 hintmask 11000000
          34 796 rmoveto
          -11 7 -6 11 vhcurveto
          40 hlineto
          11 6 6 11 hvcurveto
          43 vlineto
          11 -6 8 -11 vhcurveto
          -40 hlineto
          -12 -6 -8 -11 hvcurveto
          hintmask 10100000
          5 -461 rmoveto
          62 356 -62 hlineto
          endchar
        </CharString>
        <CharString name="iacute">
          -379 0 21 490 20 65 133 hstemhm
          60 74 -71.5 202 hintmask 00101000
          62.5 596 rmoveto
          24 callsubr
          hintmask 11010000
          -109.5 -729 rmoveto
          -12 callsubr
          endchar
        </CharString>
        <CharString name="iacute.smcp">
          -359 0 21 609 133 hstemhm
          80 74 -62 202 hintmask 01010000
          92 630 rmoveto
          24 callsubr
          hintmask 10100000
          -119 -763 rmoveto
          107 callsubr
          endchar
        </CharString>
        <CharString name="icircumflex">
          -379 0 21 490 20 65 130 hstemhm
          -49 292 -183 74 hintmask 00110000
          -49 596 rmoveto
          33 callsubr
          0 vmoveto
          71 hmoveto
          hintmask 11001000
          -79 -726 rmoveto
          -12 callsubr
          endchar
        </CharString>
        <CharString name="icircumflex.smcp">
          -359 0 21 609 130 hstemhm
          -20 292 -192 74 hintmask 01100000
          -20 630 rmoveto
          33 callsubr
          0 vmoveto
          71 hmoveto
          hintmask 10010000
          -88 -760 rmoveto
          107 callsubr
          endchar
        </CharString>
        <CharString name="idieresis">
          -379 0 21 490 20 65 101 hstem
          -81 101 40 74 40 101 vstem
          cntrmask 00011100
          -81 647 rmoveto
          11 callsubr
          255 hmoveto
          11 callsubr
          -114 -647 rmoveto
          -12 callsubr
          endchar
        </CharString>
        <CharString name="idieresis.smcp">
          -359 0 21 609 101 hstem
          -52 101 31 74 49 101 vstem
          -52 681 rmoveto
          11 callsubr
          255 hmoveto
          11 callsubr
          -123 -681 rmoveto
          107 callsubr
          endchar
        </CharString>
        <CharString name="igrave">
          -379 0 21 490 20 65 133 hstemhm
          -70.5 202 -71.5 74 hintmask 00110000
          -70.5 729 rmoveto
          -31 callsubr
          hintmask 11001000
          35.5 -729 rmoveto
          -12 callsubr
          endchar
        </CharString>
        <CharString name="igrave.smcp">
          -359 0 21 609 133 hstemhm
          -40 202 -82 74 hintmask 01100000
          -40 763 rmoveto
          -31 callsubr
          hintmask 10010000
          25 -763 rmoveto
          107 callsubr
          endchar
        </CharString>
        <CharString name="imacron">
          -379 0 21 490 20 65 63 hstemhm
          -49 292 -183 74 hintmask 00110000
          -49 596 rmoveto
          15 callsubr
          hintmask 11001000
          109 -659 rmoveto
          -12 callsubr
          endchar
        </CharString>
        <CharString name="imacron.smcp">
          -359 0 21 609 63 hstemhm
          -20 292 -192 74 hintmask 01100000
          -20 630 rmoveto
          15 callsubr
          hintmask 10010000
          100 -693 rmoveto
          107 callsubr
          endchar
        </CharString>
        <CharString name="infinity">
          213 169 74 197 74 hstem
          50 74 538 74 vstem
          50 341 rmoveto
          -92 39 -80 127 vhcurveto
          74 0 58 30 44 78 44 -78 57 -30 77 0 rrcurveto
          127 39 80 92 87 -28 86 -138 hvcurveto
          -76 0 -63 -47 -38 -58 -38 58 -63 47 -76 0 rrcurveto
          -138 -28 -86 -87 hvcurveto
          74 hmoveto
          55 5 44 87 vhcurveto
          55 0 58 -49 32 -50 -33 -49 -43 -49 -69 0 rrcurveto
          -77 -15 43 55 hvcurveto
          301 hmoveto
          32 50 58 49 55 0 rrcurveto
          85 7 -44 -55 -55 -19 -43 -73 hvcurveto
          -69 0 -43 49 -33 49 rrcurveto
          endchar
        </CharString>
</ttFont>
